<svg width="83" height="82" viewBox="0 0 83 82" fill="none" xmlns="http://www.w3.org/2000/svg">
<path fill-rule="evenodd" clip-rule="evenodd" d="M53.7846 59.5386C49.3939 62.2202 44.2333 63.7655 38.7118 63.7655C22.7183 63.7655 9.75293 50.8001 9.75293 34.8066C9.75293 18.813 22.7183 5.84766 38.7118 5.84766C54.7054 5.84766 67.6708 18.813 67.6708 34.8066C67.6708 42.8237 64.4129 50.0799 59.1489 55.3235L71.665 69.7306C72.899 71.151 72.7479 73.3029 71.3274 74.5369C69.907 75.7709 67.7551 75.6198 66.5211 74.1993L53.7846 59.5386ZM47.5028 26.0144C48.6062 27.1178 48.6062 28.9068 47.5028 30.0102L42.4532 35.0597L47.5975 40.204C48.7062 41.3127 48.7062 43.1103 47.5975 44.2191C46.4887 45.3278 44.6911 45.3278 43.5824 44.2191L38.4381 39.0749L33.9171 43.5959C32.8137 44.6993 31.0247 44.6993 29.9213 43.5959C28.8179 42.4925 28.8179 40.7035 29.9213 39.6001L34.4423 35.0791L29.931 30.5677C28.8223 29.459 28.8223 27.6614 29.931 26.5526C31.0397 25.4439 32.8374 25.4439 33.9461 26.5526L38.4575 31.064L43.507 26.0144C44.6104 24.911 46.3994 24.911 47.5028 26.0144Z" fill="url(#paint0_linear_997_9951)"/>
<defs>
<linearGradient id="paint0_linear_997_9951" x1="9.75293" y1="5.84766" x2="84.3873" y2="22.6874" gradientUnits="userSpaceOnUse">
<stop stop-color="#DF0B17"/>
<stop offset="0.711919" stop-color="#FF755F"/>
</linearGradient>
</defs>
</svg>
