<svg width="31" height="31" viewBox="0 0 31 31" fill="none" xmlns="http://www.w3.org/2000/svg">
<path d="M16.2284 4.61405L16.2302 4.61573L25.6034 13.1336C25.6036 13.1338 25.6038 13.134 25.6041 13.1342C25.7189 13.2395 25.8107 13.3674 25.8735 13.51C25.9364 13.6527 25.9689 13.807 25.969 13.963C25.969 13.9631 25.969 13.9632 25.969 13.9633L25.969 24.801C25.969 24.8013 25.969 24.8015 25.969 24.8017C25.9684 25.0054 25.9131 25.2051 25.8088 25.38C25.7045 25.5552 25.555 25.699 25.3759 25.7966L25.3759 25.7966C25.2148 25.8843 25.034 25.9295 24.8506 25.9279V25.9279H24.844H19.219C19.1693 25.9279 19.1216 25.9081 19.0864 25.873C19.0513 25.8378 19.0315 25.7901 19.0315 25.7404V20.1154C19.0315 19.6678 18.8537 19.2386 18.5372 18.9221C18.2208 18.6057 17.7915 18.4279 17.344 18.4279H13.594C13.1464 18.4279 12.7172 18.6057 12.4008 18.9221C12.0843 19.2386 11.9065 19.6678 11.9065 20.1154V25.7404C11.9065 25.7901 11.8867 25.8378 11.8516 25.873C11.8164 25.9081 11.7687 25.9279 11.719 25.9279L6.094 25.9279L6.09117 25.9279C5.93225 25.9285 5.77504 25.895 5.63011 25.8298C5.48605 25.765 5.35744 25.6703 5.25283 25.5519C5.06533 25.3343 4.96427 25.0554 4.9689 24.7681L4.969 24.7681V24.756L4.969 13.9633C4.969 13.9632 4.969 13.9632 4.969 13.9631C4.969 13.9631 4.969 13.9631 4.969 13.963C4.96908 13.807 5.00161 13.6527 5.06453 13.51C5.12733 13.3674 5.21905 13.2395 5.33386 13.1343C5.33411 13.134 5.33437 13.1338 5.33463 13.1336L14.7078 4.61574L14.7096 4.61405C14.917 4.42432 15.1879 4.31909 15.469 4.31909C15.7501 4.31909 16.021 4.42432 16.2284 4.61405Z" stroke="#444444" stroke-width="1.5"/>
</svg>
