<svg width="104" height="25" viewBox="0 0 104 25" fill="none" xmlns="http://www.w3.org/2000/svg">
<path d="M0 0.408691H28.0808C33.544 0.408691 36.2041 2.46369 36.2041 6.71237C36.2041 8.93546 35.4309 10.6543 33.8802 11.7007C36.036 12.642 36.8219 14.6634 36.8219 17.2605C36.8555 21.6059 34.1617 23.9844 28.417 23.9844H0V0.408691ZM27.005 9.47338C28.0808 9.47338 28.7237 8.90185 28.7237 7.6201C28.7237 6.33835 28.0808 5.83406 27.005 5.83406H24.5423V9.47338H27.005ZM27.0722 18.5717C28.3539 18.5717 29.06 18.0001 29.06 16.6512C29.06 15.3022 28.3539 14.7306 27.0722 14.7306H24.5507V18.5717H27.0722Z" fill="#DF0B17"/>
<path d="M39.25 10.312V0.394239H43.6668C44.5033 0.34682 45.3287 0.603552 45.9907 1.11706C46.2805 1.38099 46.5067 1.7072 46.6523 2.07114C46.7979 2.43509 46.8591 2.8273 46.8312 3.21829C46.8358 3.56776 46.7659 3.9142 46.626 4.2345C46.4862 4.5548 46.2796 4.84161 46.0201 5.07578C46.3915 5.269 46.695 5.57104 46.8901 5.94148C47.1129 6.36916 47.2242 6.84615 47.2136 7.32828C47.2364 7.73666 47.1688 8.14504 47.0155 8.52425C46.8622 8.90346 46.6271 9.24415 46.3269 9.52196C45.6498 10.0775 44.7892 10.3593 43.9147 10.312H39.25ZM43.3726 2.66356H41.8093V4.15963H43.3474C43.9399 4.15963 44.2341 3.91169 44.2341 3.4158C44.2341 2.91991 43.9694 2.66356 43.3726 2.66356ZM43.6121 6.33651H41.8093V8.0469H43.6247C44.2887 8.0469 44.6207 7.76113 44.6207 7.20641C44.6207 6.65169 44.2845 6.33651 43.6121 6.33651Z" fill="#2D2A26"/>
<path d="M59.548 0.210938L64.9439 10.3262H62.0022L61.5105 9.33026H57.5855L57.098 10.3262H54.1562L59.548 0.210938ZM59.548 5.37995L58.5688 7.3551H60.5188L59.548 5.37995Z" fill="#2D2A26"/>
<path d="M71.3511 0.408691V2.67801H68.2623V10.3265H65.703V2.67801H62.6016V0.408691H71.3511Z" fill="#2D2A26"/>
<path d="M54.4438 0.373047V2.64657H50.4935V4.13845H53.8555V6.36154H50.4935V8.04252H54.5657L53.347 10.316H47.9258V0.373047H54.4438Z" fill="#2D2A26"/>
<path d="M46.7114 17.1412L44.0974 17.2715C44.1077 17.1174 44.0853 16.9629 44.0317 16.818C43.9781 16.6732 43.8945 16.5413 43.7865 16.431C43.5582 16.2464 43.2769 16.1395 42.9836 16.1259C42.6903 16.1123 42.4003 16.1927 42.1559 16.3553C42.0618 16.4332 41.9871 16.5317 41.9375 16.6433C41.8879 16.7548 41.8649 16.8764 41.8701 16.9983C41.8681 17.1148 41.898 17.2296 41.9565 17.3304C42.015 17.4311 42.0999 17.5139 42.2021 17.5698C42.6257 17.7527 43.0663 17.8935 43.5175 17.9901C44.4269 18.1891 45.2854 18.574 46.039 19.1206C46.3055 19.3476 46.5165 19.6327 46.6556 19.954C46.7948 20.2752 46.8584 20.6241 46.8416 20.9738C46.8715 21.4226 46.7914 21.8719 46.6083 22.2827C46.4252 22.6936 46.1447 23.0535 45.791 23.3314C45.0076 23.8765 44.0677 24.1509 43.1141 24.1131C42.0497 24.1635 40.9992 23.8557 40.1303 23.239C39.759 22.9457 39.4638 22.5672 39.27 22.1356C39.0761 21.7039 38.9892 21.2319 39.0167 20.7595L41.6306 20.6292C41.623 20.8049 41.6571 20.9799 41.7302 21.1399C41.8032 21.2998 41.9131 21.4402 42.0508 21.5496C42.3567 21.7928 42.7405 21.9167 43.1309 21.8984C43.8747 21.8984 44.2445 21.6336 44.2445 21.1041C44.2389 20.9809 44.2005 20.8614 44.1332 20.758C44.066 20.6546 43.9724 20.571 43.8621 20.5158C43.4539 20.2916 43.015 20.1287 42.5593 20.0325C41.7452 19.8559 40.9657 19.5464 40.2522 19.1164C39.9221 18.893 39.6566 18.5866 39.4825 18.2281C39.3084 17.8696 39.2318 17.4715 39.2604 17.074C39.2462 16.6522 39.3217 16.2322 39.4818 15.8418C39.6419 15.4513 39.883 15.0993 40.1892 14.8088C40.9274 14.1665 41.8896 13.8417 42.8661 13.9053C43.8658 13.8572 44.8506 14.1622 45.6481 14.7668C45.9955 15.0546 46.2721 15.4184 46.4565 15.8301C46.6408 16.2418 46.7281 16.6904 46.7114 17.1412Z" fill="#2D2A26"/>
<path d="M52.4111 13.933C53.1003 13.9044 53.7882 14.0142 54.4343 14.256C55.0803 14.4978 55.6713 14.8667 56.1723 15.3408C57.1199 16.3414 57.648 17.6672 57.648 19.0453C57.648 20.4234 57.1199 21.7491 56.1723 22.7497C55.6691 23.2197 55.0773 23.5847 54.4316 23.8235C53.7858 24.0623 53.099 24.1702 52.4111 24.1407C51.008 24.1986 49.6391 23.6984 48.6037 22.7497C48.1164 22.2662 47.7352 21.6866 47.4841 21.0478C47.233 20.4089 47.1177 19.7248 47.1454 19.0389C47.115 18.3547 47.2292 17.6717 47.4805 17.0345C47.7317 16.3973 48.1145 15.8202 48.6037 15.3408C49.1132 14.8653 49.7122 14.4959 50.3659 14.2543C51.0196 14.0126 51.7148 13.9033 52.4111 13.933ZM52.4111 16.2023C52.0527 16.1839 51.6944 16.2422 51.3603 16.3734C51.0262 16.5046 50.7239 16.7056 50.4738 16.9629C50.0099 17.5547 49.7579 18.285 49.7579 19.0369C49.7579 19.7888 50.0099 20.519 50.4738 21.1108C50.7236 21.3689 51.0257 21.5707 51.3598 21.7026C51.6939 21.8345 52.0523 21.8935 52.4111 21.8756C52.766 21.8923 53.1203 21.8327 53.4502 21.7007C53.78 21.5688 54.0777 21.3676 54.3232 21.1108C54.7836 20.5175 55.0335 19.7878 55.0335 19.0369C55.0335 18.2859 54.7836 17.5562 54.3232 16.9629C54.0775 16.7066 53.7797 16.5061 53.4498 16.3749C53.1199 16.2437 52.7657 16.1848 52.4111 16.2023Z" fill="#2D2A26"/>
<path d="M69.1173 13.8774V23.997H66.558V20.5341L63.7214 23.997L60.8679 20.5341V23.997H58.3086V13.8774L63.7214 20.4038L69.1173 13.8774Z" fill="#2D2A26"/>
<path d="M76.5673 14.0794V16.3445H72.6296V17.8322H75.9916V20.0427H72.6296V21.7237H76.5799V23.993H70.0703V14.0752L76.5673 14.0794Z" fill="#2D2A26"/>
<path d="M82.3095 13.9332C83.0021 13.9027 83.6937 14.0116 84.3434 14.2535C84.9931 14.4953 85.5877 14.8651 86.0917 15.3411C87.0365 16.3431 87.5627 17.6683 87.5627 19.0455C87.5627 20.4227 87.0365 21.7479 86.0917 22.75C85.5855 23.2217 84.9902 23.5877 84.3408 23.8266C83.6913 24.0654 83.0008 24.1723 82.3095 24.141C80.9064 24.1988 79.5375 23.6987 78.5021 22.75C78.0149 22.2665 77.6336 21.6869 77.3825 21.048C77.1315 20.4092 77.0161 19.7251 77.0439 19.0392C77.0135 18.3549 77.1276 17.6719 77.3789 17.0347C77.6302 16.3975 78.0129 15.8204 78.5021 15.3411C79.0119 14.866 79.611 14.4969 80.2646 14.2552C80.9182 14.0135 81.6133 13.9041 82.3095 13.9332ZM82.3095 16.2026C81.9511 16.1842 81.5928 16.2425 81.2587 16.3737C80.9246 16.5048 80.6224 16.7058 80.3722 16.9632C79.9084 17.555 79.6563 18.2852 79.6563 19.0371C79.6563 19.789 79.9084 20.5192 80.3722 21.111C80.622 21.3692 80.9241 21.5709 81.2582 21.7028C81.5923 21.8347 81.9508 21.8937 82.3095 21.8759C82.665 21.8923 83.0199 21.8326 83.3504 21.7007C83.6809 21.5688 83.9794 21.3677 84.2258 21.111C84.6835 20.5165 84.9317 19.7874 84.9317 19.0371C84.9317 18.2869 84.6835 17.5577 84.2258 16.9632C83.979 16.7072 83.6804 16.507 83.3499 16.3758C83.0194 16.2446 82.6647 16.1855 82.3095 16.2026Z" fill="#2D2A26"/>
<path d="M88.207 13.8774L93.8719 18.7187V14.096H96.427V24.2113L90.7663 19.3869V24.0096H88.207V13.8774Z" fill="#2D2A26"/>
<path d="M103.88 14.0794V16.3445H99.9421V17.8322H103.304V20.0427H99.9421V21.7237H103.892V23.993H97.3828V14.0752L103.88 14.0794Z" fill="#2D2A26"/>
</svg>
