<svg width="24" height="23" viewBox="0 0 24 23" fill="none" xmlns="http://www.w3.org/2000/svg">
<path d="M13.9592 1.15521L13.7344 0.708607V0.708607L13.9592 1.15521ZM16.6193 0.570074L16.6265 0.0701267L16.6193 0.570074ZM11.9836 2.70883L11.6137 3.04531C11.7086 3.14965 11.8432 3.20904 11.9843 3.20883C12.1253 3.20863 12.2598 3.14886 12.3544 3.04425L11.9836 2.70883ZM9.99663 1.16202L9.77387 1.60965V1.60965L9.99663 1.16202ZM6.16122 16.9128L5.83266 17.2897L6.16122 16.9128ZM9.77555 19.5428L9.5178 19.9713L9.77555 19.5428ZM11.066 20.2543L10.8464 20.7035H10.8464L11.066 20.2543ZM11.5089 20.4534L11.6926 19.9883V19.9883L11.5089 20.4534ZM11.6967 20.5194L11.5546 20.9988H11.5546L11.6967 20.5194ZM12.2723 20.5194L12.4144 20.9988H12.4144L12.2723 20.5194ZM12.46 20.4534L12.2764 19.9883V19.9883L12.46 20.4534ZM12.9029 20.2543L12.6833 19.8051H12.6833L12.9029 20.2543ZM14.1934 19.5428L14.4511 19.9713L14.1934 19.5428ZM17.8077 16.9128L17.4792 16.5359L17.8077 16.9128ZM14.184 1.60181C14.9974 1.19232 15.8095 1.05841 16.6121 1.07002L16.6265 0.0701267C15.6965 0.0566697 14.7189 0.212971 13.7344 0.708607L14.184 1.60181ZM12.3544 3.04425C12.9571 2.37793 13.5663 1.9128 14.184 1.60181L13.7344 0.708607C12.9914 1.08265 12.2862 1.62898 11.6128 2.37342L12.3544 3.04425ZM9.77387 1.60965C10.3943 1.91844 11.0084 2.37995 11.6137 3.04531L12.3534 2.37236C11.675 1.62662 10.9638 1.08483 10.2194 0.714388L9.77387 1.60965ZM7.3605 1.07C8.14751 1.07 8.95804 1.20366 9.77387 1.60965L10.2194 0.714388C9.23611 0.22505 8.26602 0.0699951 7.3605 0.0699951V1.07ZM1.45898 7.48509C1.45898 3.7642 4.12667 1.07 7.3605 1.07V0.0699951C3.51628 0.0699951 0.458984 3.27188 0.458984 7.48509H1.45898ZM6.48978 16.5359C3.97036 14.3395 1.45898 11.1934 1.45898 7.48509H0.458984C0.458984 11.6421 3.25483 15.0424 5.83266 17.2897L6.48978 16.5359ZM10.0333 19.1144C9.03574 18.5142 7.75505 17.6389 6.48978 16.5359L5.83266 17.2897C7.14968 18.4378 8.47964 19.3467 9.5178 19.9713L10.0333 19.1144ZM11.2856 19.8051C10.962 19.6468 10.5321 19.4144 10.0333 19.1144L9.5178 19.9713C10.037 20.2836 10.4925 20.5304 10.8464 20.7035L11.2856 19.8051ZM11.6926 19.9883C11.5847 19.9457 11.4471 19.884 11.2856 19.8051L10.8464 20.7035C11.0218 20.7892 11.1847 20.8629 11.3252 20.9184L11.6926 19.9883ZM11.8387 20.04C11.7957 20.0272 11.7463 20.0095 11.6926 19.9883L11.3252 20.9184C11.3945 20.9458 11.4734 20.9747 11.5546 20.9988L11.8387 20.04ZM11.9845 20.0653C11.9287 20.0653 11.8728 20.0501 11.8387 20.04L11.5546 20.9988C11.6031 21.0132 11.7757 21.0653 11.9845 21.0653V20.0653ZM12.1302 20.04C12.0961 20.0501 12.0403 20.0653 11.9845 20.0653V21.0653C12.1933 21.0653 12.3658 21.0132 12.4144 20.9988L12.1302 20.04ZM12.2764 19.9883C12.2227 20.0095 12.1733 20.0272 12.1302 20.04L12.4144 20.9988C12.4955 20.9747 12.5745 20.9458 12.6437 20.9184L12.2764 19.9883ZM12.6833 19.8051C12.5218 19.884 12.3843 19.9457 12.2764 19.9883L12.6437 20.9184C12.7842 20.8629 12.9471 20.7892 13.1225 20.7035L12.6833 19.8051ZM13.9356 19.1144C13.4368 19.4144 13.007 19.6468 12.6833 19.8051L13.1225 20.7035C13.4765 20.5304 13.932 20.2836 14.4511 19.9713L13.9356 19.1144ZM17.4792 16.5359C16.2139 17.6389 14.9332 18.5142 13.9356 19.1144L14.4511 19.9713C15.4893 19.3467 16.8193 18.4378 18.1363 17.2897L17.4792 16.5359ZM22.5099 7.48508C22.5099 11.1934 19.9986 14.3395 17.4792 16.5359L18.1363 17.2897C20.7141 15.0424 23.5099 11.6421 23.5099 7.48508H22.5099ZM16.6121 1.07002C19.8402 1.11673 22.5099 3.76117 22.5099 7.48508H23.5099C23.5099 3.25458 20.4405 0.125311 16.6265 0.0701267L16.6121 1.07002Z" fill="#DF0B17"/>
<g filter="url(#filter0_d_827_9763)">
<path fill-rule="evenodd" clip-rule="evenodd" d="M11.1518 6.84719C11.1518 6.46559 11.4612 6.15625 11.8427 6.15625C14.2595 6.15625 16.2187 8.11543 16.2187 10.5322C16.2187 10.9138 15.9094 11.2231 15.5278 11.2231C15.1462 11.2231 14.8368 10.9138 14.8368 10.5322C14.8368 9.11643 13.8542 7.93017 12.5337 7.61825V12.3747C12.5337 13.7739 11.3994 14.9082 10.0002 14.9082C8.60106 14.9082 7.4668 13.7739 7.4668 12.3747C7.4668 10.9755 8.60106 9.84126 10.0002 9.84126C10.4149 9.84126 10.8063 9.94089 11.1518 10.1175V6.84719Z" fill="#DF0B17"/>
</g>
<defs>
<filter id="filter0_d_827_9763" x="3.4668" y="6.15625" width="16.752" height="16.752" filterUnits="userSpaceOnUse" color-interpolation-filters="sRGB">
<feFlood flood-opacity="0" result="BackgroundImageFix"/>
<feColorMatrix in="SourceAlpha" type="matrix" values="0 0 0 0 0 0 0 0 0 0 0 0 0 0 0 0 0 0 127 0" result="hardAlpha"/>
<feOffset dy="4"/>
<feGaussianBlur stdDeviation="2"/>
<feComposite in2="hardAlpha" operator="out"/>
<feColorMatrix type="matrix" values="0 0 0 0 0 0 0 0 0 0 0 0 0 0 0 0 0 0 0.25 0"/>
<feBlend mode="normal" in2="BackgroundImageFix" result="effect1_dropShadow_827_9763"/>
<feBlend mode="normal" in="SourceGraphic" in2="effect1_dropShadow_827_9763" result="shape"/>
</filter>
</defs>
</svg>
