<svg width="25" height="25" viewBox="0 0 25 25" fill="none" xmlns="http://www.w3.org/2000/svg">
<path d="M17.3059 13.2134C17.3056 14.3964 17.0389 15.564 16.5256 16.6298C16.0122 17.6955 15.2653 18.6319 14.3405 19.3694C13.4156 20.1069 12.3365 20.6266 11.1832 20.8899C10.03 21.1532 8.8322 21.1533 7.6789 20.8903L4.17988 22.5891V19.0826C3.20068 18.2068 2.45613 17.0999 2.01403 15.8628C1.57193 14.6257 1.44632 13.2976 1.64865 11.9996C1.85098 10.7015 2.37482 9.47469 3.17246 8.43081C3.9701 7.38694 5.0162 6.55918 6.21551 6.02292C7.41481 5.48666 8.72921 5.25893 10.039 5.36048C11.3488 5.46202 12.6124 5.88961 13.7147 6.60431C14.8171 7.31901 15.7231 8.29811 16.3503 9.45245C16.9775 10.6068 17.306 11.8997 17.3059 13.2134Z" fill="white"/>
<path d="M21.4338 16.0824V19.5889L17.9348 17.8901C17.1817 18.064 16.4067 18.1234 15.6359 18.0663C19.4987 13.1235 16.2847 5.78791 9.98047 5.36038C10.716 4.41751 11.6572 3.65508 12.7322 3.13123C13.8072 2.60738 14.9876 2.33596 16.1834 2.33765C23.4365 2.33765 26.7742 11.3121 21.4338 16.0824Z" fill="white"/>
<path d="M16.1817 1.58747C14.9385 1.58269 13.7092 1.84858 12.5791 2.36667C11.449 2.88477 10.4452 3.64265 9.63748 4.58769C1.8594 4.38142 -2.19465 13.9634 3.43077 19.4088V22.589C3.43082 22.716 3.4631 22.8409 3.52459 22.9519C3.58607 23.063 3.67474 23.1567 3.7823 23.2241C3.88986 23.2916 4.01278 23.3306 4.13955 23.3376C4.26631 23.3446 4.39278 23.3193 4.5071 23.2641L7.77359 21.6777C9.26908 21.9748 10.8167 21.8685 12.2575 21.3695C13.6983 20.8706 14.9802 19.9971 15.9717 18.8388C16.6005 18.8579 17.2295 18.8063 17.8468 18.685C21.3646 20.3914 21.1921 20.3389 21.4321 20.3389C21.631 20.3389 21.8218 20.2598 21.9625 20.1192C22.1031 19.9785 22.1822 19.7877 22.1822 19.5888V16.4086C27.7363 11.0382 23.8885 1.58747 16.1817 1.58747ZM9.43122 20.3389C6.74227 20.3389 8.91368 19.4576 4.93088 21.3927C4.93088 19.0488 5.02089 18.8275 4.67961 18.5237C3.43838 17.4132 2.62536 15.903 2.38179 14.2554C2.13821 12.6078 2.47947 10.927 3.34629 9.50482C4.2131 8.08267 5.5507 7.00909 7.12673 6.47057C8.70276 5.93204 10.4176 5.96261 11.9735 6.55694C13.5293 7.15128 14.8278 8.27184 15.6434 9.72398C16.459 11.1761 16.7401 12.8681 16.438 14.5059C16.1359 16.1438 15.2696 17.6241 13.9896 18.6896C12.7096 19.7552 11.0967 20.3387 9.43122 20.3389ZM20.9333 15.5235C20.5958 15.8235 20.6821 15.9473 20.6821 18.3925C17.3893 16.7911 18.4319 17.1174 17.0368 17.2674C17.6492 16.1086 17.9902 14.8258 18.034 13.5158C18.0779 12.2059 17.8234 10.9032 17.2899 9.70601C16.7563 8.50887 15.9577 7.44865 14.9542 6.60549C13.9508 5.76232 12.7688 5.15826 11.4976 4.83896C16.0242 0.874913 23.3073 4.0514 23.3073 10.2131C23.3073 11.2154 23.0959 12.2065 22.6868 13.1216C22.2778 14.0366 21.6803 14.8551 20.9333 15.5235Z" fill="#444444"/>
<path d="M9.42974 18.8387C9.84399 18.8387 10.1798 18.5029 10.1798 18.0887C10.1798 17.6744 9.84399 17.3386 9.42974 17.3386C9.0155 17.3386 8.67969 17.6744 8.67969 18.0887C8.67969 18.5029 9.0155 18.8387 9.42974 18.8387Z" fill="#444444"/>
<path d="M9.11474 7.58793C8.53028 7.57758 7.95315 7.71919 7.43986 7.9989C6.92657 8.27861 6.49473 8.68684 6.18662 9.1836C5.8785 9.68036 5.70469 10.2486 5.68219 10.8327C5.65969 11.4169 5.78928 11.9968 6.05826 12.5158C6.09909 12.6104 6.15897 12.6956 6.23417 12.766C6.30937 12.8365 6.39829 12.8907 6.49536 12.9253C6.59244 12.9598 6.69559 12.974 6.79839 12.9669C6.9012 12.9599 7.00144 12.9317 7.09287 12.8842C7.1843 12.8367 7.26496 12.7708 7.32982 12.6907C7.39467 12.6106 7.44233 12.5181 7.46982 12.4188C7.49731 12.3194 7.50404 12.2155 7.4896 12.1135C7.47515 12.0115 7.43984 11.9135 7.38586 11.8257C7.23606 11.5368 7.16405 11.2138 7.17692 10.8886C7.18979 10.5634 7.28709 10.2471 7.45926 9.97086C7.63142 9.69464 7.87252 9.46799 8.15884 9.3132C8.44516 9.15841 8.76684 9.08082 9.09224 9.08804C10.8661 9.11805 11.6612 11.5032 10.0861 12.5308C9.66309 12.7968 9.31325 13.1643 9.06831 13.5998C8.82337 14.0353 8.69108 14.5251 8.68346 15.0247C8.68346 15.2237 8.76248 15.4144 8.90315 15.5551C9.04381 15.6958 9.23459 15.7748 9.43352 15.7748C9.63244 15.7748 9.82322 15.6958 9.96389 15.5551C10.1045 15.4144 10.1836 15.2237 10.1836 15.0247C10.1913 14.7744 10.2616 14.53 10.3881 14.3139C10.5145 14.0977 10.693 13.9166 10.9074 13.7871C13.7201 11.9495 12.3587 7.64419 9.11474 7.58793Z" fill="#444444"/>
</svg>
