<svg width="21" height="21" viewBox="0 0 21 21" fill="none" xmlns="http://www.w3.org/2000/svg">
<path d="M10.6602 20.2539C5.13716 20.2539 0.660156 15.7769 0.660156 10.2539C0.660156 4.73091 5.13716 0.253906 10.6602 0.253906C16.1832 0.253906 20.6602 4.73091 20.6602 10.2539C20.6602 15.7769 16.1832 20.2539 10.6602 20.2539ZM10.6602 18.2539C12.7819 18.2539 14.8167 17.4111 16.317 15.9108C17.8173 14.4105 18.6602 12.3756 18.6602 10.2539C18.6602 8.13217 17.8173 6.09734 16.317 4.59705C14.8167 3.09676 12.7819 2.25391 10.6602 2.25391C8.53842 2.25391 6.50359 3.09676 5.0033 4.59705C3.50301 6.09734 2.66016 8.13217 2.66016 10.2539C2.66016 12.3756 3.50301 14.4105 5.0033 15.9108C6.50359 17.4111 8.53842 18.2539 10.6602 18.2539ZM10.6602 15.2539C9.33407 15.2539 8.0623 14.7271 7.12462 13.7894C6.18694 12.8518 5.66016 11.58 5.66016 10.2539C5.66016 8.92782 6.18694 7.65605 7.12462 6.71837C8.0623 5.78069 9.33407 5.25391 10.6602 5.25391C11.9862 5.25391 13.258 5.78069 14.1957 6.71837C15.1334 7.65605 15.6602 8.92782 15.6602 10.2539C15.6602 11.58 15.1334 12.8518 14.1957 13.7894C13.258 14.7271 11.9862 15.2539 10.6602 15.2539Z" fill="black"/>
</svg>
