<svg width="49" height="49" viewBox="0 0 49 49" fill="none" xmlns="http://www.w3.org/2000/svg">
<circle cx="24.6367" cy="24.2031" r="24" fill="#F8F8F8"/>
<g clip-path="url(#clip0_884_15889)">
<path d="M24.6367 14.3641C27.843 14.3641 28.2227 14.3781 29.4836 14.4344C30.6555 14.4859 31.2883 14.6828 31.7102 14.8469C32.268 15.0625 32.6711 15.325 33.0883 15.7422C33.5102 16.1641 33.768 16.5625 33.9836 17.1203C34.1477 17.5422 34.3445 18.1797 34.3961 19.3469C34.4523 20.6125 34.4664 20.9922 34.4664 24.1938C34.4664 27.4 34.4523 27.7797 34.3961 29.0406C34.3445 30.2125 34.1477 30.8453 33.9836 31.2672C33.768 31.825 33.5055 32.2281 33.0883 32.6453C32.6664 33.0672 32.268 33.325 31.7102 33.5406C31.2883 33.7047 30.6508 33.9016 29.4836 33.9531C28.218 34.0094 27.8383 34.0234 24.6367 34.0234C21.4305 34.0234 21.0508 34.0094 19.7898 33.9531C18.618 33.9016 17.9852 33.7047 17.5633 33.5406C17.0055 33.325 16.6023 33.0625 16.1852 32.6453C15.7633 32.2234 15.5055 31.825 15.2898 31.2672C15.1258 30.8453 14.9289 30.2078 14.8773 29.0406C14.8211 27.775 14.807 27.3953 14.807 24.1938C14.807 20.9875 14.8211 20.6078 14.8773 19.3469C14.9289 18.175 15.1258 17.5422 15.2898 17.1203C15.5055 16.5625 15.768 16.1594 16.1852 15.7422C16.607 15.3203 17.0055 15.0625 17.5633 14.8469C17.9852 14.6828 18.6227 14.4859 19.7898 14.4344C21.0508 14.3781 21.4305 14.3641 24.6367 14.3641ZM24.6367 12.2031C21.3789 12.2031 20.9711 12.2172 19.6914 12.2734C18.4164 12.3297 17.5398 12.5359 16.7805 12.8312C15.9883 13.1406 15.318 13.5484 14.6523 14.2188C13.982 14.8844 13.5742 15.5547 13.2648 16.3422C12.9695 17.1063 12.7633 17.9781 12.707 19.2531C12.6508 20.5375 12.6367 20.9453 12.6367 24.2031C12.6367 27.4609 12.6508 27.8687 12.707 29.1484C12.7633 30.4234 12.9695 31.3 13.2648 32.0594C13.5742 32.8516 13.982 33.5219 14.6523 34.1875C15.318 34.8531 15.9883 35.2656 16.7758 35.5703C17.5398 35.8656 18.4117 36.0719 19.6867 36.1281C20.9664 36.1844 21.3742 36.1984 24.632 36.1984C27.8898 36.1984 28.2977 36.1844 29.5773 36.1281C30.8523 36.0719 31.7289 35.8656 32.4883 35.5703C33.2758 35.2656 33.9461 34.8531 34.6117 34.1875C35.2773 33.5219 35.6898 32.8516 35.9945 32.0641C36.2898 31.3 36.4961 30.4281 36.5523 29.1531C36.6086 27.8734 36.6227 27.4656 36.6227 24.2078C36.6227 20.95 36.6086 20.5422 36.5523 19.2625C36.4961 17.9875 36.2898 17.1109 35.9945 16.3516C35.6992 15.5547 35.2914 14.8844 34.6211 14.2188C33.9555 13.5531 33.2852 13.1406 32.4977 12.8359C31.7336 12.5406 30.8617 12.3344 29.5867 12.2781C28.3023 12.2172 27.8945 12.2031 24.6367 12.2031Z" fill="#ACACAC"/>
<path d="M24.6367 18.0391C21.2336 18.0391 18.4727 20.8 18.4727 24.2031C18.4727 27.6062 21.2336 30.3672 24.6367 30.3672C28.0398 30.3672 30.8008 27.6062 30.8008 24.2031C30.8008 20.8 28.0398 18.0391 24.6367 18.0391ZM24.6367 28.2016C22.4289 28.2016 20.6383 26.4109 20.6383 24.2031C20.6383 21.9953 22.4289 20.2047 24.6367 20.2047C26.8445 20.2047 28.6352 21.9953 28.6352 24.2031C28.6352 26.4109 26.8445 28.2016 24.6367 28.2016Z" fill="#ACACAC"/>
<path d="M32.4836 17.7955C32.4836 18.5924 31.8367 19.2346 31.0445 19.2346C30.2477 19.2346 29.6055 18.5877 29.6055 17.7955C29.6055 16.9986 30.2523 16.3564 31.0445 16.3564C31.8367 16.3564 32.4836 17.0033 32.4836 17.7955Z" fill="#ACACAC"/>
</g>
<defs>
<clipPath id="clip0_884_15889">
<rect width="24" height="24" fill="white" transform="translate(12.6367 12.2031)"/>
</clipPath>
</defs>
</svg>
