<svg width="29" height="29" viewBox="0 0 29 29" fill="none" xmlns="http://www.w3.org/2000/svg">
<circle cx="14.4688" cy="14.1094" r="14" fill="#1D1F28"/>
<path d="M10.1175 18.2812C9.92355 18.4777 9.92355 18.7964 10.1175 18.9929C10.3115 19.1895 10.626 19.1895 10.82 18.9929L10.1175 18.2812ZM18.82 10.8871C19.0139 10.6906 19.0139 10.3719 18.82 10.1754C18.626 9.97884 18.3115 9.97884 18.1175 10.1754L18.82 10.8871ZM18.1175 10.1754L10.1175 18.2812L10.82 18.9929L18.82 10.8871L18.1175 10.1754Z" fill="white"/>
<path d="M10.82 10.1789C10.626 9.9824 10.3115 9.9824 10.1175 10.1789C9.92355 10.3755 9.92355 10.6941 10.1175 10.8907L10.82 10.1789ZM18.1175 18.9965C18.3115 19.193 18.626 19.193 18.82 18.9965C19.0139 18.8 19.0139 18.4813 18.82 18.2848L18.1175 18.9965ZM18.82 18.2848L10.82 10.1789L10.1175 10.8907L18.1175 18.9965L18.82 18.2848Z" fill="white"/>
</svg>
