<svg width="35" height="35" viewBox="0 0 35 35" fill="none" xmlns="http://www.w3.org/2000/svg">
<path d="M9.57068 14.2388C9.30047 14.2388 9.06907 14.3373 8.87797 14.5329C8.68539 14.7284 8.58984 14.9658 8.58984 15.2435C8.58984 15.5212 8.68539 15.7585 8.87797 15.9541C9.07056 16.1497 9.30047 16.2482 9.57068 16.2482C9.8409 16.2482 10.0798 16.1497 10.2753 15.9541C10.4709 15.7585 10.5679 15.5212 10.5679 15.2435C10.5679 14.9658 10.4709 14.7284 10.2753 14.5329C10.0798 14.3373 9.84538 14.2388 9.57068 14.2388Z" fill="#ACACAC"/>
<path d="M17.9457 14.2231C17.6755 14.2231 17.4441 14.3202 17.253 14.5158C17.0604 14.7113 16.9648 14.9487 16.9648 15.2264C16.9648 15.5041 17.0619 15.7414 17.253 15.937C17.4441 16.1326 17.6755 16.2296 17.9457 16.2296C18.2159 16.2296 18.4548 16.1311 18.6503 15.937C18.8459 15.7414 18.9429 15.5041 18.9429 15.2264C18.9429 14.9487 18.8459 14.7113 18.6503 14.5158C18.4548 14.3202 18.2204 14.2231 17.9457 14.2231Z" fill="#ACACAC"/>
<path d="M23.5331 14.2388C23.2629 14.2388 23.0315 14.3373 22.8389 14.5329C22.6478 14.7284 22.5508 14.9658 22.5508 15.2435C22.5508 15.5212 22.6478 15.7585 22.8389 15.9541C23.0315 16.1497 23.2629 16.2482 23.5331 16.2482C23.8033 16.2482 24.0422 16.1497 24.2378 15.9541C24.4333 15.7585 24.5304 15.5212 24.5304 15.2435C24.5304 14.9658 24.4318 14.7284 24.2378 14.5329C24.0422 14.3373 23.8078 14.2388 23.5331 14.2388Z" fill="#ACACAC"/>
<path d="M26.0232 6.86377H7.08868C5.63757 6.86377 4.44922 8.05212 4.44922 9.50323V20.2118C4.44922 21.6629 5.63757 22.8513 7.08868 22.8513H14.5233C14.5233 22.8513 15.9595 26.7702 16.482 26.7702C17.0046 26.7702 18.5587 22.8513 18.5587 22.8513H26.0232C27.4758 22.8513 28.6626 21.6629 28.6626 20.2118V9.50323C28.6626 8.05212 27.4743 6.86377 26.0232 6.86377ZM11.4868 16.7498C11.1121 17.1723 10.5373 17.3499 9.91027 17.3499C9.34446 17.3499 8.93092 17.1797 8.62487 16.9469H8.60696V17.2484H7.18571V11.0484H8.60696V13.4176H8.62487C9.01004 13.0892 9.52062 12.9772 10.1223 12.9578C10.6373 12.9399 11.1733 13.2624 11.4942 13.6341C11.8137 14.0043 12.0481 14.5851 12.0481 15.227C12.0481 15.9257 11.863 16.3258 11.4868 16.7483V16.7498ZM14.5383 17.2947H13.0887V13.4579C13.0887 12.5726 12.3885 12.4562 12.3885 12.4562V10.9215C12.3885 10.9215 14.4203 11.0454 14.5383 13.5072V17.2962V17.2947ZM20.2262 16.1183C20.1038 16.396 19.9277 16.6438 19.6933 16.8618C19.4634 17.0767 19.1991 17.2424 18.899 17.3574C18.6005 17.4724 18.284 17.5306 17.9511 17.5306C17.6181 17.5306 17.3136 17.4724 17.018 17.3574C16.7209 17.2424 16.4567 17.0767 16.2238 16.8618C15.9834 16.6348 15.8028 16.3855 15.6789 16.1093C15.5564 15.8346 15.4937 15.5435 15.4937 15.2345C15.4937 14.9255 15.5549 14.6343 15.6789 14.3596C15.8028 14.085 15.9834 13.8341 16.2238 13.6072C16.4581 13.3922 16.7224 13.2265 17.018 13.1116C17.3136 12.9966 17.6241 12.9399 17.9511 12.9399C18.278 12.9399 18.599 12.9966 18.899 13.1116C19.1976 13.2265 19.4619 13.3922 19.6933 13.6072C19.9277 13.8252 20.1038 14.073 20.2262 14.3507C20.3472 14.6284 20.4084 14.9225 20.4084 15.2345C20.4084 15.5465 20.3472 15.8391 20.2262 16.1168V16.1183ZM25.9276 16.7334C25.9276 17.8217 25.7216 18.486 25.2349 18.9473C24.6572 19.4952 23.8346 19.5341 23.1419 19.4355V18.3099C23.7196 18.3681 24.5154 17.9874 24.5139 17.238V16.9498H24.4959C24.172 17.3977 23.6987 17.5604 23.0687 17.5604C22.485 17.5604 21.9789 17.3455 21.637 16.9439C21.2937 16.5423 21.1235 16.0048 21.1235 15.33C21.1235 14.5731 21.3146 13.973 21.6968 13.5281C22.0774 13.0832 22.6224 12.8757 23.2449 12.8757C23.8032 12.8757 24.1541 13.0101 24.4974 13.3236H24.5154V12.9847H25.9276V16.7349V16.7334Z" fill="#ACACAC"/>
</svg>
