<svg width="49" height="49" viewBox="0 0 49 49" fill="none" xmlns="http://www.w3.org/2000/svg">
<circle cx="24.6367" cy="24.2031" r="24" fill="#F8F8F8"/>
<g clip-path="url(#clip0_884_15899)">
<path d="M36.6367 24.2031C36.6367 17.5757 31.2641 12.2031 24.6367 12.2031C18.0093 12.2031 12.6367 17.5757 12.6367 24.2031C12.6367 30.1926 17.0249 35.1571 22.7617 36.0573V27.6719H19.7148V24.2031H22.7617V21.5594C22.7617 18.5519 24.5533 16.8906 27.2943 16.8906C28.6068 16.8906 29.9805 17.125 29.9805 17.125V20.0781H28.4673C26.9767 20.0781 26.5117 21.0032 26.5117 21.9531V24.2031H29.8398L29.3078 27.6719H26.5117V36.0573C32.2485 35.1571 36.6367 30.1926 36.6367 24.2031Z" fill="#ACACAC"/>
</g>
<defs>
<clipPath id="clip0_884_15899">
<rect width="24" height="24" fill="white" transform="translate(12.6367 12.2031)"/>
</clipPath>
</defs>
</svg>
