<svg width="83" height="82" viewBox="0 0 83 82" fill="none" xmlns="http://www.w3.org/2000/svg">
<path fill-rule="evenodd" clip-rule="evenodd" d="M30.7885 11.4471C31.0505 8.82717 33.2551 6.83203 35.8881 6.83203H47.112C49.7449 6.83203 51.9495 8.82717 52.2115 11.4471L52.5729 15.0609C52.6338 15.6697 53.0175 16.1956 53.5663 16.4661C54.6563 17.0032 55.7053 17.6108 56.7073 18.283C57.2161 18.6242 57.8643 18.6941 58.4227 18.4421L61.7366 16.9465C64.1365 15.8634 66.9667 16.7751 68.2832 19.0553L73.8951 28.7755C75.2116 31.0557 74.586 33.9625 72.4481 35.4994L69.4942 37.6228C68.9978 37.9797 68.7341 38.5743 68.7741 39.1844C68.8134 39.7841 68.8333 40.3891 68.8333 40.9987C68.8333 41.6084 68.8134 42.2134 68.7741 42.8131C68.7341 43.4231 68.9978 44.0178 69.4942 44.3747L72.4481 46.4981C74.586 48.0349 75.2116 50.9418 73.8951 53.222L68.2831 62.9421C66.9667 65.2224 64.1365 66.134 61.7366 65.051L58.4226 63.5554C57.8642 63.3034 57.216 63.3732 56.7072 63.7145C55.7052 64.3866 54.6562 64.9942 53.5663 65.5313C53.0175 65.8018 52.6338 66.3277 52.5729 66.9365L52.2115 70.5503C51.9495 73.1702 49.7449 75.1654 47.112 75.1654H35.8881C33.2551 75.1654 31.0505 73.1702 30.7885 70.5503L30.4271 66.9365C30.3663 66.3277 29.9825 65.8018 29.4337 65.5313C28.3438 64.9942 27.2948 64.3866 26.2927 63.7144C25.7839 63.3732 25.1357 63.3033 24.5773 63.5553L21.2632 65.051C18.8633 66.134 16.0332 65.2224 14.7167 62.9421L9.10474 53.222C7.78826 50.9418 8.41379 48.035 10.5517 46.4981L13.5058 44.3745C14.0022 44.0177 14.2659 43.423 14.2259 42.813C14.1866 42.2133 14.1667 41.6083 14.1667 40.9987C14.1667 40.3891 14.1866 39.7841 14.2259 39.1845C14.2659 38.5744 14.0022 37.9798 13.5058 37.6229L10.5517 35.4994C8.41379 33.9625 7.78825 31.0557 9.10474 28.7755L14.7167 19.0553C16.0332 16.7751 18.8633 15.8634 21.2632 16.9465L24.5773 18.4421C25.1357 18.6941 25.7839 18.6243 26.2926 18.283C27.2947 17.6108 28.3437 17.0032 29.4337 16.466C29.9825 16.1956 30.3663 15.6697 30.4271 15.0609L30.7885 11.4471ZM41.5 54.6654C49.0479 54.6654 55.1667 48.5466 55.1667 40.9987C55.1667 33.4508 49.0479 27.332 41.5 27.332C33.9521 27.332 27.8334 33.4508 27.8334 40.9987C27.8334 48.5466 33.9521 54.6654 41.5 54.6654Z" fill="url(#paint0_linear_997_9962)"/>
<defs>
<linearGradient id="paint0_linear_997_9962" x1="8.41766" y1="6.83203" x2="86.5454" y2="25.744" gradientUnits="userSpaceOnUse">
<stop stop-color="#DF0B17"/>
<stop offset="0.711919" stop-color="#FF755F"/>
</linearGradient>
</defs>
</svg>
