<svg width="25" height="25" viewBox="0 0 25 25" fill="none" xmlns="http://www.w3.org/2000/svg">
<path fill-rule="evenodd" clip-rule="evenodd" d="M22.584 20.2386C22.487 19.6806 22.002 19.2716 21.434 19.2716H20.852V10.0366L20.848 9.78557C20.716 5.28857 17.029 1.68457 12.5 1.68457C7.888 1.68457 4.147 5.42357 4.147 10.0376V19.2726H3.565C2.998 19.2726 2.513 19.6806 2.415 20.2396L2 22.6306H23L22.584 20.2386ZM11.6 7.37757C11.6 6.88157 12.003 6.47757 12.5 6.47757C12.998 6.47757 13.4 6.88157 13.4 7.37757V11.0936C13.4 11.5916 12.998 11.9956 12.5 11.9956C12.003 11.9956 11.6 11.5916 11.6 11.0936V7.37757ZM12.501 13.4966C13.153 13.4966 13.684 14.0256 13.684 14.6796C13.684 15.3326 13.154 15.8626 12.501 15.8626C11.846 15.8626 11.316 15.3326 11.316 14.6796C11.316 14.0266 11.846 13.4966 12.501 13.4966Z" fill="#DF0B17"/>
</svg>
