<svg width="24" height="25" viewBox="0 0 24 25" fill="none" xmlns="http://www.w3.org/2000/svg">
<path d="M10.3607 5.36615C11.0313 3.95347 12.9688 3.95347 13.6393 5.36615L14.7983 7.80762C15.0645 8.3686 15.5793 8.75742 16.1747 8.84738L18.7661 9.23889C20.2656 9.46542 20.8643 11.3813 19.7793 12.4809L17.9041 14.3813C17.4733 14.818 17.2767 15.4471 17.3784 16.0637L17.821 18.7471C18.0772 20.2998 16.5097 21.4838 15.1686 20.7508L12.8507 19.4838C12.3181 19.1927 11.6819 19.1927 11.1493 19.4838L8.83149 20.7508C7.49035 21.4838 5.92287 20.2998 6.17901 18.7471L6.62168 16.0637C6.72339 15.4471 6.52678 14.818 6.09592 14.3813L4.22075 12.4809C3.13574 11.3813 3.73446 9.46542 5.2339 9.23889L7.82533 8.84738C8.42076 8.75742 8.93549 8.3686 9.20178 7.80762L10.3607 5.36615Z" fill="white"/>
</svg>
