<svg width="160" height="160" viewBox="0 0 160 160" fill="none" xmlns="http://www.w3.org/2000/svg">
<path opacity="0.4" d="M160 80C160 104.107 149.337 125.723 132.471 140.391C118.424 152.605 100.076 160 80 160C59.9242 160 41.5755 152.605 27.5293 140.391C10.6628 125.723 0 104.107 0 80C0 35.8172 35.8172 0 80 0C124.183 0 160 35.8172 160 80Z" fill="#28303F"/>
<path d="M132.471 140.391C124.523 119.134 104.029 104 80 104C55.971 104 35.4768 119.134 27.5293 140.391C41.5755 152.605 59.9241 160 80 160C100.076 160 118.424 152.605 132.471 140.391Z" fill="#F2F2F2"/>
<circle r="24" transform="matrix(1 0 0 -1 80 64)" fill="#F2F2F2"/>
</svg>
