<svg width="64" height="17" viewBox="0 0 64 17" fill="none" xmlns="http://www.w3.org/2000/svg">
<path d="M48.9387 4.40234H45.5387C45.3387 4.40234 45.1387 4.60234 45.0387 4.80234L43.6387 13.6023C43.6387 13.8023 43.7387 13.9023 43.9387 13.9023H45.7387C45.9387 13.9023 46.0387 13.8023 46.0387 13.6023L46.4387 11.1023C46.4387 10.9023 46.6387 10.7023 46.9387 10.7023H48.0387C50.3387 10.7023 51.6387 9.60234 51.9387 7.40234C52.1387 6.50234 51.9387 5.70234 51.5387 5.20234C50.9387 4.70234 50.0387 4.40234 48.9387 4.40234ZM49.3387 7.70234C49.1387 8.90234 48.2387 8.90234 47.3387 8.90234H46.7387L47.1387 6.60234C47.1387 6.50234 47.2387 6.40234 47.4387 6.40234H47.6387C48.2387 6.40234 48.8387 6.40234 49.1387 6.80234C49.3387 6.90234 49.3387 7.20234 49.3387 7.70234Z" fill="#139AD6"/>
<path d="M24.4387 4.40234H21.0387C20.8387 4.40234 20.6387 4.60234 20.5387 4.80234L19.1387 13.6023C19.1387 13.8023 19.2387 13.9023 19.4387 13.9023H21.0387C21.2387 13.9023 21.4387 13.7023 21.5387 13.5023L21.9387 11.1023C21.9387 10.9023 22.1387 10.7023 22.4387 10.7023H23.5387C25.8387 10.7023 27.1387 9.60234 27.4387 7.40234C27.6387 6.50234 27.4387 5.70234 27.0387 5.20234C26.4387 4.70234 25.6387 4.40234 24.4387 4.40234ZM24.8387 7.70234C24.6387 8.90234 23.7387 8.90234 22.8387 8.90234H22.3387L22.7387 6.60234C22.7387 6.50234 22.8387 6.40234 23.0387 6.40234H23.2387C23.8387 6.40234 24.4387 6.40234 24.7387 6.80234C24.8387 6.90234 24.9387 7.20234 24.8387 7.70234Z" fill="#263B80"/>
<path d="M34.7382 7.60234H33.1382C33.0382 7.60234 32.8382 7.70234 32.8382 7.80234L32.7382 8.30234L32.6382 8.10234C32.2382 7.60234 31.5382 7.40234 30.7382 7.40234C28.9382 7.40234 27.3382 8.80234 27.0382 10.7023C26.8382 11.7023 27.1382 12.6023 27.6382 13.2023C28.1382 13.8023 28.8382 14.0023 29.7382 14.0023C31.2382 14.0023 32.0382 13.1023 32.0382 13.1023L31.9382 13.6023C31.9382 13.8023 32.0382 13.9023 32.2382 13.9023H33.7382C33.9382 13.9023 34.1382 13.7023 34.2382 13.5023L35.1382 7.90234C35.0382 7.80234 34.8382 7.60234 34.7382 7.60234ZM32.4382 10.8023C32.2382 11.7023 31.5382 12.4023 30.5382 12.4023C30.0382 12.4023 29.6382 12.2023 29.4382 12.0023C29.2382 11.7023 29.1382 11.3023 29.1382 10.8023C29.2382 9.90234 30.0382 9.20234 30.9382 9.20234C31.4382 9.20234 31.7382 9.40234 32.0382 9.60234C32.3382 9.90234 32.4382 10.4023 32.4382 10.8023Z" fill="#263B80"/>
<path d="M59.1386 7.60234H57.5386C57.4386 7.60234 57.2386 7.70234 57.2386 7.80234L57.1386 8.30234L57.0386 8.10234C56.6386 7.60234 55.9386 7.40234 55.1386 7.40234C53.3386 7.40234 51.7386 8.80234 51.4386 10.7023C51.2386 11.7023 51.5386 12.6023 52.0386 13.2023C52.5386 13.8023 53.2386 14.0023 54.1386 14.0023C55.6386 14.0023 56.4386 13.1023 56.4386 13.1023L56.3386 13.6023C56.3386 13.8023 56.4386 13.9023 56.6386 13.9023H58.1386C58.3386 13.9023 58.5386 13.7023 58.6386 13.5023L59.5386 7.90234C59.4386 7.80234 59.3386 7.60234 59.1386 7.60234ZM56.8386 10.8023C56.6386 11.7023 55.9386 12.4023 54.9386 12.4023C54.4386 12.4023 54.0386 12.2023 53.8386 12.0023C53.6386 11.7023 53.5386 11.3023 53.5386 10.8023C53.6386 9.90234 54.4386 9.20234 55.3386 9.20234C55.8386 9.20234 56.1386 9.40234 56.4386 9.60234C56.8386 9.90234 56.9386 10.4023 56.8386 10.8023Z" fill="#139AD6"/>
<path d="M43.4383 7.60156H41.7383C41.5383 7.60156 41.4383 7.70156 41.3383 7.80156L39.1383 11.2016L38.1383 8.00156C38.0383 7.80156 37.9383 7.70156 37.6383 7.70156H36.0383C35.8383 7.70156 35.7383 7.90156 35.7383 8.10156L37.5383 13.4016L35.8383 15.8016C35.7383 16.0016 35.8383 16.3016 36.0383 16.3016H37.6383C37.8383 16.3016 37.9383 16.2016 38.0383 16.1016L43.5383 8.20156C43.8383 7.90156 43.6383 7.60156 43.4383 7.60156Z" fill="#263B80"/>
<path d="M61.0387 4.70407L59.6387 13.7041C59.6387 13.9041 59.7387 14.0041 59.9387 14.0041H61.3387C61.5387 14.0041 61.7387 13.8041 61.8387 13.6041L63.2387 4.80408C63.2387 4.60408 63.1387 4.50407 62.9387 4.50407H61.3387C61.2387 4.40407 61.1387 4.50407 61.0387 4.70407Z" fill="#139AD6"/>
<path d="M11.7383 1.40313C11.0383 0.603126 9.73828 0.203125 7.93828 0.203125H2.93828C2.63828 0.203125 2.33828 0.503125 2.23828 0.803125L0.238281 13.9031C0.238281 14.2031 0.438281 14.4031 0.638281 14.4031H3.73828L4.53828 9.50312V9.70312C4.63828 9.40312 4.93828 9.10313 5.23828 9.10313H6.73828C9.63828 9.10313 11.8383 7.90312 12.5383 4.60312C12.5383 4.50312 12.5383 4.40313 12.5383 4.30313C12.4383 4.30313 12.4383 4.30313 12.5383 4.30313C12.6383 3.00313 12.4383 2.20313 11.7383 1.40313Z" fill="#263B80"/>
<path d="M12.4385 4.30469C12.4385 4.40469 12.4385 4.50469 12.4385 4.60469C11.7385 8.00469 9.53848 9.10469 6.63848 9.10469H5.13848C4.83848 9.10469 4.53848 9.40469 4.43848 9.70469L3.43848 15.8047C3.43848 16.0047 3.53848 16.2047 3.83848 16.2047H6.43848C6.73848 16.2047 7.03848 16.0047 7.03848 15.7047V15.6047L7.53848 12.5047V12.3047C7.53848 12.0047 7.83848 11.8047 8.13848 11.8047H8.53848C11.0385 11.8047 13.0385 10.8047 13.5385 7.80469C13.7385 6.60469 13.6385 5.50469 13.0385 4.80469C12.9385 4.60469 12.7385 4.40469 12.4385 4.30469Z" fill="#139AD6"/>
<path d="M11.7381 4.00312C11.6381 4.00312 11.5381 3.90313 11.4381 3.90313C11.3381 3.90313 11.2381 3.90313 11.1381 3.80313C10.7381 3.70313 10.3381 3.70312 9.83809 3.70312H5.93809C5.83809 3.70312 5.73809 3.70313 5.63809 3.80313C5.43809 3.90313 5.33809 4.10313 5.33809 4.30313L4.53809 9.50312V9.70312C4.63809 9.40312 4.93809 9.10313 5.23809 9.10313H6.73809C9.63809 9.10313 11.8381 7.90312 12.5381 4.60312C12.5381 4.50312 12.5381 4.40313 12.6381 4.30313C12.4381 4.20313 12.3381 4.10312 12.1381 4.10312C11.8381 4.00312 11.8381 4.00312 11.7381 4.00312Z" fill="#232C65"/>
</svg>
