<svg width="25" height="25" viewBox="0 0 25 25" fill="none" xmlns="http://www.w3.org/2000/svg">
<path fill-rule="evenodd" clip-rule="evenodd" d="M17.6447 2.57007C16.7784 2.55754 15.8836 2.70265 14.9846 3.15521C14.3042 3.49772 13.647 4.00346 13.009 4.70883C12.3671 4.00329 11.7045 3.50163 11.022 3.16202C10.1225 2.71435 9.23216 2.57 8.38589 2.57C4.84687 2.57 1.98438 5.51804 1.98438 9.48509C1.98438 13.4178 4.63798 16.691 7.18661 18.9128C8.47776 20.0383 9.78308 20.9305 10.8009 21.5428C11.3099 21.849 11.7526 22.0886 12.0914 22.2543C12.2599 22.3366 12.4101 22.4043 12.5343 22.4534C12.5958 22.4777 12.6599 22.501 12.7221 22.5194C12.7634 22.5316 12.8776 22.5653 13.0099 22.5653C13.1422 22.5653 13.2563 22.5316 13.2977 22.5194C13.3598 22.501 13.424 22.4777 13.4854 22.4534C13.6096 22.4043 13.7599 22.3366 13.9283 22.2543C14.2671 22.0886 14.7098 21.849 15.2188 21.5428C16.2366 20.9305 17.542 20.0383 18.8331 18.9128C21.3817 16.691 24.0353 13.4178 24.0353 9.48508C24.0353 5.50787 21.1657 2.62102 17.6447 2.57007Z" fill="#DF0B17"/>
<g filter="url(#filter0_d_827_9769)">
<path fill-rule="evenodd" clip-rule="evenodd" d="M12.1772 8.84719C12.1772 8.46559 12.4865 8.15625 12.8681 8.15625C15.2849 8.15625 17.2441 10.1154 17.2441 12.5322C17.2441 12.9138 16.9347 13.2231 16.5532 13.2231C16.1716 13.2231 15.8622 12.9138 15.8622 12.5322C15.8622 11.1164 14.8796 9.93017 13.5591 9.61825V14.3747C13.5591 15.7739 12.4248 16.9082 11.0256 16.9082C9.62645 16.9082 8.49219 15.7739 8.49219 14.3747C8.49219 12.9755 9.62645 11.8413 11.0256 11.8413C11.4403 11.8413 11.8317 11.9409 12.1772 12.1175V8.84719Z" fill="white"/>
</g>
<defs>
<filter id="filter0_d_827_9769" x="4.49219" y="8.15625" width="16.752" height="16.752" filterUnits="userSpaceOnUse" color-interpolation-filters="sRGB">
<feFlood flood-opacity="0" result="BackgroundImageFix"/>
<feColorMatrix in="SourceAlpha" type="matrix" values="0 0 0 0 0 0 0 0 0 0 0 0 0 0 0 0 0 0 127 0" result="hardAlpha"/>
<feOffset dy="4"/>
<feGaussianBlur stdDeviation="2"/>
<feComposite in2="hardAlpha" operator="out"/>
<feColorMatrix type="matrix" values="0 0 0 0 0 0 0 0 0 0 0 0 0 0 0 0 0 0 0.25 0"/>
<feBlend mode="normal" in2="BackgroundImageFix" result="effect1_dropShadow_827_9769"/>
<feBlend mode="normal" in="SourceGraphic" in2="effect1_dropShadow_827_9769" result="shape"/>
</filter>
</defs>
</svg>
