<svg width="25" height="25" viewBox="0 0 25 25" fill="none" xmlns="http://www.w3.org/2000/svg">
<path d="M23.0058 17.2147L22.8936 17.4555L22.958 17.7132L24.0135 21.9384C24.0135 21.9384 24.0135 21.9384 24.0135 21.9384C24.0731 22.1773 24.0699 22.4276 24.0042 22.6649C23.9384 22.9022 23.8123 23.1184 23.6382 23.2925C23.4641 23.4666 23.2479 23.5927 23.0106 23.6585C22.7733 23.7242 22.523 23.7274 22.2841 23.6678C22.2841 23.6678 22.2841 23.6678 22.2841 23.6678L18.0589 22.6123L17.8012 22.5479L17.5604 22.6601C15.1632 23.7771 12.4491 24.014 9.89474 23.329C7.34034 22.644 5.10892 21.081 3.5923 18.9144C2.07568 16.7478 1.37082 14.1162 1.60149 11.4817C1.83216 8.84709 2.98361 6.378 4.85366 4.50795C6.7237 2.63791 9.19279 1.48645 11.8274 1.25578C14.4619 1.02511 17.0935 1.72997 19.2601 3.24659C21.4267 4.76321 22.9897 6.99464 23.6747 9.54903C24.3597 12.1034 24.1228 14.8175 23.0058 17.2147Z" stroke="#444444" stroke-width="1.5"/>
<path d="M8.48487 14.6694C9.68679 14.6694 10.6611 13.6951 10.6611 12.4932C10.6611 11.2912 9.68679 10.3169 8.48487 10.3169C7.28295 10.3169 6.30859 11.2912 6.30859 12.4932C6.30859 13.6951 7.28295 14.6694 8.48487 14.6694Z" fill="#444444"/>
<path d="M17.1919 14.6694C18.3938 14.6694 19.3682 13.6951 19.3682 12.4932C19.3682 11.2912 18.3938 10.3169 17.1919 10.3169C15.99 10.3169 15.0156 11.2912 15.0156 12.4932C15.0156 13.6951 15.99 14.6694 17.1919 14.6694Z" fill="#444444"/>
</svg>
