<svg width="604" height="59" viewBox="0 0 604 59" fill="none" xmlns="http://www.w3.org/2000/svg">
<path fill-rule="evenodd" clip-rule="evenodd" d="M123.593 0L156.451 57.8671H138.457L135.466 52.1806H111.651L108.66 57.8671H90.7354L123.593 0ZM123.593 29.5871L117.611 40.8948H129.483L123.593 29.5871ZM0 57.7801V1.04602H26.8753C32.8579 1.04602 37.5651 2.41862 41.0434 5.18561C44.5217 7.93081 46.2608 11.9397 46.2608 17.2122C46.2608 21.3518 44.6144 24.9031 41.3448 27.8226C43.5477 28.8902 45.3101 30.546 46.6318 32.7901C47.9535 35.0342 48.6028 37.6705 48.6028 40.7207C48.6028 46.0804 46.7941 50.2635 43.1999 53.2702C39.6057 56.2768 34.6898 57.7801 28.4985 57.7801H0ZM25.113 14.0095H15.5826V22.5719H24.9507C28.5449 22.5719 30.3536 21.1557 30.3536 18.3233C30.3536 15.491 28.5912 14.0095 25.113 14.0095ZM26.5507 35.0124H15.5826V44.7949H26.6434C30.6782 44.7949 32.6956 43.1826 32.6956 39.9363C32.6956 36.69 30.655 35.0124 26.5507 35.0124ZM195.431 14.1183V1.13306H142.167V14.1183H161.042V57.8672H176.625V14.1183H195.431ZM92.4973 0.936523V13.9653H68.4278V22.4842H88.9959V35.1861H68.4278V44.8597H93.2393L85.8191 57.8667H52.7988V0.936523H92.4973ZM239.004 19.5006L254.911 18.738L254.934 18.7598C254.842 12.9862 252.685 8.49799 248.488 5.25168C244.175 1.9618 238.586 0.327751 231.537 0.327751C224.488 0.327751 219.062 2.04895 215.236 5.49134C211.456 8.86837 209.578 13.1387 209.578 18.4548C209.578 23.7709 211.595 27.649 215.63 30.1328C219.085 32.2461 223.769 33.9891 229.682 35.3617C233.392 36.2768 236.036 37.1919 237.589 38.1287C239.143 39.0656 239.931 40.1767 239.931 41.5057C239.931 44.5342 237.682 46.0593 233.16 46.0593C230.471 46.0593 228.268 45.3839 226.575 44.0549C224.882 42.7258 224.071 40.9611 224.117 38.7823L208.21 39.5449C208.14 45.6235 210.413 50.3514 214.981 53.7284C219.595 57.0619 225.647 58.7395 233.137 58.7395C239.7 58.7395 245.126 57.258 249.439 54.2731C253.682 51.2447 255.815 46.7347 255.815 40.765C255.815 36.255 254.169 32.7255 250.923 30.1763C247.653 27.6272 242.505 25.4485 235.456 23.6837C231.584 22.7905 228.917 21.9843 227.456 21.2653C226.111 20.5028 225.439 19.4134 225.439 17.9972C225.439 16.4286 226.018 15.2085 227.178 14.3152C228.337 13.4219 229.868 12.9862 231.815 12.9862C234.065 12.9862 235.827 13.5744 237.102 14.7292C238.378 15.8839 239.004 17.4744 239.004 19.5006ZM289.627 0.304703C299.041 0.304703 306.694 2.98454 312.56 8.34421C318.543 13.6603 321.511 20.6976 321.511 29.4997C321.511 38.3017 318.52 45.3826 312.56 50.7423C306.694 56.0584 299.041 58.7164 289.627 58.7164C280.212 58.7164 272.444 56.0584 266.462 50.7423C260.549 45.339 257.581 38.2582 257.581 29.4997C257.581 20.7412 260.549 13.6603 266.462 8.34421C272.375 2.98454 280.096 0.304703 289.627 0.304703ZM289.627 13.2681C284.665 13.2681 280.746 14.7279 277.847 17.6256C274.949 20.5233 273.488 24.4886 273.488 29.4997C273.488 34.5108 274.949 38.4543 277.847 41.3738C280.746 44.2715 284.688 45.7312 289.627 45.7312C294.566 45.7312 298.415 44.2715 301.291 41.3738C304.166 38.476 305.604 34.5108 305.604 29.4997C305.604 24.4886 304.166 20.5451 301.291 17.6256C298.415 14.7279 294.52 13.2681 289.627 13.2681ZM391.328 57.8671V0L358.47 37.3216L325.543 0V57.8671H341.125V38.0624L358.47 57.8671L375.745 38.0624V57.8671H391.328ZM436.71 1.13304V14.1183H412.733V22.6153H433.232V35.2737H412.733V44.9037H436.78V57.8672H397.151V1.13304H436.71ZM494.584 8.34421C488.718 2.98454 481.065 0.304703 471.651 0.304703C462.121 0.304703 454.399 2.98454 448.486 8.34421C442.573 13.6603 439.605 20.7412 439.605 29.4997C439.605 38.2582 442.573 45.339 448.486 50.7423C454.468 56.0584 462.236 58.7164 471.651 58.7164C481.065 58.7164 488.718 56.0584 494.584 50.7423C500.544 45.3826 503.535 38.3017 503.535 29.4997C503.535 20.6976 500.567 13.6603 494.584 8.34421ZM459.871 17.6256C462.77 14.7279 466.689 13.2681 471.651 13.2681C476.544 13.2681 480.439 14.7279 483.315 17.6256C486.19 20.5451 487.628 24.4886 487.628 29.4997C487.628 34.5108 486.19 38.476 483.315 41.3738C480.439 44.2715 476.59 45.7312 471.651 45.7312C466.712 45.7312 462.77 44.2715 459.871 41.3738C456.973 38.4543 455.512 34.5108 455.512 29.4997C455.512 24.4886 456.973 20.5233 459.871 17.6256ZM507.572 0L542.03 27.6917V1.13294H557.612V59L523.154 31.3955V57.8671H507.572V0ZM602.992 14.1183V1.13304H563.433V57.8672H603.062V44.9037H579.015V35.2737H599.514V22.6153H579.015V14.1183H602.992Z" fill="#333333"/>
</svg>
