<svg width="31" height="31" viewBox="0 0 31 31" fill="none" xmlns="http://www.w3.org/2000/svg">
<path d="M15.4688 27.6235C22.3723 27.6235 27.9688 22.0271 27.9688 15.1235C27.9688 8.21998 22.3723 2.62354 15.4688 2.62354C8.56519 2.62354 2.96875 8.21998 2.96875 15.1235C2.96875 22.0271 8.56519 27.6235 15.4688 27.6235Z" stroke="#444444" stroke-width="1.5" stroke-miterlimit="10" stroke-linejoin="round"/>
<path d="M23.7995 24.2899C23.7995 19.6874 20.0686 15.9565 15.4661 15.9565C10.8636 15.9565 7.13281 19.6874 7.13281 24.2899" stroke="#444444" stroke-width="1.5" stroke-miterlimit="10" stroke-linejoin="round"/>
<path d="M15.4688 15.9568C18.2302 15.9568 20.4688 13.7182 20.4688 10.9568C20.4688 8.19536 18.2302 5.95679 15.4688 5.95679C12.7073 5.95679 10.4688 8.19536 10.4688 10.9568C10.4688 13.7182 12.7073 15.9568 15.4688 15.9568Z" stroke="#444444" stroke-width="1.5" stroke-miterlimit="10" stroke-linejoin="round"/>
</svg>
