<svg width="32" height="32" viewBox="0 0 32 32" fill="none" xmlns="http://www.w3.org/2000/svg">
<path d="M29.0369 24.0528L17.9271 5.09379C17.0766 3.6354 14.9301 3.6354 14.0739 5.09379L2.9693 24.0528C2.11458 25.506 3.17915 27.3342 4.89229 27.3342H27.1118C28.8181 27.3342 29.8859 25.5112 29.0369 24.0528ZM14.7499 11.0836C14.7499 10.3935 15.3098 9.83354 16 9.83354C16.6901 9.83354 17.25 10.3961 17.25 11.0836V17.7505C17.25 18.4406 16.6901 19.0005 16.0469 19.0005C15.4036 19.0005 14.7499 18.4432 14.7499 17.7505V11.0836ZM16 24.0007C15.0958 24.0007 14.3624 23.2674 14.3624 22.3632C14.3624 21.459 15.0953 20.7256 16 20.7256C16.9047 20.7256 17.6375 21.459 17.6375 22.3632C17.6355 23.2663 16.9063 24.0007 16 24.0007Z" fill="#DF0B17"/>
</svg>
