<svg width="60" height="14" viewBox="0 0 60 14" fill="none" xmlns="http://www.w3.org/2000/svg">
<path d="M0.660218 2.11148C0.658463 1.92451 0.693996 1.73908 0.764737 1.566C0.835477 1.39292 0.940005 1.23568 1.07222 1.10347C1.20443 0.971255 1.36167 0.866727 1.53475 0.795987C1.70783 0.725246 1.89327 0.689713 2.08024 0.691468H5.9353C9.01725 0.691468 10.8791 2.51645 10.8791 5.16188V5.1987C10.8791 8.18861 8.55444 9.73747 5.65919 9.73747H3.50025V12.4118C3.50025 12.7885 3.35064 13.1496 3.08433 13.4159C2.81803 13.6822 2.45685 13.8318 2.08024 13.8318C1.70363 13.8318 1.34244 13.6822 1.07613 13.4159C0.809829 13.1496 0.660218 12.7885 0.660218 12.4118V2.11148ZM5.75123 7.21038C7.17124 7.21038 8.00221 6.361 8.00221 5.25392V5.21711C8.00221 3.94436 7.11602 3.26327 5.69601 3.26327H3.50025V7.20775L5.75123 7.21038Z" fill="#E7231E"/>
<path d="M10.4292 11.883L14.9312 1.71938C15.0596 1.3847 15.2875 1.09739 15.5842 0.896165C15.8808 0.694936 16.232 0.58944 16.5905 0.593885H16.7562C17.1122 0.589831 17.4609 0.69575 17.7546 0.897176C18.0482 1.0986 18.2726 1.38573 18.3971 1.71938L22.899 11.883C22.9885 12.0604 23.0388 12.255 23.0463 12.4536C23.0487 12.6321 23.0157 12.8093 22.9492 12.9749C22.8826 13.1405 22.7839 13.2913 22.6587 13.4185C22.5334 13.5457 22.3842 13.6468 22.2196 13.7159C22.055 13.785 21.8784 13.8207 21.6999 13.821C21.0346 13.821 20.5928 13.4319 20.3325 12.8428L19.4673 10.8127H13.7873L12.8827 12.9348C12.7792 13.1985 12.5981 13.4244 12.3633 13.5827C12.1284 13.741 11.851 13.8241 11.5679 13.821C11.3939 13.821 11.2216 13.7865 11.061 13.7195C10.9005 13.6524 10.7548 13.5541 10.6325 13.4304C10.5102 13.3066 10.4137 13.1598 10.3485 12.9985C10.2834 12.8371 10.2509 12.6644 10.253 12.4904C10.268 12.2778 10.3281 12.0707 10.4292 11.883ZM18.4181 8.30403L16.6273 4.04925L14.8391 8.31193L18.4181 8.30403Z" fill="#E7231E"/>
<path d="M26.0509 8.73378L21.883 3.07214C21.6594 2.78068 21.5366 2.42442 21.5332 2.05709C21.5359 1.87396 21.5749 1.6932 21.6479 1.52524C21.721 1.35727 21.8265 1.20545 21.9586 1.07854C22.0906 0.951627 22.2465 0.85215 22.4172 0.785855C22.588 0.719559 22.7701 0.68776 22.9532 0.692299C23.5975 0.692299 24.0051 1.04204 24.3548 1.55746L27.492 6.07783L30.6923 1.52064C31.0447 0.994707 31.468 0.673897 32.0571 0.673897C32.2415 0.663656 32.4261 0.692395 32.5987 0.758249C32.7713 0.824102 32.928 0.925587 33.0588 1.05609C33.1896 1.18659 33.2913 1.34319 33.3575 1.51566C33.4237 1.68814 33.4528 1.87262 33.4429 2.05709C33.4239 2.41935 33.2945 2.76713 33.0721 3.05373L28.9041 8.67856V12.4048C28.9124 12.5966 28.8817 12.7881 28.814 12.9677C28.7463 13.1473 28.6429 13.3114 28.5101 13.45C28.3773 13.5887 28.2179 13.699 28.0413 13.7744C27.8648 13.8497 27.6748 13.8886 27.4828 13.8886C27.2908 13.8886 27.1008 13.8497 26.9243 13.7744C26.7477 13.699 26.5882 13.5887 26.4554 13.45C26.3226 13.3114 26.2193 13.1473 26.1516 12.9677C26.0839 12.7881 26.0532 12.5966 26.0615 12.4048L26.0509 8.73378Z" fill="#E7231E"/>
<path d="M33.5185 7.28772V7.2509C33.5185 3.56939 36.2875 0.574219 40.2531 0.574219C42.1885 0.574219 43.5007 1.10015 44.571 1.88905C44.743 2.02187 44.8823 2.19242 44.978 2.38755C45.0737 2.58268 45.1234 2.79718 45.1232 3.01454C45.1228 3.19764 45.0862 3.37886 45.0155 3.54773C44.9447 3.7166 44.8411 3.86976 44.7108 3.99838C44.5805 4.12699 44.4259 4.22851 44.2562 4.29705C44.0864 4.3656 43.9047 4.39981 43.7216 4.39773C43.4169 4.39431 43.1206 4.29798 42.8722 4.12162C42.1246 3.52655 41.198 3.20131 40.2425 3.19861C38.0573 3.19335 36.4795 4.99992 36.4795 7.20357V7.24039C36.4795 9.45456 38.01 11.3006 40.2241 11.3006C41.2521 11.3214 42.2511 10.9597 43.0274 10.2855C43.1593 10.174 43.3119 10.0895 43.4764 10.037C43.641 9.98438 43.8143 9.96473 43.9864 9.97914C44.1586 9.99354 44.3262 10.0417 44.4798 10.1209C44.6333 10.2001 44.7697 10.3088 44.8813 10.4407C44.9928 10.5726 45.0773 10.7252 45.1298 10.8897C45.1824 11.0543 45.202 11.2276 45.1876 11.3998C45.1732 11.5719 45.1251 11.7395 45.0459 11.8931C44.9667 12.0466 44.858 12.183 44.7261 12.2946C43.5638 13.3096 42.199 13.9197 40.1321 13.9197C39.2586 13.9322 38.3915 13.769 37.5823 13.4399C36.773 13.1108 36.0382 12.6224 35.4213 12.0038C34.8044 11.3853 34.3181 10.649 33.9913 9.83889C33.6644 9.02875 33.5036 8.16119 33.5185 7.28772Z" fill="#E7231E"/>
<path d="M45.9443 7.28772V7.2509C45.9443 3.56939 48.8369 0.574219 52.8235 0.574219C56.8101 0.574219 59.6606 3.54309 59.6606 7.21408V7.2509C59.6606 10.9324 56.768 13.9302 52.7788 13.9302C48.7896 13.9302 45.9443 10.9587 45.9443 7.28772ZM56.6996 7.28772V7.2509C56.6996 5.03674 55.0745 3.19335 52.7867 3.19335C50.4989 3.19335 48.9132 4.99992 48.9132 7.21408V7.2509C48.9132 9.46507 50.5383 11.3111 52.8235 11.3111C55.1087 11.3111 56.7101 9.50189 56.7101 7.28772H56.6996Z" fill="#E7231E"/>
</svg>
