<svg width="49" height="49" viewBox="0 0 49 49" fill="none" xmlns="http://www.w3.org/2000/svg">
<circle cx="24.6367" cy="24.2031" r="24" fill="#F8F8F8"/>
<path d="M21.245 18.9992V23.4495H22.806V18.9518C22.806 18.9518 22.9853 16.753 20.4961 16.6528V18.2241C20.4961 18.2241 21.245 18.3929 21.245 18.9992Z" fill="#ACACAC"/>
<path d="M26.4947 23.6182C27.9397 23.6182 29.1104 22.5424 29.1104 21.2134C29.1104 19.8844 27.9397 18.8086 26.4947 18.8086C25.0497 18.8086 23.8789 19.8844 23.8789 21.2134C23.8789 22.5424 25.0497 23.6182 26.4947 23.6182ZM26.4947 20.2272C27.0379 20.2272 27.4808 20.6702 27.4808 21.2134C27.4808 21.7566 27.0379 22.1996 26.4947 22.1996C25.9515 22.1996 25.5085 21.7566 25.5085 21.2134C25.5085 20.6702 25.9515 20.2272 26.4947 20.2272Z" fill="#ACACAC"/>
<path d="M16.4741 23.4337V23.054C16.4741 23.054 16.954 23.6129 17.7978 23.6129C17.7978 23.6129 19.9864 23.5497 19.9969 21.4353C19.9969 21.4353 20.2923 18.9623 17.9349 18.7462C17.9349 18.7462 16.8538 18.7356 16.4794 19.3736V16.8638C16.4794 16.8638 14.9869 16.8849 14.8867 16.8638V23.4337H16.4794H16.4741ZM17.4392 20.3174C17.9455 20.3174 18.3568 20.7287 18.3568 21.2349C18.3568 21.7411 17.9455 22.1524 17.4392 22.1524C16.9329 22.1524 16.5216 21.7411 16.5216 21.2349C16.5216 20.7287 16.9329 20.3174 17.4392 20.3174Z" fill="#ACACAC"/>
<path d="M31.8665 23.6219C33.2324 23.6219 33.4275 23.0155 33.4275 23.0155C33.4381 24.5183 32.4624 24.4286 32.4624 24.4286H32.0353V25.9103H32.7419C35.0624 25.9103 35.0413 23.6272 35.0413 23.6272V18.8764H33.4592V19.3562C32.9423 18.6602 32.1038 18.7499 32.1038 18.7499C29.9732 18.908 29.9258 20.8695 29.9258 20.8695V21.5866C29.9258 23.4795 31.8665 23.6166 31.8665 23.6166V23.6219ZM32.5626 20.2526C33.0953 20.2526 33.5277 20.685 33.5277 21.2175C33.5277 21.7501 33.0953 22.1824 32.5626 22.1824C32.03 22.1824 31.5975 21.7501 31.5975 21.2175C31.5975 20.685 32.03 20.2526 32.5626 20.2526Z" fill="#ACACAC"/>
<path d="M34.6933 11.2163H15.1965C13.2294 11.2163 11.6367 12.8087 11.6367 14.7754V26.3439C11.6367 28.3107 13.2294 29.9031 15.1965 29.9031H22.0839L24.4254 35.4184C24.4254 35.4184 24.5889 35.8982 24.9792 35.8982C25.3694 35.8982 25.5329 35.4184 25.5329 35.4184L27.8744 29.9031H34.6986C36.6657 29.9031 38.2583 28.3107 38.2583 26.3439V14.7754C38.2583 12.8087 36.6657 11.2163 34.6986 11.2163H34.6933Z" stroke="#ACACAC" stroke-width="1.5" stroke-miterlimit="10"/>
</svg>
