<svg width="28" height="29" viewBox="0 0 28 29" fill="none" xmlns="http://www.w3.org/2000/svg">
<circle cx="14" cy="14.9023" r="10" fill="#D9D9D9"/>
<path d="M13.5868 16.9949C13.6118 17.0951 13.6118 17.1953 13.6118 17.2955C13.6118 17.8467 13.4114 18.3477 13.0106 18.7235L12.2089 19.5252C11.8331 19.901 11.307 20.1265 10.7809 20.1265C9.65349 20.1265 8.75159 19.2246 8.75159 18.0972C8.75159 17.546 8.95201 17.045 9.35285 16.6692L10.1545 15.8675C10.5303 15.4917 11.0564 15.2662 11.6076 15.2662C11.6577 15.2662 11.7078 15.2725 11.7579 15.2788C11.808 15.285 11.8581 15.2913 11.9082 15.2913L12.5346 14.665C12.2339 14.5648 11.9333 14.5146 11.6076 14.5146C10.856 14.5146 10.1545 14.8153 9.62843 15.3414L8.82674 16.1431C8.30063 16.6692 8 17.3707 8 18.1223C8 19.6505 9.25264 20.9031 10.7809 20.9031C11.5324 20.9031 12.2339 20.6025 12.76 20.0764L13.5617 19.2747C14.0878 18.7486 14.3885 18.0471 14.3885 17.2955C14.3885 16.9698 14.3384 16.6692 14.2382 16.3686L13.5868 16.9949Z" fill="black"/>
<path d="M13.5868 16.9949C13.6118 17.0951 13.6118 17.1953 13.6118 17.2955C13.6118 17.8467 13.4114 18.3477 13.0106 18.7235L12.2089 19.5252C11.8331 19.901 11.307 20.1265 10.7809 20.1265C9.65349 20.1265 8.75159 19.2246 8.75159 18.0972C8.75159 17.546 8.95201 17.045 9.35285 16.6692L10.1545 15.8675C10.5303 15.4917 11.0564 15.2662 11.6076 15.2662C11.6577 15.2662 11.7078 15.2725 11.7579 15.2788C11.808 15.285 11.8581 15.2913 11.9082 15.2913L12.5346 14.665C12.2339 14.5648 11.9333 14.5146 11.6076 14.5146C10.856 14.5146 10.1545 14.8153 9.62843 15.3414L8.82674 16.1431C8.30063 16.6692 8 17.3707 8 18.1223C8 19.6505 9.25264 20.9031 10.7809 20.9031C11.5324 20.9031 12.2339 20.6025 12.76 20.0764L13.5617 19.2747C14.0878 18.7486 14.3885 18.0471 14.3885 17.2955C14.3885 16.9698 14.3384 16.6692 14.2382 16.3686L13.5868 16.9949Z" stroke="black"/>
<path d="M17.1935 8.90234C16.442 8.90234 15.7405 9.20297 15.2144 9.72908L14.4127 10.5308C13.8866 11.0569 13.5859 11.7584 13.5859 12.51C13.5859 12.8356 13.636 13.1363 13.7363 13.4369L14.3626 12.8106C14.3375 12.7104 14.3375 12.6102 14.3375 12.51C14.3375 11.9588 14.5379 11.4577 14.9388 11.0819L15.7405 10.2802C16.1163 9.90446 16.6424 9.67898 17.1935 9.67898C18.3209 9.67898 19.2228 10.5809 19.2228 11.7083C19.2228 12.2594 19.0224 12.7605 18.6216 13.1363L17.8199 13.938C17.4441 14.3138 16.918 14.5392 16.3919 14.5392C16.3417 14.5392 16.2916 14.533 16.2415 14.5267C16.1914 14.5204 16.1413 14.5142 16.0912 14.5142L15.4649 15.1154C15.7655 15.2157 16.0662 15.2658 16.3919 15.2658C17.1434 15.2658 17.8449 14.9651 18.371 14.439L19.1727 13.6373C19.6988 13.1112 19.9995 12.4097 19.9995 11.6582C19.9744 10.155 18.7218 8.90234 17.1935 8.90234Z" fill="black"/>
<path d="M17.1935 8.90234C16.442 8.90234 15.7405 9.20297 15.2144 9.72908L14.4127 10.5308C13.8866 11.0569 13.5859 11.7584 13.5859 12.51C13.5859 12.8356 13.636 13.1363 13.7363 13.4369L14.3626 12.8106C14.3375 12.7104 14.3375 12.6102 14.3375 12.51C14.3375 11.9588 14.5379 11.4577 14.9388 11.0819L15.7405 10.2802C16.1163 9.90446 16.6424 9.67898 17.1935 9.67898C18.3209 9.67898 19.2228 10.5809 19.2228 11.7083C19.2228 12.2594 19.0224 12.7605 18.6216 13.1363L17.8199 13.938C17.4441 14.3138 16.918 14.5392 16.3919 14.5392C16.3417 14.5392 16.2916 14.533 16.2415 14.5267C16.1914 14.5204 16.1413 14.5142 16.0912 14.5142L15.4649 15.1154C15.7655 15.2157 16.0662 15.2658 16.3919 15.2658C17.1434 15.2658 17.8449 14.9651 18.371 14.439L19.1727 13.6373C19.6988 13.1112 19.9995 12.4097 19.9995 11.6582C19.9744 10.155 18.7218 8.90234 17.1935 8.90234Z" stroke="black"/>
<path d="M11.986 17.2953C11.8858 17.2953 11.7856 17.2452 11.7104 17.1701C11.5601 17.0197 11.5601 16.7692 11.7104 16.5938L15.7188 12.5854C15.8692 12.4351 16.1197 12.4351 16.2951 12.5854C16.4454 12.7357 16.4454 12.9862 16.2951 13.1616L12.2866 17.1701C12.1864 17.2703 12.0862 17.2953 11.986 17.2953Z" fill="black"/>
<path d="M11.986 17.2953C11.8858 17.2953 11.7856 17.2452 11.7104 17.1701C11.5601 17.0197 11.5601 16.7692 11.7104 16.5938L15.7188 12.5854C15.8692 12.4351 16.1197 12.4351 16.2951 12.5854C16.4454 12.7357 16.4454 12.9862 16.2951 13.1616L12.2866 17.1701C12.1864 17.2703 12.0862 17.2953 11.986 17.2953Z" stroke="black"/>
</svg>
