<svg width="60" height="16" viewBox="0 0 60 16" fill="none" xmlns="http://www.w3.org/2000/svg">
<path d="M21.0093 4.47883H22.9145V2.26755L25.5054 0.753906V4.47883H28.211V6.78458H25.5055V10.983C25.5055 12.0608 25.9627 12.439 26.6297 12.439C26.9916 12.439 27.2775 12.3256 27.5822 12.0608L28.7825 14.103C28.117 14.5946 27.2778 14.8783 26.3247 14.8783C24.1718 14.8783 22.9147 13.857 22.9147 11.0775V6.78458H21.0093V4.47883ZM37.3899 9.54631C37.3899 7.95803 36.1326 6.691 34.5704 6.691C32.9891 6.691 31.7506 7.95803 31.7506 9.54631C31.7506 11.1347 32.9891 12.4015 34.5704 12.4015C36.1326 12.4015 37.3899 11.1344 37.3899 9.54631ZM29.1214 9.56493C29.1214 6.61545 31.4653 4.25233 34.5513 4.25233C37.6186 4.25233 40.0003 6.61575 40.0003 9.56493C40.0003 12.4959 37.6564 14.8777 34.5513 14.8777C31.4647 14.8782 29.1212 12.4959 29.1212 9.56493H29.1214ZM40.5422 12.3442L43.0762 11.3612C43.5335 12.2687 44.3528 12.7415 45.4389 12.7415C46.5058 12.7415 47.0773 12.2311 47.0773 11.6257C47.0773 10.8886 45.9722 10.7183 44.6575 10.4535C42.924 10.0945 40.9994 9.56493 40.9994 7.40951C40.9994 5.68876 42.676 4.1951 45.2102 4.21403C47.3819 4.21403 48.6778 5.02701 49.6303 6.38851L47.2287 7.3526C46.8092 6.67192 46.1618 6.27481 45.2091 6.27481C44.1801 6.27481 43.6848 6.69085 43.6848 7.25812C43.6848 7.90109 44.5239 8.07111 46.0287 8.39267C47.7431 8.73301 49.7613 9.31921 49.7613 11.5126C49.7613 13.1007 48.3323 14.8969 45.3412 14.878C42.9046 14.878 41.3615 13.9705 40.5422 12.3442ZM50.4413 12.3442L52.9751 11.3612C53.4322 12.2687 54.2516 12.7415 55.3378 12.7415C56.4045 12.7415 56.9762 12.2311 56.9762 11.6257C56.9762 10.8886 55.8709 10.7183 54.5564 10.4535C52.8229 10.0945 50.8986 9.56493 50.8986 7.40951C50.8986 5.68876 52.5752 4.1951 55.1091 4.21403C57.281 4.21403 58.5766 5.02701 59.5292 6.38851L57.1274 7.3526C56.708 6.67193 56.0605 6.27481 55.1079 6.27481C54.079 6.27481 53.5835 6.69085 53.5835 7.25812C53.5835 7.9011 54.4227 8.07111 55.9276 8.39267C57.6421 8.73301 59.6602 9.31921 59.6602 11.5126C59.6602 13.1008 58.2313 14.8969 55.2399 14.878C52.8035 14.878 51.2605 13.9705 50.4413 12.3442ZM17.6206 8.68359C17.6222 9.61204 17.4393 10.5317 17.0821 11.3899C16.725 12.2481 16.2007 13.028 15.5392 13.685C14.8781 14.3417 14.0927 14.8625 13.2282 15.2175C12.3637 15.5725 11.437 15.7548 10.5014 15.7539C7.6402 15.7558 5.17214 14.0838 4.03737 11.67C2.83299 12.0061 1.69218 12.5353 0.660156 13.2368C1.01237 11.2643 1.74844 8.92886 2.94121 6.78862C4.41699 4.14253 6.63778 1.86892 10.0082 1.64724C10.4262 1.6162 10.8462 1.62304 11.263 1.66768C14.8354 2.02634 17.6206 5.03649 17.6206 8.68361V8.68359Z" fill="#0050FF"/>
</svg>
