<svg width="21" height="21" viewBox="0 0 21 21" fill="none" xmlns="http://www.w3.org/2000/svg">
<path d="M10.6562 20.2539C5.13325 20.2539 0.65625 15.7769 0.65625 10.2539C0.65625 4.73091 5.13325 0.253906 10.6562 0.253906C16.1792 0.253906 20.6562 4.73091 20.6562 10.2539C20.6562 15.7769 16.1792 20.2539 10.6562 20.2539ZM10.6562 18.2539C12.778 18.2539 14.8128 17.4111 16.3131 15.9108C17.8134 14.4105 18.6562 12.3756 18.6562 10.2539C18.6562 8.13217 17.8134 6.09734 16.3131 4.59705C14.8128 3.09676 12.778 2.25391 10.6562 2.25391C8.53452 2.25391 6.49969 3.09676 4.9994 4.59705C3.4991 6.09734 2.65625 8.13217 2.65625 10.2539C2.65625 12.3756 3.4991 14.4105 4.9994 15.9108C6.49969 17.4111 8.53452 18.2539 10.6562 18.2539Z" fill="#444444"/>
</svg>
