<svg width="32" height="32" viewBox="0 0 32 32" fill="none" xmlns="http://www.w3.org/2000/svg">
<g clip-path="url(#clip0_1501_14840)">
<path d="M16 32C11.7565 32 7.68687 30.3143 4.68629 27.3137C1.68571 24.3131 0 20.2435 0 16C0 11.7565 1.68571 7.68687 4.68629 4.68629C7.68687 1.68571 11.7565 0 16 0C20.2435 0 24.3131 1.68571 27.3137 4.68629C30.3143 7.68687 32 11.7565 32 16C32 20.2435 30.3143 24.3131 27.3137 27.3137C24.3131 30.3143 20.2435 32 16 32ZM19.2 11.2C19.2 11.648 18.864 12.48 18.528 12.8L16 15.328C15.088 16.256 14.4 17.888 14.4 19.2V20.8H17.6V19.2C17.6 18.736 17.936 17.92 18.272 17.6L20.8 15.072C21.712 14.144 22.4 12.512 22.4 11.2C22.4 9.50261 21.7257 7.87475 20.5255 6.67452C19.3253 5.47428 17.6974 4.8 16 4.8C14.3026 4.8 12.6747 5.47428 11.4745 6.67452C10.2743 7.87475 9.6 9.50261 9.6 11.2H12.8C12.8 10.3513 13.1371 9.53737 13.7373 8.93726C14.3374 8.33714 15.1513 8 16 8C16.8487 8 17.6626 8.33714 18.2627 8.93726C18.8629 9.53737 19.2 10.3513 19.2 11.2ZM14.4 24V27.2H17.6V24H14.4Z" fill="#DF0B17"/>
</g>
<defs>
<clipPath id="clip0_1501_14840">
<rect width="32" height="32" fill="white"/>
</clipPath>
</defs>
</svg>
