<svg width="31" height="31" viewBox="0 0 31 31" fill="none" xmlns="http://www.w3.org/2000/svg">
<path d="M19.713 11.0244L20.1032 11.0811L26.5781 12.022L26.5781 12.022C27.1934 12.1114 27.439 12.8673 26.9938 13.3012L26.9937 13.3012L22.3085 17.8682L22.0261 18.1434L22.0928 18.532L23.1989 24.9808C23.304 25.5935 22.6609 26.0608 22.1106 25.7715C22.1106 25.7715 22.1106 25.7715 22.1106 25.7715L16.3194 22.7268L15.9704 22.5433L15.6214 22.7268L9.83002 25.7715L10.179 26.4353L9.83001 25.7715C9.27984 26.0607 8.63673 25.5935 8.74182 24.9808L9.84786 18.532L9.91451 18.1434L9.63215 17.8682L4.94688 13.3012C4.50174 12.8673 4.74738 12.1113 5.36255 12.022L5.2547 11.2798L5.36255 12.022L11.8374 11.0811L12.2276 11.0244L12.4021 10.6708L15.2978 4.80357L14.6252 4.47165L15.2978 4.80357C15.5729 4.24614 16.3678 4.24615 16.6429 4.80357L19.5385 10.6708L19.713 11.0244Z" fill="#444444" stroke="#444444" stroke-width="1.5"/>
<path d="M7.55443 19.1548C7.81319 19.4782 7.76075 19.9501 7.43731 20.2089L3.68731 23.2089C3.36385 23.4676 2.89189 23.4153 2.63312 23.0919C2.37437 22.7683 2.42681 22.2964 2.75026 22.0377L6.50026 19.0377C6.8237 18.7789 7.29568 18.8313 7.55443 19.1548Z" fill="#444444"/>
<path d="M7.43731 7.78766C7.76075 8.04643 7.81319 8.5184 7.55443 8.84185C7.29568 9.16529 6.8237 9.21773 6.50026 8.95897L2.75026 5.95897C2.42681 5.70022 2.37437 5.22824 2.63312 4.9048C2.89189 4.58135 3.36385 4.52891 3.68731 4.78766L7.43731 7.78766Z" fill="#444444"/>
<path d="M24.3831 19.1548C24.1244 19.4782 24.1769 19.9501 24.5003 20.2089L28.2502 23.2089C28.5738 23.4676 29.0457 23.4153 29.3045 23.0919C29.5632 22.7683 29.5109 22.2964 29.1873 22.0377L25.4373 19.0377C25.1139 18.7789 24.642 18.8313 24.3831 19.1548Z" fill="#444444"/>
<path d="M24.5003 7.78766C24.1769 8.04643 24.1244 8.5184 24.3831 8.84185C24.642 9.16529 25.1139 9.21773 25.4373 8.95897L29.1873 5.95897C29.5109 5.70022 29.5632 5.22824 29.3045 4.9048C29.0457 4.58135 28.5738 4.52891 28.2502 4.78766L24.5003 7.78766Z" fill="#444444"/>
</svg>
