<svg width="25" height="25" viewBox="0 0 25 25" fill="none" xmlns="http://www.w3.org/2000/svg">
<path d="M16.6192 4.85833L16.6305 4.88454L16.6437 4.90982L17.8409 7.20457C17.9852 7.49106 18.1878 7.75042 18.4676 7.93693C18.7541 8.12793 19.0774 8.21289 19.4086 8.21289H19.8086C21.5944 8.21289 23.0586 9.6771 23.0586 11.4629V17.4629C23.0586 19.2487 21.5944 20.7129 19.8086 20.7129H5.80859C4.02281 20.7129 2.55859 19.2487 2.55859 17.4629V11.4629C2.55859 9.6771 4.02281 8.21289 5.80859 8.21289H6.20859C6.53983 8.21289 6.86312 8.12793 7.14962 7.93693C7.43142 7.74906 7.63493 7.48727 7.77941 7.1983L7.77952 7.19835L7.78519 7.18648L8.87226 4.91352C9.14849 4.44667 9.60061 4.21289 10.0086 4.21289H15.5086C16.0611 4.21289 16.4568 4.4794 16.6192 4.85833ZM8.05859 13.4629C8.05859 16.0771 10.1944 18.2129 12.8086 18.2129C15.4228 18.2129 17.5586 16.0771 17.5586 13.4629C17.5586 10.8487 15.4228 8.71289 12.8086 8.71289C10.1944 8.71289 8.05859 10.8487 8.05859 13.4629Z" stroke="#444444" stroke-width="1.5"/>
</svg>
