<svg width="25" height="25" viewBox="0 0 25 25" fill="none" xmlns="http://www.w3.org/2000/svg">
<path d="M14.9592 2.99993L14.7344 2.55333V2.55333L14.9592 2.99993ZM17.6193 2.4148L17.6265 1.91485L17.6193 2.4148ZM12.9836 4.55356L12.6137 4.89003C12.7086 4.99437 12.8432 5.05376 12.9843 5.05356C13.1253 5.05336 13.2598 4.99359 13.3544 4.88898L12.9836 4.55356ZM10.9966 3.00675L10.7739 3.45438V3.45438L10.9966 3.00675ZM7.16122 18.7575L6.83266 19.1344L7.16122 18.7575ZM10.7755 21.3875L10.5178 21.816L10.7755 21.3875ZM12.066 22.099L11.8464 22.5482H11.8464L12.066 22.099ZM12.5089 22.2981L12.6926 21.8331L12.5089 22.2981ZM12.6967 22.3641L12.5546 22.8435H12.5546L12.6967 22.3641ZM13.2723 22.3641L13.4144 22.8435H13.4144L13.2723 22.3641ZM13.46 22.2981L13.2764 21.8331L13.46 22.2981ZM13.9029 22.099L13.6833 21.6498H13.6833L13.9029 22.099ZM15.1934 21.3875L15.4511 21.816L15.1934 21.3875ZM18.8077 18.7575L18.4792 18.3806L18.8077 18.7575ZM15.184 3.44653C15.9974 3.03705 16.8095 2.90314 17.6121 2.91475L17.6265 1.91485C16.6965 1.9014 15.7189 2.0577 14.7344 2.55333L15.184 3.44653ZM13.3544 4.88898C13.9571 4.22266 14.5663 3.75753 15.184 3.44653L14.7344 2.55333C13.9914 2.92738 13.2862 3.47371 12.6128 4.21815L13.3544 4.88898ZM10.7739 3.45438C11.3943 3.76316 12.0084 4.22468 12.6137 4.89003L13.3534 4.21709C12.675 3.47135 11.9638 2.92956 11.2194 2.55911L10.7739 3.45438ZM8.3605 2.91472C9.14751 2.91472 9.95804 3.04838 10.7739 3.45438L11.2194 2.55911C10.2361 2.06978 9.26602 1.91472 8.3605 1.91472V2.91472ZM2.45898 9.32981C2.45898 5.60893 5.12667 2.91472 8.3605 2.91472V1.91472C4.51628 1.91472 1.45898 5.1166 1.45898 9.32981H2.45898ZM7.48978 18.3806C4.97036 16.1843 2.45898 13.0382 2.45898 9.32981H1.45898C1.45898 13.4868 4.25483 16.8871 6.83266 19.1344L7.48978 18.3806ZM11.0333 20.9591C10.0357 20.359 8.75505 19.4836 7.48978 18.3806L6.83266 19.1344C8.14968 20.2825 9.47964 21.1914 10.5178 21.816L11.0333 20.9591ZM12.2856 21.6498C11.962 21.4916 11.5321 21.2592 11.0333 20.9591L10.5178 21.816C11.037 22.1283 11.4925 22.3751 11.8464 22.5482L12.2856 21.6498ZM12.6926 21.8331C12.5847 21.7905 12.4471 21.7287 12.2856 21.6498L11.8464 22.5482C12.0218 22.6339 12.1847 22.7076 12.3252 22.7632L12.6926 21.8331ZM12.8387 21.8847C12.7957 21.872 12.7463 21.8543 12.6926 21.8331L12.3252 22.7632C12.3945 22.7905 12.4734 22.8194 12.5546 22.8435L12.8387 21.8847ZM12.9845 21.91C12.9287 21.91 12.8728 21.8948 12.8387 21.8847L12.5546 22.8435C12.6031 22.8579 12.7757 22.91 12.9845 22.91V21.91ZM13.1302 21.8847C13.0961 21.8948 13.0403 21.91 12.9845 21.91V22.91C13.1933 22.91 13.3658 22.8579 13.4144 22.8435L13.1302 21.8847ZM13.2764 21.8331C13.2227 21.8543 13.1733 21.872 13.1302 21.8847L13.4144 22.8435C13.4955 22.8194 13.5745 22.7905 13.6437 22.7632L13.2764 21.8331ZM13.6833 21.6498C13.5218 21.7287 13.3843 21.7905 13.2764 21.8331L13.6437 22.7632C13.7842 22.7076 13.9471 22.6339 14.1225 22.5482L13.6833 21.6498ZM14.9356 20.9591C14.4368 21.2592 14.007 21.4916 13.6833 21.6498L14.1225 22.5482C14.4765 22.3751 14.932 22.1283 15.4511 21.816L14.9356 20.9591ZM18.4792 18.3806C17.2139 19.4836 15.9332 20.359 14.9356 20.9591L15.4511 21.816C16.4893 21.1914 17.8193 20.2825 19.1363 19.1344L18.4792 18.3806ZM23.5099 9.32981C23.5099 13.0382 20.9986 16.1843 18.4792 18.3806L19.1363 19.1344C21.7141 16.8871 24.5099 13.4868 24.5099 9.32981H23.5099ZM17.6121 2.91475C20.8402 2.96146 23.5099 5.60589 23.5099 9.32981H24.5099C24.5099 5.09931 21.4405 1.97004 17.6265 1.91485L17.6121 2.91475Z" fill="#ACACAC"/>
<path fill-rule="evenodd" clip-rule="evenodd" d="M12.1518 8.69192C12.1518 8.31032 12.4612 8.00098 12.8427 8.00098C15.2595 8.00098 17.2187 9.96016 17.2187 12.3769C17.2187 12.7585 16.9094 13.0679 16.5278 13.0679C16.1462 13.0679 15.8368 12.7585 15.8368 12.3769C15.8368 10.9612 14.8542 9.77489 13.5337 9.46297V14.2194C13.5337 15.6186 12.3994 16.7529 11.0002 16.7529C9.60106 16.7529 8.4668 15.6186 8.4668 14.2194C8.4668 12.8203 9.60106 11.686 11.0002 11.686C11.4149 11.686 11.8063 11.7856 12.1518 11.9622V8.69192Z" fill="#ACACAC"/>
</svg>
