<svg width="40" height="40" viewBox="0 0 40 40" fill="none" xmlns="http://www.w3.org/2000/svg">
<circle cx="20" cy="20.0002" r="14" transform="rotate(45 20 20.0002)" fill="#1D1F28"/>
<path d="M13.9707 19.8756C13.6946 19.8774 13.4692 20.1028 13.4674 20.3789C13.4656 20.655 13.688 20.8774 13.9641 20.8756L13.9707 19.8756ZM25.3527 20.8008C25.6288 20.799 25.8541 20.5736 25.8559 20.2975C25.8578 20.0214 25.6354 19.799 25.3592 19.8008L25.3527 20.8008ZM25.3592 19.8008L13.9707 19.8756L13.9641 20.8756L25.3527 20.8008L25.3592 19.8008Z" fill="white"/>
<path d="M20.201 14.6394C20.2028 14.3633 19.9805 14.1409 19.7043 14.1427C19.4282 14.1445 19.2029 14.3699 19.2011 14.646L20.201 14.6394ZM19.1262 26.0345C19.1244 26.3107 19.3468 26.5331 19.6229 26.5312C19.8991 26.5294 20.1244 26.3041 20.1262 26.028L19.1262 26.0345ZM20.1262 26.028L20.201 14.6394L19.2011 14.646L19.1262 26.0345L20.1262 26.028Z" fill="white"/>
</svg>
