<svg width="31" height="31" viewBox="0 0 31 31" fill="none" xmlns="http://www.w3.org/2000/svg">
<rect width="30" height="30" transform="translate(0.96875 0.123535)" fill="white"/>
<path d="M16.7284 4.61405L16.7302 4.61573L26.1034 13.1336C26.1036 13.1338 26.1038 13.134 26.1041 13.1342C26.2189 13.2395 26.3107 13.3674 26.3735 13.51C26.4364 13.6527 26.4689 13.807 26.469 13.963C26.469 13.9631 26.469 13.9632 26.469 13.9633L26.469 24.801C26.469 24.8013 26.469 24.8015 26.469 24.8017C26.4684 25.0054 26.4131 25.2051 26.3088 25.38C26.2045 25.5552 26.055 25.699 25.8759 25.7966L25.8759 25.7966C25.7148 25.8843 25.534 25.9295 25.3506 25.9279V25.9279H25.344H19.719C19.6693 25.9279 19.6216 25.9081 19.5864 25.873C19.5513 25.8378 19.5315 25.7901 19.5315 25.7404V20.1154C19.5315 19.6678 19.3537 19.2386 19.0372 18.9221C18.7208 18.6057 18.2915 18.4279 17.844 18.4279H14.094C13.6464 18.4279 13.2172 18.6057 12.9008 18.9221C12.5843 19.2386 12.4065 19.6678 12.4065 20.1154V25.7404C12.4065 25.7901 12.3867 25.8378 12.3516 25.873C12.3164 25.9081 12.2687 25.9279 12.219 25.9279L6.594 25.9279L6.59117 25.9279C6.43225 25.9285 6.27504 25.895 6.13011 25.8298C5.98605 25.765 5.85744 25.6703 5.75283 25.5519C5.56533 25.3343 5.46427 25.0554 5.4689 24.7681L5.469 24.7681V24.756L5.469 13.9633C5.469 13.9632 5.469 13.9632 5.469 13.9631C5.469 13.9631 5.469 13.9631 5.469 13.963C5.46908 13.807 5.50161 13.6527 5.56453 13.51C5.62733 13.3674 5.71905 13.2395 5.83386 13.1343C5.83411 13.134 5.83437 13.1338 5.83463 13.1336L15.2078 4.61574L15.2096 4.61405C15.417 4.42432 15.6879 4.31909 15.969 4.31909C16.2501 4.31909 16.521 4.42432 16.7284 4.61405Z" fill="#444444" stroke="#444444" stroke-width="1.5"/>
</svg>
