<svg width="35" height="35" viewBox="0 0 35 35" fill="none" xmlns="http://www.w3.org/2000/svg">
<g clip-path="url(#clip0_843_18018)">
<path d="M27.6074 12.915C27.6074 12.915 27.3977 11.4345 26.7518 10.7845C25.934 9.92887 25.0197 9.92467 24.6003 9.87434C21.5973 9.65625 17.0887 9.65625 17.0887 9.65625H17.0803C17.0803 9.65625 12.5717 9.65625 9.56871 9.87434C9.1493 9.92467 8.23499 9.92887 7.41715 10.7845C6.77126 11.4345 6.56575 12.915 6.56575 12.915C6.56575 12.915 6.34766 14.6556 6.34766 16.3919V18.0192C6.34766 19.7556 6.56155 21.4961 6.56155 21.4961C6.56155 21.4961 6.77126 22.9766 7.41295 23.6267C8.2308 24.4823 9.30448 24.453 9.78261 24.5452C11.5022 24.7088 17.0845 24.7591 17.0845 24.7591C17.0845 24.7591 21.5973 24.7507 24.6003 24.5368C25.0197 24.4865 25.934 24.4823 26.7518 23.6267C27.3977 22.9766 27.6074 21.4961 27.6074 21.4961C27.6074 21.4961 27.8213 19.7598 27.8213 18.0192V16.3919C27.8213 14.6556 27.6074 12.915 27.6074 12.915ZM14.8658 19.9947V13.9594L20.6662 16.9875L14.8658 19.9947Z" fill="#ACACAC"/>
</g>
<defs>
<clipPath id="clip0_843_18018">
<rect width="21.4737" height="21.4737" fill="white" transform="translate(6.34766 6.47314)"/>
</clipPath>
</defs>
</svg>
