<svg width="12" height="12" viewBox="0 0 12 12" fill="none" xmlns="http://www.w3.org/2000/svg">
<path d="M11.3536 1.73533C11.5489 1.5401 11.5489 1.22357 11.3536 1.02834C11.1583 0.833107 10.8417 0.833107 10.6464 1.02834L11.3536 1.73533ZM0.646393 11.0252C0.4511 11.2204 0.4511 11.537 0.646393 11.7322C0.841686 11.9274 1.15832 11.9274 1.35361 11.7322L0.646393 11.0252ZM10.6464 1.02834L0.646393 11.0252L1.35361 11.7322L11.3536 1.73533L10.6464 1.02834Z" fill="#AAAAAA"/>
<path d="M10.6464 11.729C10.8417 11.9242 11.1583 11.9242 11.3536 11.729C11.5489 11.5338 11.5489 11.2172 11.3536 11.022L10.6464 11.729ZM1.35361 1.02513C1.15832 0.8299 0.841684 0.8299 0.646391 1.02513C0.451098 1.22036 0.451098 1.5369 0.646391 1.73213L1.35361 1.02513ZM11.3536 11.022L1.35361 1.02513L0.646391 1.73213L10.6464 11.729L11.3536 11.022Z" fill="#AAAAAA"/>
</svg>
