<svg width="35" height="35" viewBox="0 0 35 35" fill="none" xmlns="http://www.w3.org/2000/svg">
<g clip-path="url(#clip0_843_18012)">
<path d="M13.1031 25.9338C21.2043 25.9338 25.6366 19.2204 25.6366 13.4003C25.6366 13.2115 25.6324 13.0186 25.6241 12.8299C26.4863 12.2063 27.2304 11.434 27.8213 10.5491C27.0183 10.9064 26.1658 11.1397 25.2927 11.2412C26.212 10.6901 26.9002 9.82455 27.23 8.80481C26.3652 9.31731 25.4195 9.67883 24.4334 9.87388C23.7689 9.16789 22.8904 8.70044 21.9337 8.5438C20.9769 8.38717 19.9952 8.55007 19.1404 9.00732C18.2855 9.46457 17.6051 10.1907 17.2043 11.0735C16.8035 11.9562 16.7046 12.9464 16.923 13.891C15.172 13.8031 13.459 13.3482 11.895 12.5558C10.331 11.7635 8.95107 10.6513 7.84452 9.29133C7.28212 10.261 7.11002 11.4084 7.36321 12.5004C7.6164 13.5923 8.27587 14.5469 9.2076 15.1702C8.50811 15.148 7.82395 14.9596 7.21164 14.6207V14.6753C7.21101 15.6928 7.5628 16.6792 8.2072 17.4668C8.8516 18.2543 9.74884 18.7944 10.7464 18.9952C10.0984 19.1725 9.41838 19.1983 8.75883 19.0707C9.04033 19.9458 9.58801 20.7112 10.3255 21.2601C11.0629 21.8089 11.9533 22.1139 12.8724 22.1323C11.312 23.358 9.38455 24.0228 7.40037 24.0197C7.04849 24.0191 6.69696 23.9976 6.34766 23.9551C8.36337 25.2483 10.7082 25.9351 13.1031 25.9338Z" fill="#ACACAC"/>
</g>
<defs>
<clipPath id="clip0_843_18012">
<rect width="21.4737" height="21.4737" fill="white" transform="translate(6.34766 6.47314)"/>
</clipPath>
</defs>
</svg>
