<svg width="31" height="31" viewBox="0 0 31 31" fill="none" xmlns="http://www.w3.org/2000/svg">
<path d="M19.213 11.0244L19.6032 11.0811L26.0781 12.022L26.0781 12.022C26.6934 12.1114 26.939 12.8673 26.4938 13.3012L26.4937 13.3012L21.8085 17.8682L21.5261 18.1434L21.5928 18.532L22.6989 24.9808C22.804 25.5935 22.1609 26.0608 21.6106 25.7715C21.6106 25.7715 21.6106 25.7715 21.6106 25.7715L15.8194 22.7268L15.4704 22.5433L15.1214 22.7268L9.33002 25.7715L9.67902 26.4353L9.33001 25.7715C8.77984 26.0607 8.13673 25.5935 8.24182 24.9808L9.34786 18.532L9.41451 18.1434L9.13215 17.8682L4.44688 13.3012C4.00174 12.8673 4.24738 12.1113 4.86255 12.022L4.7547 11.2798L4.86255 12.022L11.3374 11.0811L11.7276 11.0244L11.9021 10.6708L14.7978 4.80357L14.1252 4.47165L14.7978 4.80357C15.0729 4.24614 15.8678 4.24615 16.1429 4.80357L19.0385 10.6708L19.213 11.0244Z" stroke="#444444" stroke-width="1.5"/>
<path d="M7.05443 19.1548C7.31319 19.4782 7.26075 19.9501 6.93731 20.2089L3.18731 23.2089C2.86385 23.4676 2.39189 23.4153 2.13312 23.0919C1.87437 22.7683 1.92681 22.2964 2.25026 22.0377L6.00026 19.0377C6.3237 18.7789 6.79568 18.8313 7.05443 19.1548Z" fill="#444444"/>
<path d="M6.93731 7.78766C7.26075 8.04643 7.31319 8.5184 7.05443 8.84185C6.79568 9.16529 6.3237 9.21773 6.00026 8.95897L2.25026 5.95897C1.92681 5.70022 1.87437 5.22824 2.13312 4.9048C2.39189 4.58135 2.86385 4.52891 3.18731 4.78766L6.93731 7.78766Z" fill="#444444"/>
<path d="M23.8831 19.1548C23.6244 19.4782 23.6769 19.9501 24.0003 20.2089L27.7502 23.2089C28.0738 23.4676 28.5457 23.4153 28.8045 23.0919C29.0632 22.7683 29.0109 22.2964 28.6873 22.0377L24.9373 19.0377C24.6139 18.7789 24.142 18.8313 23.8831 19.1548Z" fill="#444444"/>
<path d="M24.0003 7.78766C23.6769 8.04643 23.6244 8.5184 23.8831 8.84185C24.142 9.16529 24.6139 9.21773 24.9373 8.95897L28.6873 5.95897C29.0109 5.70022 29.0632 5.22824 28.8045 4.9048C28.5457 4.58135 28.0738 4.52891 27.7502 4.78766L24.0003 7.78766Z" fill="#444444"/>
</svg>
