<svg width="25" height="25" viewBox="0 0 25 25" fill="none" xmlns="http://www.w3.org/2000/svg">
<circle cx="12.9844" cy="12.4141" r="11" fill="#ACACAC"/>
<path d="M9.12488 12.6547H10.572C10.8278 12.6547 11.0732 12.7563 11.2541 12.9372C11.435 13.1181 11.5367 13.3635 11.5367 13.6194V16.0312C11.5367 16.287 11.435 16.5324 11.2541 16.7133C11.0732 16.8943 10.8278 16.9959 10.572 16.9959H9.12488C8.86902 16.9959 8.62364 16.8943 8.44272 16.7133C8.2618 16.5324 8.16016 16.287 8.16016 16.0312V12.6547C8.16016 9.99058 10.3197 7.83105 12.9838 7.83105C15.6478 7.83105 17.8074 9.99058 17.8074 12.6547V16.0312C17.8074 16.287 17.7057 16.5324 17.5248 16.7133C17.3439 16.8943 17.0985 16.9959 16.8426 16.9959H15.3956C15.1397 16.9959 14.8943 16.8943 14.7134 16.7133C14.5325 16.5324 14.4308 16.287 14.4308 16.0312V13.6194C14.4308 13.3635 14.5325 13.1181 14.7134 12.9372C14.8943 12.7563 15.1397 12.6547 15.3956 12.6547H16.8426C16.8426 11.6312 16.4361 10.6497 15.7124 9.92602C14.9887 9.20234 14.0072 8.79578 12.9838 8.79578C11.9603 8.79578 10.9788 9.20234 10.2551 9.92602C9.53144 10.6497 9.12488 11.6312 9.12488 12.6547Z" fill="white"/>
</svg>
