<svg width="82" height="82" viewBox="0 0 82 82" fill="none" xmlns="http://www.w3.org/2000/svg">
<path d="M16.0828 70.7493L70.7494 16.0826C72.0837 14.7483 72.0837 12.585 70.7494 11.2507C69.4151 9.91643 67.2518 9.91643 65.9175 11.2507L58.6621 18.5061C54.8217 15.471 50.014 13.6667 44.7965 13.6667C32.4585 13.6667 23.2262 21.9396 23.2262 29.4658C13.9677 30.7644 6.8335 38.93 6.8335 48.8095C6.8335 54.7588 9.42055 60.0866 13.5007 63.6676L11.2509 65.9174C9.91659 67.2517 9.91659 69.415 11.2509 70.7493C12.5852 72.0836 14.7485 72.0836 16.0828 70.7493Z" fill="url(#paint0_linear_997_9939)"/>
<path d="M75.1668 54.2665C75.1668 62.0354 68.8912 68.3333 61.1497 68.3333H32.3398C30.8177 68.3333 30.0556 66.4929 31.1321 65.4168L64.5149 32.0477C65.4258 31.1372 66.9636 31.5308 67.192 32.7983C67.443 34.1913 67.5742 35.6275 67.5742 37.0952V41C72.0839 43.338 75.1668 48.8213 75.1668 54.2665Z" fill="url(#paint1_linear_997_9939)"/>
<defs>
<linearGradient id="paint0_linear_997_9939" x1="6.8335" y1="10.25" x2="86.1315" y2="32.2772" gradientUnits="userSpaceOnUse">
<stop stop-color="#DF0B17"/>
<stop offset="0.711919" stop-color="#FF755F"/>
</linearGradient>
<linearGradient id="paint1_linear_997_9939" x1="6.8335" y1="10.25" x2="86.1315" y2="32.2772" gradientUnits="userSpaceOnUse">
<stop stop-color="#DF0B17"/>
<stop offset="0.711919" stop-color="#FF755F"/>
</linearGradient>
</defs>
</svg>
