<svg width="25" height="25" viewBox="0 0 25 25" fill="none" xmlns="http://www.w3.org/2000/svg">
<path opacity="0.4" d="M22.2621 12.5C22.2621 15.5134 20.9293 18.2154 18.821 20.0488C17.0652 21.5756 14.7716 22.5 12.2621 22.5C9.75267 22.5 7.45908 21.5756 5.70331 20.0488C3.59499 18.2154 2.26215 15.5134 2.26215 12.5C2.26215 6.97715 6.7393 2.5 12.2621 2.5C17.785 2.5 22.2621 6.97715 22.2621 12.5Z" fill="#999999"/>
<path d="M18.8209 20.0488C17.8274 17.3918 15.2657 15.5 12.262 15.5C9.25846 15.5 6.69668 17.3918 5.70325 20.0488C7.45902 21.5756 9.7526 22.5 12.262 22.5C14.7715 22.5 17.0651 21.5756 18.8209 20.0488Z" fill="#28303F"/>
<path d="M12.2621 7.5C13.9189 7.5 15.2621 8.84315 15.2621 10.5C15.2621 12.1569 13.9189 13.5 12.2621 13.5C10.6052 13.5 9.26208 12.1569 9.26208 10.5C9.26208 8.84315 10.6052 7.5 12.2621 7.5Z" fill="#28303F"/>
</svg>
