<svg width="49" height="49" viewBox="0 0 49 49" fill="none" xmlns="http://www.w3.org/2000/svg">
<circle cx="24.6367" cy="24.2031" r="24" fill="#F8F8F8"/>
<g clip-path="url(#clip0_884_15894)">
<path d="M20.1869 33.9534C29.2412 33.9534 34.195 26.4501 34.195 19.9452C34.195 19.7343 34.1903 19.5187 34.1809 19.3077C35.1446 18.6108 35.9762 17.7476 36.6367 16.7587C35.7392 17.158 34.7864 17.4188 33.8106 17.5321C34.838 16.9163 35.6073 15.9488 35.9758 14.8091C35.0093 15.3819 33.9523 15.786 32.8502 16.004C32.1076 15.2149 31.1257 14.6925 30.0564 14.5174C28.9871 14.3424 27.8899 14.5244 26.9345 15.0355C25.979 15.5465 25.2185 16.3581 24.7706 17.3447C24.3226 18.3313 24.2121 19.438 24.4562 20.4937C22.4992 20.3955 20.5847 19.8871 18.8367 19.0015C17.0887 18.1159 15.5464 16.8728 14.3097 15.3529C13.6811 16.4366 13.4888 17.719 13.7717 18.9395C14.0547 20.1599 14.7918 21.2268 15.8331 21.9234C15.0513 21.8985 14.2867 21.688 13.6023 21.3093V21.3702C13.6016 22.5075 13.9948 23.61 14.715 24.4901C15.4352 25.3703 16.438 25.9739 17.553 26.1984C16.8288 26.3965 16.0687 26.4254 15.3316 26.2827C15.6462 27.2608 16.2583 28.1163 17.0825 28.7297C17.9067 29.3431 18.9018 29.684 19.9291 29.7046C18.1851 31.0745 16.0309 31.8175 13.8133 31.814C13.42 31.8134 13.0271 31.7893 12.6367 31.7418C14.8896 33.1871 17.5103 33.9548 20.1869 33.9534Z" fill="#ACACAC"/>
</g>
<defs>
<clipPath id="clip0_884_15894">
<rect width="24" height="24" fill="white" transform="translate(12.6367 12.2031)"/>
</clipPath>
</defs>
</svg>
