<svg width="44" height="36" viewBox="0 0 44 36" fill="none" xmlns="http://www.w3.org/2000/svg">
<path d="M1.77778 0.985352C0.796444 0.985352 0 1.76935 0 2.73535C0 3.70135 0.796444 4.48535 1.77778 4.48535H5.72444L10.3893 22.8604C10.7858 24.4179 12.2027 25.4854 13.8329 25.4854H36.0018C37.6071 25.4854 38.9707 24.4354 39.392 22.9129L44 6.23535H40.2773L36 21.9854H13.8311L9.168 3.61035C8.77155 2.05285 7.35467 0.985352 5.72444 0.985352H1.77778ZM33.7778 25.4854C30.8533 25.4854 28.4444 27.8566 28.4444 30.7354C28.4444 33.6141 30.8533 35.9854 33.7778 35.9854C36.7022 35.9854 39.1111 33.6141 39.1111 30.7354C39.1111 27.8566 36.7022 25.4854 33.7778 25.4854ZM17.7778 25.4854C14.8533 25.4854 12.4444 27.8566 12.4444 30.7354C12.4444 33.6141 14.8533 35.9854 17.7778 35.9854C20.7022 35.9854 23.1111 33.6141 23.1111 30.7354C23.1111 27.8566 20.7022 25.4854 17.7778 25.4854ZM23.1111 0.985352V9.73535H17.7778L24.8889 16.7354L32 9.73535H26.6667V0.985352H23.1111ZM17.7778 28.9854C18.7804 28.9854 19.5556 29.7484 19.5556 30.7354C19.5556 31.7224 18.7804 32.4854 17.7778 32.4854C16.7751 32.4854 16 31.7224 16 30.7354C16 29.7484 16.7751 28.9854 17.7778 28.9854ZM33.7778 28.9854C34.7804 28.9854 35.5556 29.7484 35.5556 30.7354C35.5556 31.7224 34.7804 32.4854 33.7778 32.4854C32.7751 32.4854 32 31.7224 32 30.7354C32 29.7484 32.7751 28.9854 33.7778 28.9854Z" fill="white"/>
</svg>
