<svg width="24" height="25" viewBox="0 0 24 25" fill="none" xmlns="http://www.w3.org/2000/svg">
<path fill-rule="evenodd" clip-rule="evenodd" d="M15.3769 20.3071C15.1996 20.3072 15.0241 20.2723 14.8604 20.2043C14.6967 20.1364 14.548 20.0367 14.4229 19.9111L7.67291 13.1611C7.5475 13.0358 7.44802 12.8869 7.38015 12.7231C7.31228 12.5593 7.27734 12.3837 7.27734 12.2064C7.27734 12.0291 7.31228 11.8535 7.38015 11.6897C7.44802 11.5258 7.5475 11.377 7.67291 11.2516L14.4229 4.50163C14.5473 4.37191 14.6963 4.26832 14.8613 4.19695C15.0262 4.12558 15.2037 4.08786 15.3834 4.08601C15.5631 4.08415 15.7414 4.1182 15.9078 4.18615C16.0742 4.2541 16.2253 4.35459 16.3523 4.48172C16.4794 4.60885 16.5797 4.76006 16.6476 4.92649C16.7154 5.09292 16.7493 5.27122 16.7473 5.45093C16.7453 5.63064 16.7074 5.80814 16.6359 5.97302C16.5644 6.1379 16.4607 6.28685 16.3309 6.41113L10.5364 12.2071L16.3309 18.0016C16.52 18.1903 16.6488 18.4309 16.7011 18.6929C16.7534 18.9549 16.7268 19.2265 16.6246 19.4733C16.5225 19.7201 16.3494 19.9311 16.1273 20.0796C15.9052 20.228 15.644 20.3072 15.3769 20.3071Z" fill="#222222"/>
</svg>
