<svg width="24" height="24" viewBox="0 0 24 24" fill="none" xmlns="http://www.w3.org/2000/svg">
<path fill-rule="evenodd" clip-rule="evenodd" d="M4.29297 11.5832C4.29297 15.6102 7.55756 18.8748 11.5846 18.8748C15.6117 18.8748 18.8763 15.6102 18.8763 11.5832C18.8763 7.55609 15.6117 4.2915 11.5846 4.2915C7.55756 4.2915 4.29297 7.55609 4.29297 11.5832ZM11.5846 20.1248C6.8672 20.1248 3.04297 16.3006 3.04297 11.5832C3.04297 6.86574 6.8672 3.0415 11.5846 3.0415C16.3021 3.0415 20.1263 6.86574 20.1263 11.5832C20.1263 13.7169 19.3439 15.668 18.0504 17.165L20.7766 19.8912C21.0207 20.1353 21.0207 20.531 20.7766 20.7751C20.5325 21.0192 20.1368 21.0192 19.8927 20.7751L17.1665 18.0489C15.6694 19.3424 13.7184 20.1248 11.5846 20.1248Z" fill="#28303F"/>
</svg>
