<svg width="35" height="35" viewBox="0 0 35 35" fill="none" xmlns="http://www.w3.org/2000/svg">
<g clip-path="url(#clip0_843_18009)">
<path d="M17.0845 8.40661C19.9532 8.40661 20.293 8.4192 21.4212 8.46953C22.4697 8.51566 23.0359 8.69181 23.4134 8.8386C23.9125 9.03153 24.2731 9.2664 24.6464 9.63967C25.0239 10.0171 25.2546 10.3736 25.4475 10.8727C25.5943 11.2502 25.7704 11.8206 25.8166 12.8649C25.8669 13.9973 25.8795 14.337 25.8795 17.2016C25.8795 20.0703 25.8669 20.4101 25.8166 21.5383C25.7704 22.5868 25.5943 23.153 25.4475 23.5305C25.2546 24.0296 25.0197 24.3902 24.6464 24.7635C24.269 25.141 23.9125 25.3717 23.4134 25.5646C23.0359 25.7114 22.4655 25.8875 21.4212 25.9337C20.2888 25.984 19.9491 25.9966 17.0845 25.9966C14.2157 25.9966 13.876 25.984 12.7478 25.9337C11.6993 25.8875 11.1331 25.7114 10.7556 25.5646C10.2565 25.3717 9.89585 25.1368 9.52257 24.7635C9.14511 24.3861 8.91443 24.0296 8.7215 23.5305C8.57471 23.153 8.39856 22.5826 8.35243 21.5383C8.3021 20.4059 8.28951 20.0662 8.28951 17.2016C8.28951 14.3328 8.3021 13.9931 8.35243 12.8649C8.39856 11.8164 8.57471 11.2502 8.7215 10.8727C8.91443 10.3736 9.1493 10.0129 9.52257 9.63967C9.90004 9.26221 10.2565 9.03153 10.7556 8.8386C11.1331 8.69181 11.7035 8.51566 12.7478 8.46953C13.876 8.4192 14.2157 8.40661 17.0845 8.40661ZM17.0845 6.47314C14.1696 6.47314 13.8047 6.48573 12.6597 6.53606C11.519 6.58638 10.7347 6.77092 10.0552 7.03515C9.34642 7.31196 8.74667 7.67685 8.15111 8.2766C7.55136 8.87216 7.18647 9.47191 6.90966 10.1765C6.64544 10.8602 6.4609 11.6402 6.41057 12.781C6.36024 13.9302 6.34766 14.2951 6.34766 17.21C6.34766 20.1249 6.36024 20.4898 6.41057 21.6347C6.4609 22.7755 6.64544 23.5598 6.90966 24.2393C7.18647 24.9481 7.55136 25.5478 8.15111 26.1434C8.74667 26.7389 9.34642 27.108 10.051 27.3806C10.7347 27.6449 11.5148 27.8294 12.6556 27.8797C13.8005 27.93 14.1654 27.9426 17.0803 27.9426C19.9952 27.9426 20.3601 27.93 21.5051 27.8797C22.6458 27.8294 23.4301 27.6449 24.1096 27.3806C24.8142 27.108 25.4139 26.7389 26.0095 26.1434C26.6051 25.5478 26.9741 24.9481 27.2467 24.2435C27.511 23.5598 27.6955 22.7797 27.7458 21.6389C27.7962 20.4939 27.8088 20.1291 27.8088 17.2142C27.8088 14.2993 27.7962 13.9344 27.7458 12.7894C27.6955 11.6486 27.511 10.8643 27.2467 10.1849C26.9825 9.47191 26.6176 8.87216 26.0179 8.2766C25.4223 7.68104 24.8226 7.31196 24.118 7.03935C23.4343 6.77512 22.6542 6.59058 21.5134 6.54025C20.3643 6.48573 19.9994 6.47314 17.0845 6.47314Z" fill="#ACACAC"/>
<path d="M17.0855 11.6948C14.0406 11.6948 11.5703 14.1651 11.5703 17.21C11.5703 20.2549 14.0406 22.7253 17.0855 22.7253C20.1304 22.7253 22.6007 20.2549 22.6007 17.21C22.6007 14.1651 20.1304 11.6948 17.0855 11.6948ZM17.0855 20.7876C15.1101 20.7876 13.508 19.1854 13.508 17.21C13.508 15.2346 15.1101 13.6325 17.0855 13.6325C19.0609 13.6325 20.6631 15.2346 20.6631 17.21C20.6631 19.1854 19.0609 20.7876 17.0855 20.7876Z" fill="#ACACAC"/>
<path d="M24.1064 11.4765C24.1064 12.1895 23.5276 12.7641 22.8188 12.7641C22.1058 12.7641 21.5312 12.1853 21.5312 11.4765C21.5312 10.7636 22.11 10.189 22.8188 10.189C23.5276 10.189 24.1064 10.7677 24.1064 11.4765Z" fill="#ACACAC"/>
</g>
<defs>
<clipPath id="clip0_843_18009">
<rect width="21.4737" height="21.4737" fill="white" transform="translate(6.34766 6.47314)"/>
</clipPath>
</defs>
</svg>
