<svg width="15" height="15" viewBox="0 0 15 15" fill="none" xmlns="http://www.w3.org/2000/svg">
<circle cx="7.8125" cy="7.10938" r="7" fill="#DF0B17"/>
<path d="M8.33134 8.61969V8.51196C8.34377 7.62936 8.62554 7.22328 9.3051 6.81306C10.0634 6.35726 10.5399 5.73571 10.5399 4.78267C10.5399 3.39041 9.45013 2.50781 7.8714 2.50781C6.42526 2.50781 5.25261 3.31168 5.20703 4.88212H6.67388C6.71532 4.10312 7.27885 3.73019 7.86311 3.73019C8.50123 3.73019 9.0109 4.1487 9.0109 4.80754C9.0109 5.39179 8.62968 5.78544 8.12416 6.10035C7.39073 6.5603 6.96808 7.0161 6.95979 8.51196V8.61969H8.33134ZM7.68079 11.2012C8.16974 11.2012 8.5841 10.7951 8.58825 10.2937C8.5841 9.79649 8.16974 9.39455 7.68079 9.39455C7.17941 9.39455 6.76504 9.79649 6.77333 10.2937C6.76504 10.7951 7.17941 11.2012 7.68079 11.2012Z" fill="white"/>
</svg>
