<svg width="25" height="25" viewBox="0 0 25 25" fill="none" xmlns="http://www.w3.org/2000/svg">
<g clip-path="url(#clip0_1440_12915)">
<path d="M22.9073 9.33338C23.2725 9.33338 23.5685 9.03735 23.5685 8.67218C23.5685 8.30701 23.2725 8.01099 22.9073 8.01099C22.5421 8.01099 22.2461 8.30701 22.2461 8.67218C22.2461 9.03735 22.5421 9.33338 22.9073 9.33338Z" fill="#444444"/>
<path d="M7.42682 6.96277C7.79199 6.96277 8.08801 6.66674 8.08801 6.30158C8.08801 5.93641 7.79199 5.64038 7.42682 5.64038C7.06165 5.64038 6.76562 5.93641 6.76562 6.30158C6.76562 6.66674 7.06165 6.96277 7.42682 6.96277Z" fill="#444444"/>
<path d="M18.6651 16.8807C19.0303 16.8807 19.3263 16.5847 19.3263 16.2195C19.3263 15.8544 19.0303 15.5583 18.6651 15.5583C18.2999 15.5583 18.0039 15.8544 18.0039 16.2195C18.0039 16.5847 18.2999 16.8807 18.6651 16.8807Z" fill="#444444"/>
<path d="M15.6339 4.70496C15.999 4.70496 16.295 4.40893 16.295 4.04376C16.295 3.6786 15.999 3.38257 15.6339 3.38257C15.2687 3.38257 14.9727 3.6786 14.9727 4.04376C14.9727 4.40893 15.2687 4.70496 15.6339 4.70496Z" fill="#444444"/>
<path d="M13.8876 11.006C14.0115 11.1291 14.179 11.1983 14.3537 11.1983C14.5284 11.1983 14.696 11.1291 14.8199 11.006L18.1258 7.70002C18.1951 7.64075 18.2513 7.56781 18.291 7.48578C18.3306 7.40374 18.3529 7.31439 18.3565 7.22334C18.36 7.13228 18.3446 7.04147 18.3114 6.95663C18.2782 6.87178 18.2277 6.79472 18.1633 6.73028C18.0989 6.66584 18.0218 6.61542 17.937 6.58218C17.8521 6.54894 17.7613 6.5336 17.6702 6.53711C17.5792 6.54063 17.4898 6.56293 17.4078 6.60262C17.3258 6.64231 17.2528 6.69852 17.1936 6.76774L13.8876 10.0737C13.7644 10.1976 13.6953 10.3652 13.6953 10.5399C13.6953 10.7145 13.7644 10.8821 13.8876 11.006Z" fill="#444444"/>
<path d="M12.7075 12.1915L12.7076 12.1915L12.7036 12.1876C12.3164 11.8037 11.1245 10.6426 9.83007 9.7544C9.18775 9.31366 8.47556 8.90853 7.79532 8.71709C7.11994 8.52702 6.31516 8.5104 5.70864 9.10313L5.70861 9.1031L5.70333 9.10839C5.63041 9.1813 5.5887 9.25939 5.58102 9.27375C5.58066 9.27443 5.58037 9.27497 5.58016 9.27535C5.5646 9.30399 5.55156 9.33176 5.54191 9.35316C5.52206 9.39715 5.50098 9.44905 5.47998 9.50298C5.43727 9.61267 5.38309 9.76134 5.32024 9.93938C5.19398 10.297 5.02544 10.794 4.83001 11.3805C4.43881 12.5548 3.93575 14.1008 3.43929 15.639C2.94269 17.1775 2.45215 18.71 2.08579 19.8576C1.9026 20.4315 1.75044 20.9092 1.64406 21.2435L1.52069 21.6314L1.48822 21.7336L1.48256 21.7514C1.3984 21.9784 1.37867 22.2245 1.42582 22.4623C1.47462 22.7084 1.59302 22.9354 1.76696 23.1162L2.23544 22.6656L1.76696 23.1162C1.94091 23.297 2.16308 23.4242 2.40712 23.4825C2.64796 23.5401 2.9001 23.5283 3.13439 23.4485L3.13658 23.4478L3.16278 23.4395L3.26494 23.4068L3.65273 23.2825C3.9869 23.1754 4.46451 23.0222 5.03835 22.8377C6.18599 22.4688 7.71877 21.9748 9.25897 21.4745C10.7988 20.9743 12.3475 20.4673 13.5266 20.0728C14.1156 19.8757 14.6152 19.7056 14.9761 19.5781C15.1559 19.5146 15.3058 19.4601 15.4169 19.4171C15.4716 19.396 15.5233 19.3752 15.5669 19.3559C15.5882 19.3465 15.6143 19.3345 15.6409 19.3207L15.6424 19.3199C15.658 19.3117 15.7206 19.2793 15.7832 19.2257L15.805 19.207L15.8251 19.1864C16.416 18.5815 16.3869 17.7746 16.1934 17.1063C15.9974 16.4292 15.5896 15.7175 15.1468 15.0742C14.2543 13.7776 13.0925 12.5799 12.7075 12.1915ZM10.6426 14.2525C9.95821 13.5681 9.41552 12.9437 8.99501 12.4C9.54248 12.8243 10.1683 13.3685 10.8474 14.0477C11.5186 14.7189 12.0572 15.3379 12.4781 15.8807C11.9342 15.4611 11.314 14.9239 10.6426 14.2525Z" stroke="#444444" stroke-width="1.3"/>
<path d="M16.7977 12.9466C16.6746 13.0705 16.6055 13.2381 16.6055 13.4128C16.6055 13.5875 16.6746 13.755 16.7977 13.8789C16.9216 14.0021 17.0892 14.0712 17.2639 14.0712C17.4386 14.0712 17.6061 14.0021 17.73 13.8789C18.2609 13.362 18.9726 13.0727 19.7136 13.0727C20.4546 13.0727 21.1663 13.362 21.6972 13.8789C21.8208 14.0034 21.9888 14.0737 22.1643 14.0744C22.3398 14.075 22.5083 14.0059 22.6328 13.8822C22.7573 13.7586 22.8276 13.5906 22.8282 13.4151C22.8288 13.2397 22.7597 13.0712 22.6361 12.9466C21.8588 12.1783 20.8099 11.7473 19.7169 11.7473C18.6239 11.7473 17.575 12.1783 16.7977 12.9466Z" fill="#444444"/>
<path d="M11.003 8.12323C11.0645 8.1852 11.1376 8.2344 11.2182 8.26796C11.2988 8.30153 11.3852 8.31881 11.4725 8.31881C11.5598 8.31881 11.6462 8.30153 11.7268 8.26796C11.8073 8.2344 11.8805 8.1852 11.9419 8.12323C12.7204 7.34456 13.1577 6.28858 13.1577 5.18753C13.1577 4.08647 12.7204 3.0305 11.9419 2.25183C11.8174 2.12732 11.6486 2.05737 11.4725 2.05737C11.2964 2.05737 11.1276 2.12732 11.003 2.25183C10.8785 2.37633 10.8086 2.5452 10.8086 2.72127C10.8086 2.89735 10.8785 3.06621 11.003 3.19072C11.5332 3.72136 11.831 4.44075 11.831 5.19083C11.831 5.94092 11.5332 6.66031 11.003 7.19095C10.8799 7.31483 10.8108 7.48241 10.8108 7.65709C10.8108 7.83177 10.8799 7.99935 11.003 8.12323Z" fill="#444444"/>
</g>
<defs>
<clipPath id="clip0_1440_12915">
<rect width="24" height="24" fill="white" transform="translate(0.808594 0.462891)"/>
</clipPath>
</defs>
</svg>
