<svg width="25" height="25" viewBox="0 0 25 25" fill="none" xmlns="http://www.w3.org/2000/svg">
<path d="M19.5957 5.40747H18.4511V3.98047C18.4511 3.73906 18.2555 3.54297 18.0136 3.54297C17.7716 3.54297 17.5761 3.73906 17.5761 3.98047V5.40747H7.26369V3.98047C7.26369 3.73906 7.06811 3.54297 6.82619 3.54297C6.58427 3.54297 6.38869 3.73906 6.38869 3.98047V5.40747H4.73575C3.93355 5.40747 3.28125 6.05977 3.28125 6.86197V19.9138C3.28125 20.7163 3.93358 21.3683 4.73575 21.3683H19.5957C20.398 21.3683 21.0504 20.7163 21.0504 19.9138V6.86197C21.0504 6.05975 20.398 5.40747 19.5957 5.40747ZM20.1754 19.9138C20.1754 20.233 19.9152 20.4933 19.5957 20.4933H4.73575C4.41647 20.4933 4.15625 20.2332 4.15625 19.9138V6.86197C4.15625 6.54269 4.41636 6.28247 4.73575 6.28247H6.38869V7.70947C6.38869 7.95088 6.58427 8.14697 6.82619 8.14697C7.06811 8.14697 7.26369 7.95088 7.26369 7.70947V6.28247H17.5761V7.70947C17.5761 7.95088 17.7716 8.14697 18.0136 8.14697C18.2555 8.14697 18.4511 7.95088 18.4511 7.70947V6.28247H19.5957C19.915 6.28247 20.1754 6.5428 20.1754 6.86197V19.9138Z" fill="white" stroke="white" stroke-width="0.5"/>
<path d="M18.0143 10.2109H6.375C6.13308 10.2109 5.9375 10.407 5.9375 10.6484C5.9375 10.8898 6.13308 11.0859 6.375 11.0859H18.0143C18.2562 11.0859 18.4518 10.8898 18.4518 10.6484C18.4518 10.407 18.2562 10.2109 18.0143 10.2109Z" fill="white" stroke="white" stroke-width="0.5"/>
<path d="M18.0143 12.9219H6.375C6.13324 12.9219 5.9375 13.1176 5.9375 13.3594C5.9375 13.6011 6.13324 13.7969 6.375 13.7969H18.0143C18.256 13.7969 18.4518 13.6011 18.4518 13.3594C18.4518 13.1176 18.256 12.9219 18.0143 12.9219Z" fill="white" stroke="white" stroke-width="0.5"/>
<path d="M13.0423 15.6328H6.375C6.13324 15.6328 5.9375 15.8286 5.9375 16.0703C5.9375 16.3121 6.13324 16.5078 6.375 16.5078H13.0423C13.2841 16.5078 13.4798 16.3121 13.4798 16.0703C13.4798 15.8286 13.2841 15.6328 13.0423 15.6328Z" fill="white" stroke="white" stroke-width="0.5"/>
</svg>
