<svg width="16" height="16" viewBox="0 0 16 16" fill="none" xmlns="http://www.w3.org/2000/svg">
<path d="M14.2301 13.4725L14.2301 13.4726L14.4055 14.4816H1.59426L1.76916 13.4739C1.76917 13.4738 1.76919 13.4737 1.76921 13.4736C1.79283 13.3398 1.9088 13.2429 2.04333 13.2429H2.43133H2.93133V12.7429V6.58625C2.93133 3.78647 5.2014 1.51758 8 1.51758C10.7471 1.51758 12.9837 3.70277 13.0655 6.42965L13.068 6.58953V12.7422V13.2422H13.568H13.956C14.0913 13.2422 14.207 13.3398 14.2301 13.4725ZM8 3.71291C7.39216 3.71291 6.9 4.20646 6.9 4.81291V7.29025C6.9 7.8973 7.39144 8.39158 8 8.39158C8.60959 8.39158 9.1 7.89694 9.1 7.29025V4.81291C9.1 4.20683 8.60887 3.71291 8 3.71291ZM9.28933 9.68091C9.28933 8.96822 8.71093 8.39225 8.00067 8.39225C7.28841 8.39225 6.71067 8.96889 6.71067 9.68091C6.71067 10.3929 7.28841 10.9696 8.00067 10.9696C8.71214 10.9696 9.28933 10.3924 9.28933 9.68091Z" fill="#DF0B17" stroke="#DF0B17"/>
</svg>
