<svg width="17" height="18" viewBox="0 0 17 18" fill="none" xmlns="http://www.w3.org/2000/svg">
<path d="M6.86051 1.72748C7.53109 0.3148 9.46859 0.314798 10.1392 1.72748L11.2981 4.16895C11.5644 4.72993 12.0791 5.11875 12.6745 5.20871L15.266 5.60021C16.7654 5.82675 17.3641 7.74259 16.2791 8.84221L14.4039 10.7426C13.9731 11.1793 13.7765 11.8084 13.8782 12.425L14.3208 15.1084C14.577 16.6611 13.0095 17.8452 11.6684 17.1121L9.35053 15.8451C8.81796 15.554 8.18172 15.554 7.64915 15.8451L5.33131 17.1121C3.99016 17.8452 2.42269 16.6611 2.67883 15.1084L3.12149 12.425C3.22321 11.8084 3.0266 11.1793 2.59574 10.7426L0.720567 8.84221C-0.364441 7.74259 0.234277 5.82675 1.73372 5.60021L4.32515 5.20871C4.92058 5.11875 5.43531 4.72993 5.70159 4.16895L6.86051 1.72748Z" fill="#DF0B17"/>
</svg>
