<svg width="35" height="35" viewBox="0 0 35 35" fill="none" xmlns="http://www.w3.org/2000/svg">
<g clip-path="url(#clip0_843_18015)">
<path d="M27.8213 17.21C27.8213 11.2802 23.0143 6.47314 17.0845 6.47314C11.1547 6.47314 6.34766 11.2802 6.34766 17.21C6.34766 22.569 10.2739 27.0109 15.4069 27.8164V20.3136H12.6807V17.21H15.4069V14.8445C15.4069 12.1536 17.0098 10.6672 19.4623 10.6672C20.6367 10.6672 21.8657 10.8769 21.8657 10.8769V13.5192H20.5119C19.1782 13.5192 18.7621 14.3469 18.7621 15.1968V17.21H21.7399L21.2639 20.3136H18.7621V27.8164C23.8951 27.0109 27.8213 22.569 27.8213 17.21Z" fill="#ACACAC"/>
</g>
<defs>
<clipPath id="clip0_843_18015">
<rect width="21.4737" height="21.4737" fill="white" transform="translate(6.34766 6.47314)"/>
</clipPath>
</defs>
</svg>
