<svg width="32" height="32" viewBox="0 0 32 32" fill="none" xmlns="http://www.w3.org/2000/svg">
<g clip-path="url(#clip0_1500_14714)">
<path d="M23.6101 10.5308C26.0664 12.4719 27.4768 14.814 27.4768 17.7383C27.4768 23.3805 22.329 27.9675 16.0008 27.9675C9.67102 27.9675 4.5249 23.3805 4.5249 17.7383C4.5249 15.0071 5.71866 12.4374 7.88625 10.5053L4.68608 7.65435C1.66389 10.3497 0 13.931 0 17.7398C0 25.6029 7.17603 32.0008 15.9992 32.0008C24.8206 32.0008 31.9983 25.6029 31.9983 17.7398C31.9983 13.6616 30.0339 10.221 26.6104 7.51367L23.6101 10.5308Z" fill="#DF0B17"/>
<path d="M18.3019 17.5804C18.3019 18.7582 17.1014 19.7115 15.6189 19.7115C14.1397 19.7115 12.9375 18.7582 12.9375 17.5804V2.13114C12.9392 0.953325 14.1413 0 15.6205 0C17.1031 0 18.3019 0.953325 18.3019 2.13114V17.5804Z" fill="#DF0B17"/>
</g>
<defs>
<clipPath id="clip0_1500_14714">
<rect width="32" height="32" fill="white"/>
</clipPath>
</defs>
</svg>
