<svg width="25" height="25" viewBox="0 0 25 25" fill="none" xmlns="http://www.w3.org/2000/svg">
<path d="M6.56027 14.8246V14.2659L6.00302 14.2261C4.60082 14.1259 3.52383 12.977 3.52383 11.5844V10.8915C3.52383 9.4295 4.72247 8.23086 6.18444 8.23086H9.0896V14.245H8.74316V14.845V19.6951C8.74316 19.7 8.74271 19.7034 8.74227 19.7056C8.74011 19.706 8.73669 19.7065 8.73179 19.7065H6.57164C6.56673 19.7065 6.56332 19.706 6.56116 19.7056C6.56072 19.7034 6.56027 19.7 6.56027 19.6951V14.8246Z" stroke="#444444" stroke-width="1.2"/>
<path d="M11.7367 8.63943L21.4304 4.51864C21.4343 4.52312 21.4366 4.52676 21.4378 4.52901C21.4397 4.53256 21.4394 4.53336 21.4394 4.53358V17.9225L21.4394 17.936C21.437 17.9364 21.4347 17.9367 21.4326 17.9367C21.4303 17.9368 21.4288 17.9365 21.4278 17.9363L11.7367 13.8166V8.63943Z" stroke="#444444" stroke-width="1.2"/>
</svg>
