<svg width="29" height="29" viewBox="0 0 29 29" fill="none" xmlns="http://www.w3.org/2000/svg">
<path d="M4.36401 25.6276C4.08332 26.7236 3.82527 27.2451 3.65648 27.5862C3.53146 27.8388 3.45541 27.9925 3.45541 28.2074C3.45453 28.3224 3.47975 28.4362 3.5292 28.5401C3.57864 28.644 3.65102 28.7353 3.74087 28.8072C3.83072 28.8791 3.93571 28.9296 4.04793 28.9551C4.16015 28.9805 4.27668 28.9801 4.38875 28.954L4.36401 25.6276ZM4.36401 25.6276C4.55205 24.8536 4.61897 24.0552 4.56235 23.2607L4.36401 25.6276ZM24.9444 13.5943L24.929 13.6056L24.9142 13.6177C24.579 13.8916 24.3636 14.2855 24.3142 14.7158L24.3123 14.7317L24.3112 14.7476C24.2582 15.4842 24.3206 16.2245 24.4959 16.9419L24.4959 16.9419L24.4982 16.951C24.7156 17.7938 24.9224 18.2706 25.0805 18.5965C25.1135 18.6646 25.1384 18.7146 25.158 18.7541C25.1611 18.7602 25.164 18.766 25.1667 18.7717C24.9898 18.7634 24.7128 18.6695 24.3372 18.4285C23.957 18.1847 23.5562 17.8427 23.173 17.4709C22.7928 17.102 22.4472 16.7209 22.1757 16.41C22.0588 16.2761 21.957 16.1569 21.8711 16.0563C21.8573 16.0401 21.8439 16.0244 21.8309 16.0092L21.8238 16.0008C21.7445 15.9081 21.6557 15.8041 21.5942 15.7431L21.5643 15.7135L21.5313 15.6874C21.4097 15.5912 21.2789 15.5076 21.1408 15.4376L21.1041 15.419L21.0656 15.4046C20.8525 15.3246 20.6134 15.3168 20.4663 15.3162C20.2915 15.3155 20.1013 15.3275 19.9281 15.3416C19.7678 15.3546 19.6306 15.3679 19.5147 15.3792C19.344 15.3958 19.2194 15.4079 19.135 15.408C14.2436 15.4078 10.5521 12.2034 10.5521 8.55509C10.5521 4.90665 14.2438 1.70215 19.1354 1.70215C24.0271 1.70215 27.7188 4.90665 27.7188 8.55509C27.7188 10.5131 26.6802 12.3175 24.9444 13.5943ZM1.21875 15.725C1.21875 12.736 3.18371 10.0407 6.25249 8.53827C6.25233 8.55367 6.25219 8.56908 6.2521 8.58449H6.25208V8.58915C6.25208 14.8615 12.1408 19.779 19.1354 19.779C19.2089 19.779 19.2817 19.7772 19.3534 19.7742C19.611 20.0546 19.8767 20.3273 20.1502 20.592C18.2746 22.7165 15.2063 24.1454 11.6687 24.1454C11.5607 24.1454 11.3983 24.1297 11.183 24.1089C11.0452 24.0955 10.8857 24.0801 10.7049 24.0653C10.4984 24.0484 10.2752 24.0343 10.0719 24.0352C9.89637 24.0359 9.63296 24.0458 9.40429 24.1319L9.36503 24.1467L9.32766 24.1658C9.1713 24.2456 9.02331 24.3408 8.88587 24.4499L8.85265 24.4763L8.82262 24.5062C8.75341 24.5753 8.65006 24.6968 8.55194 24.8123L8.54708 24.818C8.5316 24.8362 8.51561 24.855 8.49913 24.8745C8.39598 24.9959 8.27323 25.1405 8.13217 25.3028C7.80499 25.6794 7.38722 26.1427 6.92679 26.5917C6.46324 27.0438 5.97416 27.464 5.50609 27.7658C5.02095 28.0786 4.64714 28.206 4.39468 28.204L4.30542 28.2033L4.21848 28.2236C4.21695 28.224 4.21532 28.224 4.2137 28.2236C4.2121 28.2232 4.21064 28.2225 4.20939 28.2215C4.20813 28.2205 4.20712 28.2193 4.20642 28.2178C4.20573 28.2163 4.20538 28.2148 4.20539 28.2131H4.20541V28.2074C4.20541 28.2031 4.20517 28.2 4.20517 28.1968C4.20512 28.1748 4.21653 28.1528 4.40166 27.7701C4.58767 27.3855 4.83286 26.8199 5.09056 25.8137L5.09061 25.8137L5.09281 25.8047C5.29915 24.9554 5.37258 24.0792 5.31045 23.2074L5.30932 23.1914L5.3075 23.1755C5.25288 22.6979 5.01502 22.2601 4.64407 21.9544L4.62892 21.9419L4.61314 21.9302C2.49628 20.3641 1.21875 18.1459 1.21875 15.725Z" fill="#444444" stroke="#444444" stroke-width="1.5"/>
</svg>
