<svg width="49" height="49" viewBox="0 0 49 49" fill="none" xmlns="http://www.w3.org/2000/svg">
<circle cx="24.6367" cy="24.2031" r="24" fill="#F8F8F8"/>
<g clip-path="url(#clip0_884_15904)">
<path d="M36.3977 19.4029C36.3977 19.4029 36.1633 17.7482 35.4414 17.0217C34.5273 16.0654 33.5055 16.0607 33.0367 16.0045C29.6805 15.7607 24.6414 15.7607 24.6414 15.7607H24.632C24.632 15.7607 19.593 15.7607 16.2367 16.0045C15.768 16.0607 14.7461 16.0654 13.832 17.0217C13.1102 17.7482 12.8805 19.4029 12.8805 19.4029C12.8805 19.4029 12.6367 21.3482 12.6367 23.2889V25.1076C12.6367 27.0482 12.8758 28.9936 12.8758 28.9936C12.8758 28.9936 13.1102 30.6482 13.8273 31.3748C14.7414 32.3311 15.9414 32.2982 16.4758 32.4014C18.3977 32.5842 24.6367 32.6404 24.6367 32.6404C24.6367 32.6404 29.6805 32.6311 33.0367 32.392C33.5055 32.3357 34.5273 32.3311 35.4414 31.3748C36.1633 30.6482 36.3977 28.9936 36.3977 28.9936C36.3977 28.9936 36.6367 27.0529 36.6367 25.1076V23.2889C36.6367 21.3482 36.3977 19.4029 36.3977 19.4029ZM22.157 27.3154V20.5701L28.6398 23.9545L22.157 27.3154Z" fill="#ACACAC"/>
</g>
<defs>
<clipPath id="clip0_884_15904">
<rect width="24" height="24" fill="white" transform="translate(12.6367 12.2031)"/>
</clipPath>
</defs>
</svg>
