<svg width="25" height="25" viewBox="0 0 25 25" fill="none" xmlns="http://www.w3.org/2000/svg">
<circle cx="12.8086" cy="12.4629" r="11.25" stroke="#444444" stroke-width="1.5"/>
<path d="M12.8091 16.7728C12.6567 16.7728 12.5105 16.7123 12.4027 16.6045C12.2949 16.4967 12.2344 16.3506 12.2344 16.1981V6.42828C12.2344 6.30266 12.2756 6.18051 12.3517 6.08053C12.4277 5.98054 12.5344 5.90823 12.6555 5.87466C12.7765 5.84109 12.9053 5.84811 13.0219 5.89464C13.1386 5.94117 13.2369 6.02465 13.3016 6.13231C13.3171 6.15759 14.9015 8.72707 17.4067 8.72707C17.5591 8.72707 17.7052 8.78761 17.813 8.89539C17.9208 9.00317 17.9814 9.14934 17.9814 9.30176C17.9814 9.45418 17.9208 9.60036 17.813 9.70814C17.7052 9.81591 17.5591 9.87646 17.4067 9.87646C16.6486 9.85127 15.903 9.6766 15.2127 9.36249C14.5223 9.04837 13.9008 8.601 13.3838 8.04605V16.1981C13.3838 16.3506 13.3232 16.4967 13.2154 16.6045C13.1077 16.7123 12.9615 16.7728 12.8091 16.7728Z" fill="#444444"/>
<path d="M10.5102 19.0719C12.0972 19.0719 13.3837 17.7854 13.3837 16.1984C13.3837 14.6115 12.0972 13.325 10.5102 13.325C8.92322 13.325 7.63672 14.6115 7.63672 16.1984C7.63672 17.7854 8.92322 19.0719 10.5102 19.0719Z" fill="#444444"/>
</svg>
