<svg width="21" height="20" viewBox="0 0 21 20" fill="none" xmlns="http://www.w3.org/2000/svg">
<circle cx="10.0156" cy="10" r="9.5" stroke="black"/>
<path d="M6.6644 13.161C6.47043 13.3575 6.47043 13.6762 6.6644 13.8727C6.85838 14.0693 7.17287 14.0693 7.36685 13.8727L6.6644 13.161ZM13.3668 7.79337C13.5608 7.59683 13.5608 7.27817 13.3668 7.08163C13.1729 6.88509 12.8584 6.88509 12.6644 7.08163L13.3668 7.79337ZM12.6644 7.08163L6.6644 13.161L7.36685 13.8727L13.3668 7.79337L12.6644 7.08163Z" fill="#1D1F28"/>
<path d="M7.36685 7.08039C7.17287 6.88385 6.85838 6.88385 6.6644 7.08039C6.47043 7.27693 6.47043 7.59559 6.6644 7.79213L7.36685 7.08039ZM12.6644 13.8715C12.8584 14.068 13.1729 14.068 13.3668 13.8715C13.5608 13.675 13.5608 13.3563 13.3668 13.1598L12.6644 13.8715ZM13.3668 13.1598L7.36685 7.08039L6.6644 7.79213L12.6644 13.8715L13.3668 13.1598Z" fill="#1D1F28"/>
</svg>
