<svg width="49" height="49" viewBox="0 0 49 49" fill="none" xmlns="http://www.w3.org/2000/svg">
<g clip-path="url(#clip0_1567_16493)">
<path d="M40.9922 4.625H16.9922C14.7822 4.625 12.9922 6.415 12.9922 8.625V32.625C12.9922 34.835 14.7822 36.625 16.9922 36.625H40.9922C43.2022 36.625 44.9922 34.835 44.9922 32.625V8.625C44.9922 6.415 43.2022 4.625 40.9922 4.625ZM36.9922 14.625H30.9922V25.625C30.9922 28.385 28.7522 30.625 25.9922 30.625C23.2322 30.625 20.9922 28.385 20.9922 25.625C20.9922 22.865 23.2322 20.625 25.9922 20.625C27.1222 20.625 28.1522 21.015 28.9922 21.645V10.625H36.9922V14.625ZM8.99219 12.625H4.99219V40.625C4.99219 42.835 6.78219 44.625 8.99219 44.625H36.9922V40.625H8.99219V12.625Z" fill="white"/>
</g>
<defs>
<clipPath id="clip0_1567_16493">
<rect width="48" height="48" fill="white" transform="translate(0.992188 0.625)"/>
</clipPath>
</defs>
</svg>
