<svg width="69" height="13" viewBox="0 0 69 13" fill="none" xmlns="http://www.w3.org/2000/svg">
<path d="M0 12.3327V0.734375H5.09006C6.22262 0.734375 7.11833 1.01822 7.77289 1.58154C8.43176 2.14486 8.75904 2.96582 8.75904 4.04006C8.75904 4.88723 8.44898 5.61212 7.82457 6.21038C8.24228 6.42872 8.57387 6.76497 8.82794 7.22785C9.0777 7.68637 9.20259 8.22785 9.20259 8.84794C9.20259 9.94402 8.86239 10.7999 8.17769 11.4156C7.49298 12.0314 6.56713 12.337 5.39581 12.337H0V12.3327ZM4.75417 3.38941H2.94982V5.14051H4.72402C5.40442 5.14051 5.74893 4.85229 5.74893 4.27151C5.74893 3.69072 5.41734 3.38941 4.75417 3.38941ZM5.02977 7.68637H2.94982V9.68637H5.04269C5.80921 9.68637 6.18817 9.3545 6.18817 8.6951C6.18817 8.03571 5.8006 7.68637 5.02547 7.68637H5.02977Z" fill="#AAAAAA"/>
<path d="M20.3216 0.734375L15.9937 8.08375V12.3327H13.0439V8.08375L8.70312 0.734375H12.1266L14.5123 5.10557L16.898 0.734375H20.3216Z" fill="#AAAAAA"/>
<path d="M22.9496 12.3327V0.734375H28.0397C29.1722 0.734375 30.0679 1.01822 30.7225 1.58154C31.3814 2.14486 31.7087 2.96582 31.7087 4.04006C31.7087 4.88723 31.3986 5.61212 30.7742 6.21038C31.1919 6.42872 31.5278 6.76497 31.7776 7.22785C32.0273 7.68637 32.1522 8.22785 32.1522 8.84794C32.1522 9.94402 31.812 10.7999 31.1273 11.4156C30.4426 12.0314 29.5167 12.337 28.3454 12.337H22.9453L22.9496 12.3327ZM27.7081 3.38504H25.9037V5.13614H27.6779C28.3627 5.13614 28.7029 4.84793 28.7029 4.26714C28.7029 3.68635 28.3713 3.38504 27.7081 3.38504ZM27.9837 7.682H25.9037V9.68201H28.0009C28.7674 9.68201 29.1464 9.35013 29.1464 8.69074C29.1464 8.03135 28.7588 7.682 27.9837 7.682Z" fill="#AAAAAA"/>
<path d="M40.5051 0.734375V3.38941H35.9619V5.12741H39.8462V7.71694H35.9619V9.68637H40.6386L39.2433 12.337H33.0078V0.734375H40.5008H40.5051Z" fill="#AAAAAA"/>
<path d="M46.3711 0.5L52.5937 12.3297H49.1831L48.619 11.1682H44.1059L43.5418 12.3297H40.1484L46.3711 0.5ZM46.3711 6.54806L45.2385 8.85811H47.4864L46.3711 6.54806Z" fill="#AAAAAA"/>
<path d="M59.9803 0.734375V3.38941H56.419V12.3327H53.4692V3.38941H49.8906V0.734375H59.9846H59.9803Z" fill="#AAAAAA"/>
<path d="M68.8306 4.33107L65.8205 4.48391C65.8205 4.06906 65.6999 3.74592 65.4631 3.50574C65.2219 3.26993 64.8903 3.14766 64.4597 3.14766C64.0937 3.14766 63.8008 3.23937 63.5812 3.41841C63.3616 3.59745 63.2496 3.85072 63.2496 4.1695C63.2496 4.45771 63.3788 4.68042 63.6329 4.83763C63.9085 4.98173 64.4123 5.14767 65.1444 5.33544C66.4794 5.69789 67.4569 6.13894 68.0727 6.66296C68.6885 7.18698 68.9986 7.90751 68.9986 8.82454C68.9986 10.0429 68.5938 10.9643 67.7885 11.5844C66.9746 12.1957 65.9454 12.5014 64.7009 12.5014C63.2841 12.5014 62.1386 12.1608 61.2601 11.4796C60.3946 10.7896 59.9639 9.82018 59.9768 8.58L62.987 8.42279C62.9783 8.86821 63.1334 9.22629 63.452 9.5014C63.775 9.77651 64.1884 9.91188 64.6966 9.91188C65.5535 9.91188 65.9798 9.60184 65.9798 8.98175C65.9798 8.711 65.8334 8.48393 65.5363 8.29179C65.2392 8.09965 64.7396 7.91187 64.0377 7.7241C62.9181 7.44462 62.031 7.08654 61.3764 6.65423C60.6099 6.14767 60.2309 5.35291 60.2309 4.26557C60.2309 3.17823 60.5883 2.30486 61.3032 1.61491C62.0266 0.911846 63.0559 0.5625 64.3908 0.5625C65.7258 0.5625 66.7851 0.898746 67.6033 1.57124C68.4 2.235 68.8048 3.15203 68.8263 4.33107H68.8306Z" fill="#AAAAAA"/>
</svg>
