<svg width="24" height="25" viewBox="0 0 24 25" fill="none" xmlns="http://www.w3.org/2000/svg">
<g clip-path="url(#clip0_827_9200)">
<circle cx="12" cy="12.1641" r="11" fill="white"/>
<g filter="url(#filter0_d_827_9200)">
<path d="M8.1405 12.4047H9.58758C9.84344 12.4047 10.0888 12.5063 10.2697 12.6872C10.4507 12.8681 10.5523 13.1135 10.5523 13.3694V15.7812C10.5523 16.037 10.4507 16.2824 10.2697 16.4633C10.0888 16.6443 9.84344 16.7459 9.58758 16.7459H8.1405C7.88464 16.7459 7.63926 16.6443 7.45834 16.4633C7.27742 16.2824 7.17578 16.037 7.17578 15.7812V12.4047C7.17578 9.74058 9.33531 7.58105 11.9994 7.58105C14.6635 7.58105 16.823 9.74058 16.823 12.4047V15.7812C16.823 16.037 16.7213 16.2824 16.5404 16.4633C16.3595 16.6443 16.1141 16.7459 15.8583 16.7459H14.4112C14.1553 16.7459 13.9099 16.6443 13.729 16.4633C13.5481 16.2824 13.4465 16.037 13.4465 15.7812V13.3694C13.4465 13.1135 13.5481 12.8681 13.729 12.6872C13.9099 12.5063 14.1553 12.4047 14.4112 12.4047H15.8583C15.8583 11.3812 15.4517 10.3997 14.728 9.67602C14.0043 8.95234 13.0228 8.54578 11.9994 8.54578C10.9759 8.54578 9.99442 8.95234 9.27074 9.67602C8.54706 10.3997 8.1405 11.3812 8.1405 12.4047Z" fill="#323232"/>
</g>
</g>
<defs>
<filter id="filter0_d_827_9200" x="3.17578" y="7.58105" width="17.6475" height="17.165" filterUnits="userSpaceOnUse" color-interpolation-filters="sRGB">
<feFlood flood-opacity="0" result="BackgroundImageFix"/>
<feColorMatrix in="SourceAlpha" type="matrix" values="0 0 0 0 0 0 0 0 0 0 0 0 0 0 0 0 0 0 127 0" result="hardAlpha"/>
<feOffset dy="4"/>
<feGaussianBlur stdDeviation="2"/>
<feComposite in2="hardAlpha" operator="out"/>
<feColorMatrix type="matrix" values="0 0 0 0 0 0 0 0 0 0 0 0 0 0 0 0 0 0 0.25 0"/>
<feBlend mode="normal" in2="BackgroundImageFix" result="effect1_dropShadow_827_9200"/>
<feBlend mode="normal" in="SourceGraphic" in2="effect1_dropShadow_827_9200" result="shape"/>
</filter>
<clipPath id="clip0_827_9200">
<rect width="24" height="24" fill="white" transform="translate(0 0.164062)"/>
</clipPath>
</defs>
</svg>
