<svg width="83" height="82" viewBox="0 0 83 82" fill="none" xmlns="http://www.w3.org/2000/svg">
<path fill-rule="evenodd" clip-rule="evenodd" d="M15.7688 68.3343H67.2314C72.4953 68.3343 75.7826 62.6327 73.1451 58.0772L47.4139 13.6322C44.7819 9.08613 38.2183 9.08612 35.5864 13.6322L9.8551 58.0772C7.21768 62.6327 10.5049 68.3343 15.7688 68.3343ZM45.771 57.2301C45.771 59.5888 43.8588 61.5009 41.5001 61.5009C39.1414 61.5009 37.2293 59.5888 37.2293 57.2301C37.2293 54.8714 39.1414 52.9592 41.5001 52.9592C43.8588 52.9592 45.771 54.8714 45.771 57.2301ZM44.9168 30.7509C44.9168 28.8639 43.3871 27.3342 41.5001 27.3342C39.6131 27.3342 38.0835 28.8639 38.0835 30.7509V44.4176C38.0835 46.3046 39.6131 47.8342 41.5001 47.8342C43.3871 47.8342 44.9168 46.3046 44.9168 44.4176V30.7509Z" fill="url(#paint0_linear_997_9960)"/>
<defs>
<linearGradient id="paint0_linear_997_9960" x1="8.92529" y1="10.2227" x2="84.431" y2="31.3852" gradientUnits="userSpaceOnUse">
<stop stop-color="#DF0B17"/>
<stop offset="0.711919" stop-color="#FF755F"/>
</linearGradient>
</defs>
</svg>
