<svg width="31" height="31" viewBox="0 0 31 31" fill="none" xmlns="http://www.w3.org/2000/svg">
<path d="M15.9688 27.6235C22.8723 27.6235 28.4688 22.0271 28.4688 15.1235C28.4688 8.21998 22.8723 2.62354 15.9688 2.62354C9.06519 2.62354 3.46875 8.21998 3.46875 15.1235C3.46875 22.0271 9.06519 27.6235 15.9688 27.6235Z" fill="#444444" stroke="white" stroke-width="1.5" stroke-miterlimit="10" stroke-linejoin="round"/>
<path d="M24.2995 24.2899C24.2995 19.6874 20.5686 15.9565 15.9661 15.9565C11.3636 15.9565 7.63281 19.6874 7.63281 24.2899" fill="#444444"/>
<path d="M24.2995 24.2899C24.2995 19.6874 20.5686 15.9565 15.9661 15.9565C11.3636 15.9565 7.63281 19.6874 7.63281 24.2899" stroke="white" stroke-width="1.5" stroke-miterlimit="10" stroke-linejoin="round"/>
<path d="M15.9688 15.9568C18.7302 15.9568 20.9688 13.7182 20.9688 10.9568C20.9688 8.19536 18.7302 5.95679 15.9688 5.95679C13.2073 5.95679 10.9688 8.19536 10.9688 10.9568C10.9688 13.7182 13.2073 15.9568 15.9688 15.9568Z" fill="#444444" stroke="white" stroke-width="1.5" stroke-miterlimit="10" stroke-linejoin="round"/>
</svg>
