<svg width="29" height="28" viewBox="0 0 29 28" fill="none" xmlns="http://www.w3.org/2000/svg">
<circle cx="14.5" cy="14" r="13.5" fill="white" stroke="#DF0B17"/>
<path d="M10.1488 18.1757C9.9548 18.3723 9.9548 18.6909 10.1488 18.8875C10.3428 19.084 10.6572 19.084 10.8512 18.8875L10.1488 18.1757ZM18.8512 10.7816C19.0452 10.5851 19.0452 10.2665 18.8512 10.0699C18.6572 9.87337 18.3428 9.87337 18.1488 10.0699L18.8512 10.7816ZM18.1488 10.0699L10.1488 18.1757L10.8512 18.8875L18.8512 10.7816L18.1488 10.0699Z" fill="#DF0B17"/>
<path d="M10.8512 10.0657C10.6572 9.86912 10.3428 9.86912 10.1488 10.0657C9.9548 10.2622 9.9548 10.5809 10.1488 10.7774L10.8512 10.0657ZM18.1488 18.8832C18.3428 19.0798 18.6572 19.0798 18.8512 18.8832C19.0452 18.6867 19.0452 18.368 18.8512 18.1715L18.1488 18.8832ZM18.8512 18.1715L10.8512 10.0657L10.1488 10.7774L18.1488 18.8832L18.8512 18.1715Z" fill="#DF0B17"/>
</svg>
