<svg width="24" height="25" viewBox="0 0 24 25" fill="none" xmlns="http://www.w3.org/2000/svg">
<path fill-rule="evenodd" clip-rule="evenodd" d="M16.6603 2.2605C15.794 2.24797 14.8992 2.39308 14.0002 2.84564C13.3198 3.18815 12.6626 3.69389 12.0246 4.39926C11.3827 3.69372 10.7201 3.19206 10.0376 2.85245C9.13809 2.40478 8.24778 2.26042 7.40152 2.26042C3.86249 2.26042 1 5.20847 1 9.17552C1 13.1082 3.65361 16.3814 6.20224 18.6032C7.49338 19.7288 8.79871 20.6209 9.81657 21.2332C10.3256 21.5395 10.7682 21.7791 11.1071 21.9447C11.2755 22.027 11.4257 22.0948 11.5499 22.1438C11.6114 22.1681 11.6755 22.1914 11.7377 22.2098C11.779 22.2221 11.8932 22.2557 12.0255 22.2557C12.1578 22.2557 12.272 22.2221 12.3133 22.2098C12.3754 22.1914 12.4396 22.1681 12.5011 22.1438C12.6253 22.0948 12.7755 22.027 12.9439 21.9447C13.2827 21.7791 13.7254 21.5395 14.2344 21.2332C15.2523 20.6209 16.5576 19.7288 17.8487 18.6032C20.3974 16.3814 23.051 13.1082 23.051 9.17551C23.051 5.1983 20.1813 2.31145 16.6603 2.2605Z" fill="white"/>
<g filter="url(#filter0_d_843_19465)">
<path fill-rule="evenodd" clip-rule="evenodd" d="M11.1928 8.53762C11.1928 8.15602 11.5022 7.84668 11.8838 7.84668C14.3005 7.84668 16.2597 9.80586 16.2597 12.2226C16.2597 12.6042 15.9504 12.9136 15.5688 12.9136C15.1872 12.9136 14.8778 12.6042 14.8778 12.2226C14.8778 10.8069 13.8952 9.6206 12.5747 9.30868V14.0651C12.5747 15.4643 11.4404 16.5986 10.0413 16.5986C8.64207 16.5986 7.50781 15.4643 7.50781 14.0651C7.50781 12.666 8.64207 11.5317 10.0413 11.5317C10.4559 11.5317 10.8473 11.6313 11.1928 11.8079V8.53762Z" fill="#323232"/>
</g>
<defs>
<filter id="filter0_d_843_19465" x="3.50781" y="7.84668" width="16.752" height="16.752" filterUnits="userSpaceOnUse" color-interpolation-filters="sRGB">
<feFlood flood-opacity="0" result="BackgroundImageFix"/>
<feColorMatrix in="SourceAlpha" type="matrix" values="0 0 0 0 0 0 0 0 0 0 0 0 0 0 0 0 0 0 127 0" result="hardAlpha"/>
<feOffset dy="4"/>
<feGaussianBlur stdDeviation="2"/>
<feComposite in2="hardAlpha" operator="out"/>
<feColorMatrix type="matrix" values="0 0 0 0 0 0 0 0 0 0 0 0 0 0 0 0 0 0 0.25 0"/>
<feBlend mode="normal" in2="BackgroundImageFix" result="effect1_dropShadow_843_19465"/>
<feBlend mode="normal" in="SourceGraphic" in2="effect1_dropShadow_843_19465" result="shape"/>
</filter>
</defs>
</svg>
