<svg width="24" height="25" viewBox="0 0 24 25" fill="none" xmlns="http://www.w3.org/2000/svg">
<g clip-path="url(#clip0_1441_12916)">
<path d="M5.42257 22.6896L5.42485 22.6913C5.87216 23.0288 6.4073 23.2129 6.968 23.2129C7.39553 23.2129 7.81887 23.1023 8.19264 22.8955C8.19302 22.8953 8.19341 22.8951 8.19379 22.8949L11.9999 20.8041L15.8085 22.8973L15.8115 22.899C16.6862 23.3745 17.773 23.2941 18.5747 22.6914L18.5782 22.6888C19.3735 22.0837 19.764 21.0587 19.6018 20.0725C19.6018 20.0724 19.6018 20.0723 19.6018 20.0722L18.8673 15.5971L21.9732 12.4324L21.9734 12.4322C22.68 11.7118 22.9232 10.6619 22.6253 9.69761L22.625 9.69671C22.3248 8.72929 21.5258 8.01109 20.5238 7.85685L20.5221 7.8566L16.2562 7.20978L14.3419 3.15612L14.3417 3.15556C13.9131 2.25003 12.9998 1.71289 12 1.71289C10.9996 1.71289 10.0869 2.25111 9.65799 3.15565L9.65745 3.15678L7.74384 7.20976L3.47613 7.85659L3.47447 7.85685C2.48372 8.0093 1.67141 8.74032 1.37494 9.69698L1.3748 9.69743C1.07678 10.6612 1.32004 11.7118 2.02659 12.4322L2.02678 12.4324L5.13214 15.5964L4.39763 20.0717C4.39762 20.0718 4.39761 20.0718 4.3976 20.0719C4.23544 21.0588 4.62602 22.0838 5.42257 22.6896Z" fill="white" stroke="#444444" stroke-width="1.5"/>
</g>
<defs>
<clipPath id="clip0_1441_12916">
<rect width="24" height="24" fill="white" transform="translate(0 0.462891)"/>
</clipPath>
</defs>
</svg>
