<svg xmlns="http://www.w3.org/2000/svg" viewBox="0 0 247.22 57.07"><defs><style>.cls-1{fill:#df0b17;}.cls-2{fill:#fff;}</style></defs><title>자산 1</title><g id="레이어_2" data-name="레이어 2"><g id="레이어_1-2" data-name="레이어 1"><path class="cls-1" d="M0,.47H66.82c13,0,19.33,4.89,19.33,15,0,5.29-1.85,9.38-5.53,11.87,5.13,2.24,7,7.05,7,13.23.08,10.34-6.33,16-20,16H0ZM64.26,22c2.56,0,4.09-1.36,4.09-4.41s-1.53-4.25-4.09-4.25H58.4V22Zm.16,21.65c3,0,4.73-1.36,4.73-4.57s-1.69-4.57-4.73-4.57h-6v9.14Z"/><path class="cls-2" d="M93.4,24V.43h10.5a8.33,8.33,0,0,1,5.54,1.72,6.17,6.17,0,0,1,2,5,5.89,5.89,0,0,1-1.93,4.42,5,5,0,0,1,2.07,2.06,6.82,6.82,0,0,1,.77,3.3,6.61,6.61,0,0,1-2.11,5.22A8.36,8.36,0,0,1,104.54,24Zm9.81-18.2H99.49V9.39h3.66c1.41,0,2.11-.59,2.11-1.77s-.68-1.79-2.05-1.79m.57,8.74H99.49v4.07h4.32c1.58,0,2.37-.68,2.37-2s-.8-2.05-2.4-2.05"/><path class="cls-2" d="M141.7,0l12.84,24.07h-7l-1.17-2.37H137l-1.16,2.37h-7Zm0,12.3L139.37,17H144Z"/><polygon class="cls-2" points="169.78 0.47 169.78 5.87 162.43 5.87 162.43 24.07 156.34 24.07 156.34 5.87 148.96 5.87 148.96 0.47 169.78 0.47"/><polygon class="cls-2" points="129.55 0.39 129.55 5.8 120.14 5.8 120.14 9.35 128.19 9.35 128.19 14.64 120.14 14.64 120.14 18.66 129.84 18.66 126.94 24.07 114.03 24.07 114.03 0.39 129.55 0.39"/><path class="cls-2" d="M111.15,40.32l-6.22.31a2.61,2.61,0,0,0-.74-2,3.28,3.28,0,0,0-3.88-.18A1.88,1.88,0,0,0,99.63,40a1.52,1.52,0,0,0,.79,1.36,16.84,16.84,0,0,0,3.12,1,16.05,16.05,0,0,1,6,2.69,5.45,5.45,0,0,1,1.91,4.41,6.61,6.61,0,0,1-2.5,5.61,10.43,10.43,0,0,1-6.37,1.86,11.34,11.34,0,0,1-7.1-2.08A7,7,0,0,1,92.88,49l6.22-.31a2.65,2.65,0,0,0,1,2.19,3.84,3.84,0,0,0,2.57.83c1.77,0,2.65-.63,2.65-1.89a1.67,1.67,0,0,0-.91-1.4,11.55,11.55,0,0,0-3.1-1.15,18.05,18.05,0,0,1-5.49-2.18,5.4,5.4,0,0,1-2.36-4.86,7.1,7.1,0,0,1,2.21-5.39A8.83,8.83,0,0,1,102,32.65a10.15,10.15,0,0,1,6.62,2.05,7,7,0,0,1,2.53,5.62"/><path class="cls-2" d="M124.71,32.65a12.31,12.31,0,0,1,9,3.35,11.51,11.51,0,0,1,3.5,8.8,11.62,11.62,0,0,1-3.5,8.83,12.36,12.36,0,0,1-9,3.31,12.62,12.62,0,0,1-9-3.31,11.73,11.73,0,0,1-3.47-8.83,11.56,11.56,0,0,1,3.47-8.8,12.49,12.49,0,0,1,9-3.35m0,5.4a6,6,0,0,0-4.6,1.81,6.92,6.92,0,0,0-1.71,4.94,6.89,6.89,0,0,0,1.71,4.93,6,6,0,0,0,4.6,1.82,5.91,5.91,0,0,0,4.56-1.82A6.93,6.93,0,0,0,131,44.8a7,7,0,0,0-1.69-4.94,5.91,5.91,0,0,0-4.56-1.81"/><polygon class="cls-2" points="164.46 32.52 164.46 56.6 158.38 56.6 158.38 48.36 151.62 56.6 144.84 48.36 144.84 56.6 138.75 56.6 138.75 32.52 151.62 48.05 164.46 32.52"/><polygon class="cls-2" points="182.19 33 182.19 38.39 172.82 38.39 172.82 41.93 180.84 41.93 180.84 47.2 172.82 47.2 172.82 51.2 182.23 51.2 182.23 56.6 166.74 56.6 166.74 33 182.19 33"/><path class="cls-2" d="M195.85,32.65a12.31,12.31,0,0,1,9,3.35,11.52,11.52,0,0,1,3.51,8.8,11.63,11.63,0,0,1-3.51,8.83,12.36,12.36,0,0,1-9,3.31,12.62,12.62,0,0,1-9-3.31,11.77,11.77,0,0,1-3.47-8.83A11.6,11.6,0,0,1,186.8,36a12.49,12.49,0,0,1,9-3.35m0,5.4a6,6,0,0,0-4.6,1.81,6.91,6.91,0,0,0-1.7,4.94,6.89,6.89,0,0,0,1.7,4.93,6,6,0,0,0,4.6,1.82,5.91,5.91,0,0,0,4.56-1.82,6.93,6.93,0,0,0,1.69-4.93,7,7,0,0,0-1.69-4.94,5.91,5.91,0,0,0-4.56-1.81"/><polygon class="cls-2" points="209.89 32.52 223.37 44.04 223.37 33 229.45 33 229.45 57.07 215.98 45.59 215.98 56.6 209.89 56.6 209.89 32.52"/><polygon class="cls-2" points="247.18 33 247.18 38.39 237.81 38.39 237.81 41.93 245.83 41.93 245.83 47.2 237.81 47.2 237.81 51.2 247.22 51.2 247.22 56.6 231.72 56.6 231.72 33 247.18 33"/></g></g></svg>