<svg width="28" height="29" viewBox="0 0 28 29" fill="none" xmlns="http://www.w3.org/2000/svg">
<path d="M22.5994 14.557C22.5994 13.8149 22.5393 13.274 22.4101 12.7122H13.9399V16.0593H18.9096C18.8105 16.8916 18.2696 18.1446 17.0648 18.9859L17.0468 19.0971L19.7239 21.1703L19.9102 21.1883C21.6138 19.6139 22.5964 17.3003 22.5964 14.554" fill="#3E76BA"/>
<path d="M13.9398 23.3757C16.3766 23.3757 18.4198 22.5734 19.9131 21.1913L17.0677 18.9859C16.3045 19.5177 15.2829 19.8873 13.9398 19.8873C11.5541 19.8873 9.529 18.3128 8.80788 16.1375L8.70272 16.1465L5.9174 18.3008L5.88135 18.403C7.36565 21.3505 10.4124 23.3727 13.9398 23.3727" fill="#1AA247"/>
<path d="M8.80795 16.1403C8.61865 15.5784 8.50748 14.9775 8.50748 14.3555C8.50748 13.7336 8.61865 13.1326 8.79893 12.5708L8.79292 12.4506L5.97456 10.2632L5.88141 10.3083C5.27147 11.5281 4.91992 12.9013 4.91992 14.3555C4.91992 15.8098 5.27147 17.1829 5.88141 18.4058L8.80795 16.1403Z" fill="#F5B517"/>
<path d="M13.9398 8.8241C15.6345 8.8241 16.7762 9.55423 17.4282 10.1672L19.9732 7.68233C18.4108 6.22808 16.3766 5.33569 13.9398 5.33569C10.4124 5.33569 7.36565 7.36083 5.88135 10.3054L8.79887 12.5709C9.532 10.3955 11.5541 8.82109 13.9398 8.82109" fill="#E7352C"/>
</svg>
