<svg width="28" height="29" viewBox="0 0 28 29" fill="none" xmlns="http://www.w3.org/2000/svg">
<path d="M14.1575 5.33569C8.66743 5.33569 4.21777 8.87236 4.21777 13.2371C4.21777 15.9427 5.92848 18.3298 8.53397 19.7554L7.81511 23.6075C7.77871 23.7986 7.99103 23.9411 8.15482 23.8319L12.4255 21.0202C12.4255 21.0202 13.566 21.1415 14.1575 21.1415C19.6475 21.1415 24.0971 17.6048 24.0971 13.2401C24.0971 8.8754 19.6475 5.33569 14.1575 5.33569Z" fill="#3B1D1D"/>
<path d="M10.1325 11.0352H7.26617C6.99622 11.0352 6.77783 11.2535 6.77783 11.5265C6.77783 11.7995 6.99622 12.0179 7.26617 12.0179H8.19735V15.4757C8.19735 15.6001 8.24892 15.7244 8.33688 15.8154C8.42484 15.9034 8.54617 15.9549 8.67053 15.9549H8.77366C8.89801 15.9549 9.01934 15.9034 9.1073 15.8154C9.19527 15.7244 9.24683 15.6031 9.24683 15.4757V12.0179H10.1264C10.3964 12.0179 10.6148 11.7965 10.6148 11.5265C10.6148 11.2566 10.3964 11.0352 10.1264 11.0352H10.1325Z" fill="#EDD721"/>
<path d="M16.8358 15.0298H15.5043V11.4992C15.5043 11.205 15.2677 10.9653 14.9765 10.9653C14.6853 10.9653 14.4487 11.2019 14.4487 11.4992V15.4756C14.4487 15.7213 14.6459 15.9215 14.8916 15.9215H16.8389C17.0846 15.9215 17.2817 15.7213 17.2817 15.4756C17.2817 15.23 17.0846 15.0298 16.8389 15.0298H16.8358Z" fill="#EDD721"/>
<path d="M21.1093 15.1935L19.6261 13.228L20.9667 11.8752C21.1487 11.6932 21.1487 11.3959 20.9667 11.2139C20.7847 11.032 20.4905 11.032 20.3085 11.2139L18.6464 12.8883V11.5021C18.6464 11.2079 18.4098 10.9683 18.1186 10.9683C17.8274 10.9683 17.5908 11.2048 17.5908 11.5021V15.427C17.5908 15.7212 17.8274 15.9609 18.1186 15.9609C18.4098 15.9609 18.6464 15.7212 18.6464 15.427V14.2168L18.9466 13.9135L20.351 15.7698C20.5057 15.9791 20.8029 16.0215 21.0122 15.8638C21.2215 15.7061 21.264 15.4058 21.1063 15.1965L21.1093 15.1935Z" fill="#EDD721"/>
<path d="M14.1302 15.321L12.7016 11.3839H12.6955C12.6045 11.1413 12.3407 10.9653 12.0252 10.9653C11.9494 10.9653 11.8705 10.9744 11.7977 10.9987C11.728 11.0199 11.6612 11.0503 11.6006 11.0897C11.5429 11.1261 11.4914 11.1746 11.4459 11.2262C11.4155 11.2626 11.3913 11.302 11.3731 11.3414C11.3549 11.3778 11.2851 11.578 11.2639 11.6417L11.2396 11.7085L11.2093 11.7873L11.1759 11.8783L11.1395 11.9784L11.0971 12.0906L11.0516 12.212L11.003 12.3394L10.9545 12.4758L10.9029 12.6184L10.8483 12.764L10.7937 12.9157L10.7361 13.0703L10.6785 13.225L10.6209 13.3828L10.5632 13.5405L10.5056 13.6982L10.448 13.8529L10.3903 14.0046L10.3357 14.1532L10.2811 14.2988L10.2296 14.4383L10.181 14.5718L10.1355 14.6961L10.0931 14.8114L10.0537 14.9175L10.0173 15.0146L9.98692 15.0995L9.95962 15.1723L9.93839 15.233L9.92019 15.2785L9.90806 15.3088L9.90199 15.324C9.81403 15.5727 9.94446 15.8457 10.1901 15.9337C10.4358 16.0216 10.7088 15.8912 10.7937 15.6425L11.0364 14.9448H12.9898L13.2324 15.6425C13.3204 15.8912 13.5903 16.0216 13.836 15.9337C14.0817 15.8457 14.2121 15.5727 14.1272 15.324L14.1302 15.321ZM11.3488 14.047L12.004 12.1604C12.004 12.1604 12.0191 12.1604 12.0252 12.1604L12.6804 14.047H11.3458H11.3488Z" fill="#EDD721"/>
</svg>
