<svg width="28" height="29" viewBox="0 0 28 29" fill="none" xmlns="http://www.w3.org/2000/svg">
<path d="M23.9964 8.1111C23.2514 8.41196 22.4599 8.61032 21.6361 8.70951C22.485 8.24004 23.1332 7.50607 23.4413 6.61672C22.6497 7.05313 21.7758 7.3606 20.841 7.53252C20.0888 6.79194 19.0179 6.33569 17.8467 6.33569C15.5759 6.33569 13.7493 8.03505 13.7493 10.1212C13.7493 10.4221 13.7779 10.7097 13.846 10.9841C10.4362 10.8321 7.42049 9.32445 5.39685 7.02668C5.04226 7.59203 4.83453 8.24004 4.83453 8.94094C4.83453 10.2502 5.56519 11.4139 6.65401 12.0851C5.99499 12.0752 5.35029 11.8966 4.80229 11.6189V11.6619C4.80229 13.5001 6.22421 15.0276 8.08668 15.3813C7.75358 15.464 7.38825 15.507 7.01218 15.507C6.75072 15.507 6.48567 15.4937 6.23496 15.4408C6.76504 16.9385 8.27292 18.0395 10.0638 18.0758C8.67049 19.0842 6.89756 19.6892 4.98138 19.6892C4.6447 19.6892 4.32235 19.676 4 19.6363C5.8159 20.7174 7.96848 21.3357 10.2894 21.3357C17.8324 21.3357 21.9585 15.5665 21.9585 10.5676C21.9585 10.399 21.9513 10.2403 21.9441 10.0783C22.7572 9.54596 23.4413 8.87812 24 8.1144L23.9964 8.1111Z" fill="#3495D3"/>
</svg>
