<svg width="28" height="29" viewBox="0 0 28 29" fill="none" xmlns="http://www.w3.org/2000/svg">
<path d="M18.5528 14.6084C18.5321 12.2958 20.4444 11.1705 20.5341 11.1188C19.4503 9.53788 17.7693 9.32387 17.1791 9.30661C15.7673 9.15819 14.4004 10.1523 13.6825 10.1523C12.9645 10.1523 11.8427 9.32387 10.6484 9.34803C9.11242 9.37219 7.67651 10.2593 6.88952 11.64C5.26377 14.4531 6.47532 18.5883 8.03204 20.8629C8.81212 21.9778 9.71992 23.2204 10.9108 23.1756C12.0774 23.1272 12.5124 22.4335 13.9172 22.4335C15.322 22.4335 15.719 23.1756 16.934 23.148C18.1835 23.1272 18.9739 22.0296 19.723 20.9043C20.6239 19.6272 20.9828 18.3708 21.0001 18.3052C20.9725 18.2949 18.5701 17.3802 18.5459 14.6084H18.5528Z" fill="#040000"/>
<path d="M16.2581 7.73839C16.8863 6.95486 17.3143 5.88828 17.1935 4.80444C16.2857 4.84586 15.1501 5.43265 14.4977 6.19893C13.9213 6.87547 13.4035 7.98347 13.5381 9.02243C14.5564 9.09837 15.6023 8.50813 16.2581 7.73494V7.73839Z" fill="#040000"/>
</svg>
