<svg width="28" height="29" viewBox="0 0 28 29" fill="none" xmlns="http://www.w3.org/2000/svg">
<path d="M28 16.9915C28.0042 15.0696 26.5079 13.5136 24.6724 13.5136C24.2146 13.5136 23.778 13.6106 23.3753 13.7825C23.104 10.6616 20.5861 8.21069 17.5128 8.21069C16.7583 8.21069 16.0292 8.35616 15.3807 8.62505C15.1221 8.72203 15.05 8.81901 15.05 9.03059V20.0375C15.05 20.2579 15.2153 20.4166 15.4146 20.4431H24.6682C26.5036 20.4431 28 18.9002 28 16.9915Z" fill="#FF5500"/>
<path d="M14.7491 9.39646C14.7321 9.26422 14.6643 9.14079 14.5583 9.07908C14.5117 9.04382 14.4396 9.01737 14.3803 9.01737C14.287 9.01737 14.2022 9.05263 14.1429 9.10112C14.0623 9.17606 14.0115 9.28626 14.003 9.39646V9.43173L13.8631 17.2208L13.9352 18.6534L14.0072 20.0507C14.02 20.2579 14.1853 20.4298 14.3845 20.4298C14.5837 20.4298 14.7491 20.2579 14.7491 20.0507L14.9144 17.2208L14.7491 9.39646Z" fill="#FF5500"/>
<path d="M7.58524 11.2743C7.70393 11.2743 7.80991 11.3713 7.80991 11.5079L8.03457 17.2384L7.80991 20.2271C7.80991 20.3637 7.70393 20.4607 7.58524 20.4607C7.45383 20.4607 7.36058 20.3637 7.34786 20.2271L7.16135 17.2384L7.34786 11.5079C7.36058 11.3713 7.45383 11.2743 7.58524 11.2743Z" fill="#FF5500"/>
<path d="M6.70355 12.557C6.70355 12.4336 6.61029 12.3366 6.50432 12.3366C6.38563 12.3366 6.30509 12.4336 6.29237 12.557L6.08042 17.212L6.29237 20.2227C6.30509 20.3461 6.38563 20.4431 6.50432 20.4431C6.61029 20.4431 6.70355 20.3461 6.70355 20.2227L6.94941 17.212L6.70355 12.557Z" fill="#FF5500"/>
<path d="M5.84304 17.212L5.59719 14.3467C5.58447 14.2497 5.50393 14.1616 5.41067 14.1616C5.31318 14.1616 5.23264 14.2497 5.23264 14.3467L4.99526 17.212L5.23264 20.2227C5.23264 20.3329 5.31742 20.4166 5.41067 20.4166C5.50393 20.4166 5.58447 20.3329 5.59719 20.2227L5.84304 17.212Z" fill="#FF5500"/>
<path d="M1.28618 15.6427C1.27346 15.581 1.23955 15.5325 1.1802 15.5325C1.12086 15.5325 1.08695 15.581 1.07423 15.6427L0.875 17.212L1.07423 18.7548C1.08695 18.8165 1.12086 18.865 1.1802 18.865C1.23955 18.865 1.27346 18.8165 1.28618 18.7548L1.52356 17.212L1.28618 15.6427Z" fill="#FF5500"/>
<path d="M2.18059 14.5671C2.23994 14.5671 2.28657 14.6156 2.29928 14.6773L2.60449 17.212L2.29928 19.6981C2.28657 19.7598 2.23994 19.8083 2.18059 19.8083C2.12125 19.8083 2.07462 19.7598 2.07462 19.6849L1.80333 17.212L2.07462 14.6773C2.07462 14.6156 2.12125 14.5671 2.18059 14.5671Z" fill="#FF5500"/>
<path d="M3.38446 14.2101C3.38446 14.1263 3.32511 14.0646 3.25305 14.0646C3.18099 14.0646 3.12164 14.1263 3.11317 14.2101L2.86731 17.212L3.11317 20.1125C3.12588 20.1874 3.18523 20.2491 3.25305 20.2491C3.32511 20.2491 3.38446 20.1874 3.38446 20.1125L3.67695 17.212L3.38446 14.2101Z" fill="#FF5500"/>
<path d="M4.32549 13.9676C4.40603 13.9676 4.4781 14.0293 4.49081 14.1263L4.7621 17.212L4.49081 20.2006C4.4781 20.2976 4.40603 20.3593 4.32549 20.3593C4.24495 20.3593 4.17289 20.2976 4.17289 20.2006L3.92703 17.212L4.17289 14.1263C4.17289 14.0293 4.24495 13.9676 4.32549 13.9676Z" fill="#FF5500"/>
<path d="M13.4265 9.75351C13.5198 9.81523 13.5791 9.92543 13.5918 10.0489L13.7317 17.2252L13.6003 19.8083L13.5876 20.1036C13.5876 20.205 13.5537 20.2888 13.4816 20.3505C13.4223 20.4122 13.3375 20.4607 13.2442 20.4607C13.1383 20.4607 13.045 20.4078 12.9729 20.324C12.9263 20.2623 12.9009 20.1918 12.9009 20.1169V20.1036C12.7695 17.2252 12.7695 17.212 12.7695 17.212L12.8882 10.1238L12.9009 10.0489C12.9009 9.92543 12.9602 9.81523 13.0535 9.75351C13.1086 9.71825 13.1722 9.6918 13.24 9.6918C13.3078 9.6918 13.3672 9.71825 13.4265 9.75351Z" fill="#FF5500"/>
<path d="M8.9629 11.0142C8.95443 10.8688 8.84845 10.7453 8.70433 10.7453C8.57292 10.7453 8.45847 10.8688 8.45847 11.0142L8.27196 17.212L8.45847 20.1742C8.47119 20.3196 8.57716 20.4298 8.70433 20.4298C8.84421 20.4298 8.95019 20.3196 8.9629 20.1742L9.17485 17.212L8.9629 11.0142Z" fill="#FF5500"/>
<path d="M12.0955 10.8555C12.2735 10.8555 12.4007 11.001 12.4134 11.1994L12.5787 17.2252L12.4134 20.1169C12.4134 20.302 12.2735 20.4475 12.0955 20.4475C11.9174 20.4475 11.7776 20.302 11.7648 20.1169L11.625 17.2252L11.7648 11.1994C11.7776 11.001 11.9174 10.8555 12.0955 10.8555Z" fill="#FF5500"/>
<path d="M10.1074 10.807C10.0947 10.6484 9.97601 10.5117 9.82341 10.5117C9.68352 10.5117 9.55211 10.6484 9.55211 10.807L9.38679 17.212L9.55211 20.1609C9.56483 20.3196 9.68352 20.4431 9.82341 20.4431C9.97601 20.4431 10.0947 20.3196 10.1074 20.1609L10.2939 17.212L10.1074 10.807Z" fill="#FF5500"/>
<path d="M10.9552 10.6616C11.1205 10.6616 11.2477 10.7938 11.2477 10.9657L11.4257 17.212L11.2477 20.1389C11.2477 20.3064 11.1163 20.4431 10.9552 20.4431C10.7941 20.4431 10.6754 20.3108 10.6627 20.1389L10.4974 17.212L10.6627 10.9657C10.6627 10.7982 10.7899 10.6616 10.9552 10.6616Z" fill="#FF5500"/>
</svg>
