<svg width="29" height="29" viewBox="0 0 29 29" fill="none" xmlns="http://www.w3.org/2000/svg">
<path fill-rule="evenodd" clip-rule="evenodd" d="M7.56901 8.98376C6.99027 8.98376 6.65234 9.39535 6.65234 9.73376V18.7338C6.65234 19.0722 6.99027 19.4838 7.56901 19.4838H20.9023C21.4811 19.4838 21.819 19.0722 21.819 18.7338V9.73376C21.819 9.39535 21.4811 8.98376 20.9023 8.98376H7.56901ZM5.15234 9.73376C5.15234 8.42218 6.31441 7.48376 7.56901 7.48376H20.9023C22.1569 7.48376 23.319 8.42218 23.319 9.73376V18.7338C23.319 20.0454 22.1569 20.9838 20.9023 20.9838H7.56901C6.31441 20.9838 5.15234 20.0454 5.15234 18.7338V9.73376Z" fill="#222222"/>
<path fill-rule="evenodd" clip-rule="evenodd" d="M5.26787 9.33408C5.48866 8.98362 5.95176 8.8785 6.30222 9.09929L14.2358 14.0974L22.1693 9.09929C22.5198 8.8785 22.9829 8.98362 23.2037 9.33408C23.4245 9.68455 23.3193 10.1476 22.9689 10.3684L14.6356 15.6184C14.3913 15.7723 14.0803 15.7723 13.836 15.6184L5.50266 10.3684C5.1522 10.1476 5.04708 9.68455 5.26787 9.33408Z" fill="#222222"/>
</svg>
