<svg width="25" height="24" viewBox="0 0 25 24" fill="none" xmlns="http://www.w3.org/2000/svg">
<path fill-rule="evenodd" clip-rule="evenodd" d="M16.1484 20.1001C15.9711 20.1002 15.7956 20.0653 15.6319 19.9973C15.4682 19.9293 15.3195 19.8297 15.1944 19.7041L8.44439 12.9541C8.31898 12.8287 8.2195 12.6799 8.15163 12.5161C8.08376 12.3523 8.04883 12.1767 8.04883 11.9993C8.04883 11.822 8.08376 11.6464 8.15163 11.4826C8.2195 11.3188 8.31898 11.17 8.44439 11.0446L15.1944 4.2946C15.3188 4.16487 15.4678 4.06129 15.6327 3.98992C15.7977 3.91855 15.9752 3.88083 16.1549 3.87898C16.3346 3.87712 16.5129 3.91117 16.6793 3.97912C16.8457 4.04707 16.9968 4.14756 17.1238 4.27469C17.2508 4.40182 17.3512 4.55303 17.419 4.71946C17.4869 4.88589 17.5208 5.06419 17.5188 5.2439C17.5168 5.42361 17.4789 5.60111 17.4074 5.76599C17.3359 5.93087 17.2322 6.07982 17.1024 6.2041L11.3079 12.0001L17.1024 17.7946C17.2915 17.9833 17.4203 18.2239 17.4726 18.4859C17.5249 18.7478 17.4983 19.0194 17.3961 19.2663C17.294 19.5131 17.1209 19.7241 16.8988 19.8725C16.6767 20.021 16.4155 20.1002 16.1484 20.1001Z" fill="#222222"/>
</svg>
